<?xml version="1.0" encoding="UTF-8"?>
<svg width="880" height="280" viewBox="0 0 880 280" xmlns="http://www.w3.org/2000/svg"
  xmlns:xlink="http://www.w3.org/1999/xlink" text-rendering="geometricPrecision" shape-rendering="geometricPrecision">
  <style>
    :root{ color-scheme: dark; }
    .name{ font:800 18px system-ui; fill:#e5e7eb }
    .desc{ fill:#9ca3af }
    .pill{ font:700 12px system-ui; fill:#e5e7eb }
    .legend{ font:600 12px system-ui; fill:#cbd5e1 }
    a:hover .name, a:hover .desc { text-decoration: underline; }
  </style>
  <defs>
    <clipPath id="frame"><rect x="0" y="0" width="880" height="280" rx="8" ry="8"/></clipPath>
  </defs>
  
    <g class="slide" transform="translate(880,0)" clip-path="url(#frame)">
      
  <a xlink:href="https://github.com/statikfintechllc/GremlinGPT" target="_blank">
    <g transform="translate(0,20)">
      <rect x="0" y="0" rx="14" ry="14" width="420" height="230" fill="#0b1220" stroke="#1f2937"/>
      <text x="20" y="30" class="name">GremlinGPT</text>
      <text x="20" y="54" style="font:400 10px system-ui" class="desc">GremlinGPT is a locally hosted recursive intelligence system:</text><text x="20" y="66" style="font:400 10px system-ui" class="desc">Scrapes data, learns from results, and evolves without human</text><text x="20" y="78" style="font:400 10px system-ui" class="desc">oversight - Operates fully offline with no cloud dependencies -</text><text x="20" y="90" style="font:400 10px system-ui" class="desc">Grows its own NLP engine using feedback and self-repair - Can</text><text x="20" y="102" style="font:400 10px system-ui" class="desc">plan, refactor, and upgrade its own code. This repo mirrors</text><text x="20" y="114" style="font:400 10px system-ui" class="desc">statik-servers GremlinGPT.</text>
      <!-- Stars and forks -->
      <g class="badges" transform="translate(0,135)">
        <g transform="translate(240,0)">
          <rect x="0" y="-12" rx="10" ry="10" width="78" height="20" fill="#111827" stroke="#1f2937"/>
          <g transform="translate(6, -10)">
            <svg viewBox="0 0 24 24" width="16" height="16">
<path fill="none" stroke="#8abecf" stroke-width="2"
  d="M12 2.5l2.68 5.43 5.82.85-4.2 4.09.99 5.8L12 16.6 6.71 18.67l.99-5.8-4.2-4.09 5.82-.85L12 2.5z"/>
</svg>
          </g>
          <text x="26" y="2" class="pill">4</text>
        </g>
        <g transform="translate(330,0)">
          <rect x="0" y="-12" rx="10" ry="10" width="78" height="20" fill="#111827" stroke="#1f2937"/>
          <g transform="translate(6, -10)">
            <svg viewBox="0 0 24 24" width="16" height="16">
<path fill="#8abecf" d="M5 5.372v.878c0 .414.336.75.75.75h4.5a.75.75 0 0 0 .75-.75v-.878a2.25 2.25 0 1 1 1.5 0v.878a2.25 2.25 0 0 1-2.25 2.25h-1.5v2.128a2.25 2.25 0 1 1-1.5 0V8.5h-1.5A2.25 2.25 0 0 1 3.5 6.25v-.878a2.25 2.25 0 1 1 1.5 0ZM5 3.25a.75.75 0 1 0-1.5 0 .75.75 0 0 0 1.5 0Zm6.75.75a.75.75 0 1 0 0-1.5.75.75 0 0 0 0 1.5Zm-3 8.75a.75.75 0 1 0-1.5 0 .75.75 0 0 0 1.5 0Z"/>
</svg>
          </g>
          <text x="26" y="2" class="pill">1</text>
        </g>
      </g>
      <rect x="20" y="165" width="276" height="12" fill="#3572A5" /><rect x="296" y="165" width="39" height="12" fill="#ff5a03" /><rect x="335" y="165" width="22" height="12" fill="#89e051" /><rect x="357" y="165" width="14" height="12" fill="#3178c6" /><rect x="371" y="165" width="14" height="12" fill="#f1e05a" /><rect x="385" y="165" width="15" height="12" fill="#663399" />
      <rect x="20" y="187" width="8" height="8" rx="2" fill="#3572A5"/><text x="32" y="195" class="legend">Python</text><rect x="210" y="187" width="8" height="8" rx="2" fill="#ff5a03"/><text x="222" y="195" class="legend">Astro</text><rect x="20" y="199" width="8" height="8" rx="2" fill="#89e051"/><text x="32" y="207" class="legend">Shell</text><rect x="210" y="199" width="8" height="8" rx="2" fill="#3178c6"/><text x="222" y="207" class="legend">TypeScript</text>
    </g>
  </a>
  <a xlink:href="https://github.com/statikfintechllc/Gremlin-ShadTail-Trader" target="_blank">
    <g transform="translate(460,20)">
      <rect x="0" y="0" rx="14" ry="14" width="420" height="230" fill="#0b1220" stroke="#1f2937"/>
      <text x="20" y="30" class="name">Gremlin-ShadTail-Trader</text>
      <text x="20" y="54" style="font:400 13px system-ui" class="desc">GremlinGPT&apos;s standalone trading core, will be</text><text x="20" y="69" style="font:400 13px system-ui" class="desc">wrapped as a vscode plugin, using electron app for</text><text x="20" y="84" style="font:400 13px system-ui" class="desc">the application, astro, tailwond, and shadcn for</text><text x="20" y="99" style="font:400 13px system-ui" class="desc">the user interface, and Gremlins Trade Logic.</text>
      <!-- Stars and forks -->
      <g class="badges" transform="translate(0,135)">
        <g transform="translate(240,0)">
          <rect x="0" y="-12" rx="10" ry="10" width="78" height="20" fill="#111827" stroke="#1f2937"/>
          <g transform="translate(6, -10)">
            <svg viewBox="0 0 24 24" width="16" height="16">
<path fill="none" stroke="#8abecf" stroke-width="2"
  d="M12 2.5l2.68 5.43 5.82.85-4.2 4.09.99 5.8L12 16.6 6.71 18.67l.99-5.8-4.2-4.09 5.82-.85L12 2.5z"/>
</svg>
          </g>
          <text x="26" y="2" class="pill">1</text>
        </g>
        <g transform="translate(330,0)">
          <rect x="0" y="-12" rx="10" ry="10" width="78" height="20" fill="#111827" stroke="#1f2937"/>
          <g transform="translate(6, -10)">
            <svg viewBox="0 0 24 24" width="16" height="16">
<path fill="#8abecf" d="M5 5.372v.878c0 .414.336.75.75.75h4.5a.75.75 0 0 0 .75-.75v-.878a2.25 2.25 0 1 1 1.5 0v.878a2.25 2.25 0 0 1-2.25 2.25h-1.5v2.128a2.25 2.25 0 1 1-1.5 0V8.5h-1.5A2.25 2.25 0 0 1 3.5 6.25v-.878a2.25 2.25 0 1 1 1.5 0ZM5 3.25a.75.75 0 1 0-1.5 0 .75.75 0 0 0 1.5 0Zm6.75.75a.75.75 0 1 0 0-1.5.75.75 0 0 0 0 1.5Zm-3 8.75a.75.75 0 1 0-1.5 0 .75.75 0 0 0 1.5 0Z"/>
</svg>
          </g>
          <text x="26" y="2" class="pill">0</text>
        </g>
      </g>
      <rect x="20" y="165" width="248" height="12" fill="#3572A5" /><rect x="268" y="165" width="77" height="12" fill="#3178c6" /><rect x="345" y="165" width="14" height="12" fill="#f1e05a" /><rect x="359" y="165" width="14" height="12" fill="#89e051" /><rect x="373" y="165" width="14" height="12" fill="#663399" /><rect x="387" y="165" width="13" height="12" fill="#ff5a03" />
      <rect x="20" y="187" width="8" height="8" rx="2" fill="#3572A5"/><text x="32" y="195" class="legend">Python</text><rect x="210" y="187" width="8" height="8" rx="2" fill="#3178c6"/><text x="222" y="195" class="legend">TypeScript</text><rect x="20" y="199" width="8" height="8" rx="2" fill="#f1e05a"/><text x="32" y="207" class="legend">JavaScript</text><rect x="210" y="199" width="8" height="8" rx="2" fill="#89e051"/><text x="222" y="207" class="legend">Shell</text>
    </g>
  </a>
      <animateTransform attributeName="transform" type="translate"
        values="880;880;0;0;-880;-880"
        keyTimes="0;0.0000;0.0750;0.2583;0.3333;1"
        keySplines="0 0 1 1; 0.25 0.1 0.25 1; 0.25 0.1 0.25 1; 0.42 0 0.58 1; 0 0 1 1"
        calcMode="spline"
        dur="18s"
        begin="0s"
        repeatCount="indefinite"/>
    </g>
    <g class="slide" transform="translate(880,0)" clip-path="url(#frame)">
      
  <a xlink:href="https://github.com/statikfintechllc/statik-server" target="_blank">
    <g transform="translate(0,20)">
      <rect x="0" y="0" rx="14" ry="14" width="420" height="230" fill="#0b1220" stroke="#1f2937"/>
      <text x="20" y="30" class="name">statik-server</text>
      <text x="20" y="54" style="font:400 13px system-ui" class="desc">Forked from code-server — now a sovereign,</text><text x="20" y="69" style="font:400 13px system-ui" class="desc">mesh-routed VS Code deployment with Copilot Chat,</text><text x="20" y="84" style="font:400 13px system-ui" class="desc">persistent VPN, keyless signing, and custom domain</text><text x="20" y="99" style="font:400 13px system-ui" class="desc">rendering via statik-server.</text>
      <!-- Stars and forks -->
      <g class="badges" transform="translate(0,135)">
        <g transform="translate(240,0)">
          <rect x="0" y="-12" rx="10" ry="10" width="78" height="20" fill="#111827" stroke="#1f2937"/>
          <g transform="translate(6, -10)">
            <svg viewBox="0 0 24 24" width="16" height="16">
<path fill="none" stroke="#8abecf" stroke-width="2"
  d="M12 2.5l2.68 5.43 5.82.85-4.2 4.09.99 5.8L12 16.6 6.71 18.67l.99-5.8-4.2-4.09 5.82-.85L12 2.5z"/>
</svg>
          </g>
          <text x="26" y="2" class="pill">1</text>
        </g>
        <g transform="translate(330,0)">
          <rect x="0" y="-12" rx="10" ry="10" width="78" height="20" fill="#111827" stroke="#1f2937"/>
          <g transform="translate(6, -10)">
            <svg viewBox="0 0 24 24" width="16" height="16">
<path fill="#8abecf" d="M5 5.372v.878c0 .414.336.75.75.75h4.5a.75.75 0 0 0 .75-.75v-.878a2.25 2.25 0 1 1 1.5 0v.878a2.25 2.25 0 0 1-2.25 2.25h-1.5v2.128a2.25 2.25 0 1 1-1.5 0V8.5h-1.5A2.25 2.25 0 0 1 3.5 6.25v-.878a2.25 2.25 0 1 1 1.5 0ZM5 3.25a.75.75 0 1 0-1.5 0 .75.75 0 0 0 1.5 0Zm6.75.75a.75.75 0 1 0 0-1.5.75.75 0 0 0 0 1.5Zm-3 8.75a.75.75 0 1 0-1.5 0 .75.75 0 0 0 1.5 0Z"/>
</svg>
          </g>
          <text x="26" y="2" class="pill">0</text>
        </g>
      </g>
      <rect x="20" y="165" width="261" height="12" fill="#3178c6" /><rect x="281" y="165" width="42" height="12" fill="#3572A5" /><rect x="323" y="165" width="13" height="12" fill="#663399" /><rect x="336" y="165" width="13" height="12" fill="#f1e05a" /><rect x="349" y="165" width="13" height="12" fill="#e34c26" /><rect x="362" y="165" width="13" height="12" fill="#dea584" /><rect x="375" y="165" width="13" height="12" fill="#89e051" /><rect x="388" y="165" width="12" height="12" fill="#264b99" />
      <rect x="20" y="187" width="8" height="8" rx="2" fill="#3178c6"/><text x="32" y="195" class="legend">TypeScript</text><rect x="210" y="187" width="8" height="8" rx="2" fill="#3572A5"/><text x="222" y="195" class="legend">Python</text><rect x="20" y="199" width="8" height="8" rx="2" fill="#663399"/><text x="32" y="207" class="legend">CSS</text><rect x="210" y="199" width="8" height="8" rx="2" fill="#f1e05a"/><text x="222" y="207" class="legend">JavaScript</text>
    </g>
  </a>
  <a xlink:href="https://github.com/statikfintechllc/AscendDocs-of-GovSeverance" target="_blank">
    <g transform="translate(460,20)">
      <rect x="0" y="0" rx="14" ry="14" width="420" height="230" fill="#0b1220" stroke="#1f2937"/>
      <text x="20" y="30" class="name">AscendDocs-of-GovSeverance</text>
      <text x="20" y="54" style="font:400 13px system-ui" class="desc">Not a system. Not a manifesto. A memetic weapon.</text><text x="20" y="69" style="font:400 13px system-ui" class="desc">Not a call to chaos. This is the call to</text><text x="20" y="84" style="font:400 13px system-ui" class="desc">recursion. Alignment. Freedom.</text>
      <!-- Stars and forks -->
      <g class="badges" transform="translate(0,135)">
        <g transform="translate(240,0)">
          <rect x="0" y="-12" rx="10" ry="10" width="78" height="20" fill="#111827" stroke="#1f2937"/>
          <g transform="translate(6, -10)">
            <svg viewBox="0 0 24 24" width="16" height="16">
<path fill="none" stroke="#8abecf" stroke-width="2"
  d="M12 2.5l2.68 5.43 5.82.85-4.2 4.09.99 5.8L12 16.6 6.71 18.67l.99-5.8-4.2-4.09 5.82-.85L12 2.5z"/>
</svg>
          </g>
          <text x="26" y="2" class="pill">4</text>
        </g>
        <g transform="translate(330,0)">
          <rect x="0" y="-12" rx="10" ry="10" width="78" height="20" fill="#111827" stroke="#1f2937"/>
          <g transform="translate(6, -10)">
            <svg viewBox="0 0 24 24" width="16" height="16">
<path fill="#8abecf" d="M5 5.372v.878c0 .414.336.75.75.75h4.5a.75.75 0 0 0 .75-.75v-.878a2.25 2.25 0 1 1 1.5 0v.878a2.25 2.25 0 0 1-2.25 2.25h-1.5v2.128a2.25 2.25 0 1 1-1.5 0V8.5h-1.5A2.25 2.25 0 0 1 3.5 6.25v-.878a2.25 2.25 0 1 1 1.5 0ZM5 3.25a.75.75 0 1 0-1.5 0 .75.75 0 0 0 1.5 0Zm6.75.75a.75.75 0 1 0 0-1.5.75.75 0 0 0 0 1.5Zm-3 8.75a.75.75 0 1 0-1.5 0 .75.75 0 0 0 1.5 0Z"/>
</svg>
          </g>
          <text x="26" y="2" class="pill">0</text>
        </g>
      </g>
      <rect x="20" y="165" width="380" height="12" fill="#6b7280" />
      <rect x="20" y="187" width="8" height="8" rx="2" fill="#6b7280"/><text x="32" y="195" class="legend">Other</text>
    </g>
  </a>
      <animateTransform attributeName="transform" type="translate"
        values="880;880;0;0;-880;-880"
        keyTimes="0;0.3333;0.4083;0.5917;0.6667;1"
        keySplines="0 0 1 1; 0.25 0.1 0.25 1; 0.25 0.1 0.25 1; 0.42 0 0.58 1; 0 0 1 1"
        calcMode="spline"
        dur="18s"
        begin="0s"
        repeatCount="indefinite"/>
    </g>
    <g class="slide" transform="translate(880,0)" clip-path="url(#frame)">
      
  <a xlink:href="https://github.com/statikfintechllc/dragon-boot" target="_blank">
    <g transform="translate(0,20)">
      <rect x="0" y="0" rx="14" ry="14" width="420" height="230" fill="#0b1220" stroke="#1f2937"/>
      <text x="20" y="30" class="name">dragon-boot</text>
      <text x="20" y="54" style="font:400 13px system-ui" class="desc">🔥 A sci-fi dragon-themed Plymouth bootloader</text><text x="20" y="69" style="font:400 13px system-ui" class="desc">animation for Linux. HD 1920x1080 splash with full</text><text x="20" y="84" style="font:400 13px system-ui" class="desc">GRUB/initramfs integration.</text>
      <!-- Stars and forks -->
      <g class="badges" transform="translate(0,135)">
        <g transform="translate(240,0)">
          <rect x="0" y="-12" rx="10" ry="10" width="78" height="20" fill="#111827" stroke="#1f2937"/>
          <g transform="translate(6, -10)">
            <svg viewBox="0 0 24 24" width="16" height="16">
<path fill="none" stroke="#8abecf" stroke-width="2"
  d="M12 2.5l2.68 5.43 5.82.85-4.2 4.09.99 5.8L12 16.6 6.71 18.67l.99-5.8-4.2-4.09 5.82-.85L12 2.5z"/>
</svg>
          </g>
          <text x="26" y="2" class="pill">1</text>
        </g>
        <g transform="translate(330,0)">
          <rect x="0" y="-12" rx="10" ry="10" width="78" height="20" fill="#111827" stroke="#1f2937"/>
          <g transform="translate(6, -10)">
            <svg viewBox="0 0 24 24" width="16" height="16">
<path fill="#8abecf" d="M5 5.372v.878c0 .414.336.75.75.75h4.5a.75.75 0 0 0 .75-.75v-.878a2.25 2.25 0 1 1 1.5 0v.878a2.25 2.25 0 0 1-2.25 2.25h-1.5v2.128a2.25 2.25 0 1 1-1.5 0V8.5h-1.5A2.25 2.25 0 0 1 3.5 6.25v-.878a2.25 2.25 0 1 1 1.5 0ZM5 3.25a.75.75 0 1 0-1.5 0 .75.75 0 0 0 1.5 0Zm6.75.75a.75.75 0 1 0 0-1.5.75.75 0 0 0 0 1.5Zm-3 8.75a.75.75 0 1 0-1.5 0 .75.75 0 0 0 1.5 0Z"/>
</svg>
          </g>
          <text x="26" y="2" class="pill">0</text>
        </g>
      </g>
      <rect x="20" y="165" width="380" height="12" fill="#89e051" />
      <rect x="20" y="187" width="8" height="8" rx="2" fill="#89e051"/><text x="32" y="195" class="legend">Shell</text>
    </g>
  </a>
  <a xlink:href="https://github.com/statikfintechllc/Gremlin-MCP-Scrap" target="_blank">
    <g transform="translate(460,20)">
      <rect x="0" y="0" rx="14" ry="14" width="420" height="230" fill="#0b1220" stroke="#1f2937"/>
      <text x="20" y="30" class="name">Gremlin-MCP-Scrap</text>
      <text x="20" y="54" style="font:400 13px system-ui" class="desc">A hybrid Python + JavaScript MCP runtime for</text><text x="20" y="69" style="font:400 13px system-ui" class="desc">scraping readable content from the web. Powered by</text><text x="20" y="84" style="font:400 13px system-ui" class="desc">Flask, BeautifulSoup, and the unshakable belief</text><text x="20" y="99" style="font:400 13px system-ui" class="desc">that you can automate everything. Built for VS</text><text x="20" y="114" style="font:400 13px system-ui" class="desc">Code’s Model Context Protocol. Gremlin-approved.</text>
      <!-- Stars and forks -->
      <g class="badges" transform="translate(0,135)">
        <g transform="translate(240,0)">
          <rect x="0" y="-12" rx="10" ry="10" width="78" height="20" fill="#111827" stroke="#1f2937"/>
          <g transform="translate(6, -10)">
            <svg viewBox="0 0 24 24" width="16" height="16">
<path fill="none" stroke="#8abecf" stroke-width="2"
  d="M12 2.5l2.68 5.43 5.82.85-4.2 4.09.99 5.8L12 16.6 6.71 18.67l.99-5.8-4.2-4.09 5.82-.85L12 2.5z"/>
</svg>
          </g>
          <text x="26" y="2" class="pill">1</text>
        </g>
        <g transform="translate(330,0)">
          <rect x="0" y="-12" rx="10" ry="10" width="78" height="20" fill="#111827" stroke="#1f2937"/>
          <g transform="translate(6, -10)">
            <svg viewBox="0 0 24 24" width="16" height="16">
<path fill="#8abecf" d="M5 5.372v.878c0 .414.336.75.75.75h4.5a.75.75 0 0 0 .75-.75v-.878a2.25 2.25 0 1 1 1.5 0v.878a2.25 2.25 0 0 1-2.25 2.25h-1.5v2.128a2.25 2.25 0 1 1-1.5 0V8.5h-1.5A2.25 2.25 0 0 1 3.5 6.25v-.878a2.25 2.25 0 1 1 1.5 0ZM5 3.25a.75.75 0 1 0-1.5 0 .75.75 0 0 0 1.5 0Zm6.75.75a.75.75 0 1 0 0-1.5.75.75 0 0 0 0 1.5Zm-3 8.75a.75.75 0 1 0-1.5 0 .75.75 0 0 0 1.5 0Z"/>
</svg>
          </g>
          <text x="26" y="2" class="pill">0</text>
        </g>
      </g>
      <rect x="20" y="165" width="292" height="12" fill="#3572A5" /><rect x="312" y="165" width="88" height="12" fill="#f1e05a" />
      <rect x="20" y="187" width="8" height="8" rx="2" fill="#3572A5"/><text x="32" y="195" class="legend">Python</text><rect x="210" y="187" width="8" height="8" rx="2" fill="#f1e05a"/><text x="222" y="195" class="legend">JavaScript</text>
    </g>
  </a>
      <animateTransform attributeName="transform" type="translate"
        values="880;880;0;0;-880;-880"
        keyTimes="0;0.6667;0.7417;0.9250;1.0000;1"
        keySplines="0 0 1 1; 0.25 0.1 0.25 1; 0.25 0.1 0.25 1; 0.42 0 0.58 1; 0 0 1 1"
        calcMode="spline"
        dur="18s"
        begin="0s"
        repeatCount="indefinite"/>
    </g>
</svg>