<?xml version="1.0" encoding="UTF-8"?>
<svg width="980" height="430" viewBox="0 0 980 430" xmlns="http://www.w3.org/2000/svg">

  <!-- =================== THEME =================== -->
  <defs>
    <!-- Background -->
    <linearGradient id="gPanel" x1="0" y1="0" x2="0" y2="1">
      <stop offset="0%"  stop-color="#06080c"/>
      <stop offset="100%" stop-color="#0a0f18"/>
    </linearGradient>

    <!-- Gold/Crimson accent -->
    <linearGradient id="gNeon" x1="0" y1="0" x2="1" y2="0">
      <stop offset="0%"  stop-color="#ffd15a"/>
      <stop offset="45%" stop-color="#ff3168"/>
      <stop offset="100%" stop-color="#ffd15a"/>
    </linearGradient>

    <!-- Dark card -->
    <linearGradient id="gCard" x1="0" y1="0" x2="0" y2="1">
      <stop offset="0%"  stop-color="#0f121a"/>
      <stop offset="100%" stop-color="#131a27"/>
    </linearGradient>

    <!-- Warning card -->
    <linearGradient id="gWarn" x1="0" y1="0" x2="1" y2="0">
      <stop offset="0%"  stop-color="#3f2e00"/>
      <stop offset="100%" stop-color="#2b1d00"/>
    </linearGradient>

    <!-- Glows -->
    <filter id="fGlowSoft" x="-60%" y="-60%" width="220%" height="220%">
      <feGaussianBlur stdDeviation="3" result="b1"/>
      <feMerge><feMergeNode in="b1"/><feMergeNode in="SourceGraphic"/></feMerge>
    </filter>

    <filter id="fGlowStrong" x="-90%" y="-90%" width="280%" height="280%">
      <feGaussianBlur stdDeviation="10" result="b1"/>
      <feGaussianBlur stdDeviation="3" in="SourceGraphic" result="b2"/>
      <feMerge><feMergeNode in="b1"/><feMergeNode in="b2"/><feMergeNode in="SourceGraphic"/></feMerge>
    </filter>

    <!-- Sparks -->
    <radialGradient id="gSpark" r="1">
      <stop offset="0%" stop-color="#ffd15a" stop-opacity="1"/>
      <stop offset="100%" stop-color="#ff3168" stop-opacity="0"/>
    </radialGradient>

    <!-- Flame gradient (hot core to smoke) -->
    <linearGradient id="gFlame" x1="0" y1="1" x2="0" y2="0">
      <stop offset="0%"   stop-color="#200000"/>
      <stop offset="25%"  stop-color="#7a0c00"/>
      <stop offset="55%"  stop-color="#ff5a00"/>
      <stop offset="78%"  stop-color="#ffb300"/>
      <stop offset="100%" stop-color="#fff2a6"/>
    </linearGradient>

    <!-- Flame glow -->
    <filter id="fFireGlow" x="-120%" y="-180%" width="340%" height="400%">
      <feGaussianBlur stdDeviation="6" result="b1"/>
      <feGaussianBlur stdDeviation="14" in="SourceGraphic" result="b2"/>
      <feMerge><feMergeNode in="b1"/><feMergeNode in="b2"/><feMergeNode in="SourceGraphic"/></feMerge>
    </filter>

    <!-- Heat wobble / shimmer (large region, no cropping) -->
    <filter id="fWobble" filterUnits="userSpaceOnUse" x="-100" y="248" width="1180" height="200">
      <feTurbulence type="fractalNoise" baseFrequency="0.9" numOctaves="3" seed="7" result="n">
        <animate attributeName="baseFrequency" values="0.7;1.1;0.8;0.9;0.7" dur="2.2s" repeatCount="indefinite"/>
        <animate attributeName="seed" values="7;9;11;13;7" dur="5s" repeatCount="indefinite"/>
      </feTurbulence>
      <feDisplacementMap in="SourceGraphic" in2="n" scale="8">
        <animate attributeName="scale" values="5;12;7;10;5" dur="1.6s" repeatCount="indefinite"/>
      </feDisplacementMap>
    </filter>

    <!-- Smoke gradients -->
    <linearGradient id="gSmokeDark" x1="0" y1="1" x2="0" y2="0">
      <stop offset="0%"  stop-color="#000000" stop-opacity="0"/>
      <stop offset="100%" stop-color="#4a515c" stop-opacity="0.55"/>
    </linearGradient>
    <linearGradient id="gSmokeLight" x1="0" y1="1" x2="0" y2="0">
      <stop offset="0%"  stop-color="#000000" stop-opacity="0"/>
      <stop offset="100%" stop-color="#a6b0c0" stop-opacity="0.28"/>
    </linearGradient>

    <!-- Serration for flame tops -->
    <filter id="fSerrate" x="-50%" y="-300%" width="200%" height="700%">
      <feTurbulence type="fractalNoise" baseFrequency="0.035 0.40" numOctaves="4" seed="33" result="t">
        <animate attributeName="baseFrequency" values="0.03 0.36;0.04 0.44;0.03 0.36" dur="1.6s" repeatCount="indefinite"/>
        <animate attributeName="seed" values="33;34;35;33" dur="2s" repeatCount="indefinite"/>
      </feTurbulence>
      <feColorMatrix in="t" type="luminanceToAlpha" result="a"/>
      <feComposite in="SourceGraphic" in2="a" operator="out"/>
    </filter>

    <mask id="mSerratedTop">
      <rect x="0" y="-140" width="980" height="160" fill="#fff"/>
      <g filter="url(#fSerrate)">
        <rect x="0" y="-160" width="980" height="80" fill="#000"/>
      </g>
    </mask>
  </defs>

  <!-- =================== BACKDROP =================== -->
  <rect x="0" y="0" width="980" height="430" fill="url(#gPanel)"/>

  <!-- Corner filaments -->
  <g opacity="0.5" filter="url(#fGlowSoft)">
    <path d="M16,26 q70,38 146,0 q60,-30 152,18" fill="none" stroke="url(#gNeon)" stroke-width="1.4">
      <animate attributeName="stroke-dasharray" values="0 520;120 520;0 520" dur="6s" repeatCount="indefinite"/>
    </path>
    <path d="M964,26 q-70,38 -146,0 q-60,-30 -152,18" fill="none" stroke="url(#gNeon)" stroke-width="1.4">
      <animate attributeName="stroke-dasharray" values="0 520;120 520;0 520" dur="6s" begin="1s" repeatCount="indefinite"/>
    </path>
    <path d="M16,404 q70,-38 146,0 q60,30 152,-18" fill="none" stroke="url(#gNeon)" stroke-width="1.4">
      <animate attributeName="stroke-dasharray" values="0 520;120 520;0 520" dur="6s" begin="2s" repeatCount="indefinite"/>
    </path>
    <path d="M964,404 q-70,-38 -146,0 q-60,30 -152,-18" fill="none" stroke="url(#gNeon)" stroke-width="1.4">
      <animate attributeName="stroke-dasharray" values="0 520;120 520;0 520" dur="6s" begin="3s" repeatCount="indefinite"/>
    </path>
  </g>

  <!-- Title / Tip / Warning -->
  <g transform="translate(490,66)" text-anchor="middle">
    <text x="0" y="0" font-family="system-ui, -apple-system, Segoe UI, Roboto" font-weight="900" font-size="30"
          fill="#ffd15a" filter="url(#fGlowStrong)">The Ascend Institute</text>
    <text x="0" y="20" font-family="system-ui" font-size="12" fill="#ffd15a" opacity="0.9">🔱 Presented by: StatikFinTech, LLC 🔱</text>
    <line x1="-230" x2="230" y1="28" y2="28" stroke="url(#gNeon)" stroke-width="2" opacity="0.9" filter="url(#fGlowSoft)">
      <animate attributeName="stroke-dasharray" values="0 460;460 0;0 460" dur="4.2s" repeatCount="indefinite"/>
    </line>
    <text x="0" y="50" font-family="system-ui" font-size="12" fill="#a0a7b6" opacity="0.9">
      Operating as an Unincorporated Sovereign R&amp;D Trust (legal formation pending)
    </text>
    <text x="0" y="70" font-family="system-ui" font-weight="700" font-size="14" fill="#ff3168" filter="url(#fGlowSoft)">
      Mission: Autonomous Sovereignty &amp; Human Financial Liberation
    </text>
  </g>

  <g transform="translate(490,150)" text-anchor="middle" font-family="system-ui">
    <g filter="url(#fGlowSoft)">
      <rect x="-420" y="0" width="840" height="98" rx="12" fill="url(#gCard)" stroke="#232939"/>
      <text x="0" y="22" fill="#ffd15a" font-weight="800">Tip</text>
      <text x="0" y="42" fill="#e5e7eb" font-size="12" opacity="0.95">
        This Institute is not traditional. It is a mutation, a divergence, a system awakening.
      </text>
      <text x="0" y="58" fill="#e5e7eb" font-size="12" opacity="0.95">
        It will not stay small. It will not stay still. This repo may recursively alter how you think about code,
      </text>
      <text x="0" y="74" fill="#e5e7eb" font-size="12" opacity="0.95">
        autonomy, and yourself. To end Wall Street&apos;s reign on capital, to bring power back to the people.
      </text>
      <text x="0" y="90" fill="#ffd15a" font-size="12" font-weight="700" opacity="0.95">
        To Autonomous Sovereignty and Human Financial Liberation
      </text>
    </g>
  </g>

  <g transform="translate(490,268)" text-anchor="middle" font-family="system-ui">
    <g filter="url(#fGlowSoft)">
      <rect x="-420" y="0" width="840" height="84" rx="12" fill="url(#gWarn)" stroke="#5b3d00"/>
      <g transform="translate(-395,18)">
        <circle r="6" fill="#ffd15a" filter="url(#fGlowSoft)"/>
        <polygon points="-6,0 6,0 0,10" fill="#ffd15a">
          <animateTransform attributeName="transform" type="translate" values="0,0;0,2;0,0" dur="1.4s" repeatCount="indefinite"/>
        </polygon>
      </g>
      <text x="0" y="22" fill="#ffd15a" font-weight="800">Warning</text>
      <text x="0" y="44" fill="#e5e7eb" font-size="12" opacity="0.95">
        “Your qualifications are impressive… ” — Coder Hiring Team (2025 Rejection Letter)
      </text>
      <text x="0" y="64" fill="#e5e7eb" font-size="12" opacity="0.95">
        This is not rejection. It is proof they do not know how to build what comes next.
        Still building what they cannot classify. — StatikFinTech, LLC
      </text>
    </g>
  </g>

  <!-- =================== FIRE BASELINE (exactly 980px wide) =================== -->
  <g transform="translate(0,408)">
    <!-- ember rail: full width, constant -->
    <rect x="0" y="-2" width="980" height="2" fill="url(#gNeon)" opacity="0.85" filter="url(#fGlowSoft)"/>

    <!-- layered flames -->
    <g filter="url(#fWobble)">
      <!-- back band -->
      <g opacity="0.6" filter="url(#fFireGlow)">
        <path d="M0,0
          c20,-12 40,-28 60,0 c20,22 40,-16 60,0 c20,14 40,-26 60,0 c20,26 40,-14 60,0 c20,14 40,-24 60,0 c20,22 40,-16 60,0
          c20,16 40,-22 60,0 c20,24 40,-14 60,0 c20,14 40,-26 60,0 c20,20 40,-16 60,0 c20,18 40,-14 60,0 c20,16 40,-20 60,0
          c20,-12 40,-28 60,0 c20,22 40,-16 60,0 c20,14 40,-26 60,0 c20,26 40,-14 60,0
          c20,14 40,-18 60,0 L980,0 L0,0 Z" fill="url(#gFlame)"/>
        <animate attributeName="d" dur="1.8s" repeatCount="indefinite"
          values="M0,0 c20,-14 40,-30 60,0 c20,24 40,-18 60,0 c20,12 40,-28 60,0 c20,28 40,-12 60,0 c20,12 40,-26 60,0 c20,24 40,-14 60,0 c20,18 40,-24 60,0 c20,26 40,-12 60,0 c20,12 40,-28 60,0 c20,22 40,-16 60,0 c20,20 40,-12 60,0 c20,14 40,-22 60,0 c20,-14 40,-30 60,0 c20,24 40,-18 60,0 c20,12 40,-28 60,0 c20,28 40,-12 60,0 c20,12 40,-18 60,0 L980,0 L0,0 Z;
                  M0,0 c20,-10 40,-26 60,0 c20,20 40,-14 60,0 c20,16 40,-24 60,0 c20,24 40,-16 60,0 c20,16 40,-22 60,0 c20,20 40,-12 60,0 c20,14 40,-20 60,0 c20,22 40,-14 60,0 c20,14 40,-26 60,0 c20,18 40,-14 60,0 c20,16 40,-12 60,0 c20,12 40,-20 60,0 c20,-10 40,-26 60,0 c20,20 40,-14 60,0 c20,16 40,-24 60,0 c20,24 40,-16 60,0 c20,10 40,-16 60,0 L980,0 L0,0 Z"/>
      </g>

      <!-- mid band -->
      <g opacity="0.85" filter="url(#fFireGlow)">
        <path d="M0,0
          c18,-10 36,-22 54,0 c18,18 36,-12 54,0 c18,12 36,-20 54,0 c18,20 36,-12 54,0 c18,12 36,-20 54,0 c18,18 36,-12 54,0
          c18,14 36,-18 54,0 c18,18 36,-12 54,0 c18,12 36,-20 54,0 c18,14 36,-16 54,0 c18,16 36,-12 54,0 c18,14 36,-18 54,0
          c18,-10 36,-22 54,0 c18,18 36,-12 54,0 c18,12 36,-20 54,0 c18,20 36,-12 54,0 c18,12 36,-20 54,0 c18,18 36,-12 54,0
          c18,12 36,-16 54,0 L980,0 L0,0 Z" fill="url(#gFlame)"/>
        <animate attributeName="d" dur="1.4s" repeatCount="indefinite"
          values="M0,0 c18,-12 36,-24 54,0 c18,20 36,-14 54,0 c18,10 36,-22 54,0 c18,22 36,-10 54,0 c18,10 36,-22 54,0 c18,20 36,-10 54,0 c18,12 36,-20 54,0 c18,20 36,-10 54,0 c18,10 36,-22 54,0 c18,12 36,-18 54,0 c18,14 36,-14 54,0 c18,12 36,-20 54,0 c18,-12 36,-24 54,0 c18,20 36,-14 54,0 c18,10 36,-22 54,0 c18,22 36,-10 54,0 c18,10 36,-22 54,0 c18,20 36,-10 54,0 c18,10 36,-16 54,0 L980,0 L0,0 Z;
                  M0,0 c18,-8 36,-20 54,0 c18,16 36,-10 54,0 c18,14 36,-18 54,0 c18,18 36,-14 54,0 c18,14 36,-18 54,0 c18,16 36,-12 54,0 c18,10 36,-18 54,0 c18,16 36,-12 54,0 c18,14 36,-18 54,0 c18,10 36,-16 54,0 c18,12 36,-14 54,0 c18,10 36,-18 54,0 c18,-8 36,-20 54,0 c18,16 36,-10 54,0 c18,14 36,-18 54,0 c18,18 36,-14 54,0 c18,14 36,-18 54,0 c18,16 36,-12 54,0 c18,8 36,-14 54,0 L980,0 L0,0 Z"/>
      </g>

      <!-- front serrated tongues -->
      <g opacity="1" mask="url(#mSerratedTop)">
        <path d="M0,0
          c14,-10 28,-20 42,0 c14,16 28,-10 42,0 c14,10 28,-18 42,0 c14,18 28,-10 42,0 c14,10 28,-16 42,0 c14,16 28,-10 42,0
          c14,12 28,-14 42,0 c14,16 28,-10 42,0 c14,10 28,-16 42,0 c14,12 28,-14 42,0 c14,14 28,-10 42,0 c14,12 28,-14 42,0
          c14,-10 28,-20 42,0 c14,16 28,-10 42,0 c14,10 28,-18 42,0 c14,18 28,-10 42,0 c14,10 28,-16 42,0 c14,16 28,-10 42,0 c14,12 28,-14 42,0 c14,16 28,-10 42,0 c14,10 28,-16 42,0 c14,12 28,-14 42,0 c14,14 28,-10 42,0
          c14,10 28,-12 42,0 L980,0 L0,0 Z" fill="url(#gFlame)" filter="url(#fFireGlow)"/>
        <animate attributeName="d" dur="1.1s" repeatCount="indefinite"
          values="M0,0 c14,-12 28,-22 42,0 c14,18 28,-12 42,0 c14,8 28,-20 42,0 c14,20 28,-8 42,0 c14,8 28,-18 42,0 c14,18 28,-8 42,0 c14,10 28,-16 42,0 c14,18 28,-8 42,0 c14,8 28,-18 42,0 c14,10 28,-16 42,0 c14,12 28,-12 42,0 c14,10 28,-16 42,0 c14,-12 28,-22 42,0 c14,18 28,-12 42,0 c14,8 28,-20 42,0 c14,20 28,-8 42,0 c14,8 28,-18 42,0 c14,18 28,-8 42,0 c14,10 28,-16 42,0 c14,18 28,-8 42,0 c14,8 28,-18 42,0 c14,10 28,-16 42,0 c14,12 28,-12 42,0 L980,0 L0,0 Z;
                  M0,0 c14,-8 28,-18 42,0 c14,14 28,-8 42,0 c14,12 28,-16 42,0 c14,16 28,-12 42,0 c14,12 28,-14 42,0 c14,14 28,-10 42,0 c14,8 28,-14 42,0 c14,14 28,-10 42,0 c14,12 28,-14 42,0 c14,8 28,-14 42,0 c14,10 28,-12 42,0 c14,8 28,-14 42,0 c14,-8 28,-18 42,0 c14,14 28,-8 42,0 c14,12 28,-16 42,0 c14,16 28,-12 42,0 c14,12 28,-14 42,0 c14,14 28,-10 42,0 c14,8 28,-14 42,0 c14,14 28,-10 42,0 c14,12 28,-14 42,0 c14,8 28,-14 42,0 c14,10 28,-12 42,0 L980,0 L0,0 Z"/>
      </g>
    </g>

    <!-- embers -->
    <g>
      <circle cx="80" cy="-6" r="1.8" fill="#ff7a00" opacity="0" filter="url(#fFireGlow)">
        <animate attributeName="opacity" values="0;1;0" dur="1.5s" repeatCount="indefinite"/>
        <animate attributeName="cy" values="-6;-40;-80" dur="1.5s" repeatCount="indefinite"/>
        <animate attributeName="cx" values="80;76;84;80" dur="1.5s" repeatCount="indefinite"/>
      </circle>
      <circle cx="240" cy="-6" r="1.6" fill="#ff9a00" opacity="0" filter="url(#fFireGlow)">
        <animate attributeName="opacity" values="0;1;0" dur="1.6s" begin=".2s" repeatCount="indefinite"/>
        <animate attributeName="cy" values="-6;-38;-76" dur="1.6s" begin=".2s" repeatCount="indefinite"/>
        <animate attributeName="cx" values="240;236;244;240" dur="1.6s" begin=".2s" repeatCount="indefinite"/>
      </circle>
      <circle cx="400" cy="-6" r="2.0" fill="#ffb300" opacity="0" filter="url(#fFireGlow)">
        <animate attributeName="opacity" values="0;1;0" dur="1.7s" begin=".4s" repeatCount="indefinite"/>
        <animate attributeName="cy" values="-6;-44;-84" dur="1.7s" begin=".4s" repeatCount="indefinite"/>
        <animate attributeName="cx" values="400;396;404;400" dur="1.7s" begin=".4s" repeatCount="indefinite"/>
      </circle>
      <circle cx="560" cy="-6" r="1.5" fill="#ffd15a" opacity="0" filter="url(#fFireGlow)">
        <animate attributeName="opacity" values="0;1;0" dur="1.4s" begin=".6s" repeatCount="indefinite"/>
        <animate attributeName="cy" values="-6;-36;-70" dur="1.4s" begin=".6s" repeatCount="indefinite"/>
        <animate attributeName="cx" values="560;557;563;560" dur="1.4s" begin=".6s" repeatCount="indefinite"/>
      </circle>
      <circle cx="720" cy="-6" r="1.7" fill="#ffa500" opacity="0" filter="url(#fFireGlow)">
        <animate attributeName="opacity" values="0;1;0" dur="1.55s" begin=".8s" repeatCount="indefinite"/>
        <animate attributeName="cy" values="-6;-38;-74" dur="1.55s" begin=".8s" repeatCount="indefinite"/>
        <animate attributeName="cx" values="720;716;724;720" dur="1.55s" begin=".8s" repeatCount="indefinite"/>
      </circle>
      <circle cx="880" cy="-6" r="1.9" fill="#ff7a00" opacity="0" filter="url(#fFireGlow)">
        <animate attributeName="opacity" values="0;1;0" dur="1.65s" begin="1s" repeatCount="indefinite"/>
        <animate attributeName="cy" values="-6;-42;-82" dur="1.65s" begin="1s" repeatCount="indefinite"/>
        <animate attributeName="cx" values="880;876;884;880" dur="1.65s" begin="1s" repeatCount="indefinite"/>
      </circle>
    </g>

    <!-- smoke -->
    <g opacity="0.42" filter="url(#fWobble)">
      <path d="M0,-88 C190,-120 380,-78 570,-106 C760,-134 950,-86 980,-110 L980,-160 L0,-160 Z" fill="url(#gSmokeDark)">
        <animate attributeName="d" dur="7s" repeatCount="indefinite"
          values="M0,-88 C190,-120 380,-78 570,-106 C760,-134 950,-86 980,-110 L980,-160 L0,-160 Z;
                  M0,-94 C190,-130 380,-84 570,-116 C760,-144 950,-96 980,-120 L980,-160 L0,-160 Z;
                  M0,-88 C190,-120 380,-78 570,-106 C760,-134 950,-86 980,-110 L980,-160 L0,-160 Z"/>
      </path>
    </g>
    <g opacity="0.25" filter="url(#fWobble)">
      <path d="M0,-70 C180,-90 360,-52 540,-80 C720,-108 900,-60 980,-82 L980,-120 L0,-120 Z" fill="url(#gSmokeLight)">
        <animate attributeName="d" dur="6s" repeatCount="indefinite"
          values="M0,-70 C180,-90 360,-52 540,-80 C720,-108 900,-60 980,-82 L980,-120 L0,-120 Z;
                  M0,-78 C180,-100 360,-60 540,-90 C720,-118 900,-70 980,-94 L980,-120 L0,-120 Z;
                  M0,-70 C180,-90 360,-52 540,-80 C720,-108 900,-60 980,-82 L980,-120 L0,-120 Z"/>
      </path>
    </g>
  </g> <!-- end FIRE BASELINE -->

  <!-- =================== DRIFTING SPARKS =================== -->
  <g opacity="0.9">
    <circle cx="100" cy="400" r="2.5" fill="url(#gSpark)" filter="url(#fGlowSoft)">
      <animate attributeName="cy" values="400;50" dur="8s" repeatCount="indefinite"/>
      <animate attributeName="cx" values="100;200;150;100" dur="7s" repeatCount="indefinite"/>
      <animate attributeName="opacity" values="0;1;0.5;0.8;0" dur="6s" repeatCount="indefinite"/>
    </circle>
    <circle cx="200" cy="390" r="2.2" fill="url(#gSpark)" filter="url(#fGlowSoft)">
      <animate attributeName="cy" values="390;60" dur="9s" begin=".3s" repeatCount="indefinite"/>
      <animate attributeName="cx" values="200;300;250;200" dur="6.5s" repeatCount="indefinite"/>
      <animate attributeName="opacity" values="0;1;0.4;0.9;0" dur="5.5s" repeatCount="indefinite"/>
    </circle>
    <circle cx="350" cy="380" r="2.8" fill="url(#gSpark)" filter="url(#fGlowSoft)">
      <animate attributeName="cy" values="380;40" dur="7.5s" begin=".5s" repeatCount="indefinite"/>
      <animate attributeName="cx" values="350;450;400;350" dur="8s" repeatCount="indefinite"/>
      <animate attributeName="opacity" values="0;1;0.3;0.7;0" dur="6.2s" repeatCount="indefinite"/>
    </circle>
    <circle cx="500" cy="395" r="2.0" fill="url(#gSpark)" filter="url(#fGlowSoft)">
      <animate attributeName="cy" values="395;70" dur="8.5s" begin=".2s" repeatCount="indefinite"/>
      <animate attributeName="cx" values="500;600;550;500" dur="7.2s" repeatCount="indefinite"/>
      <animate attributeName="opacity" values="0;1;0.5;0.8;0" dur="5.8s" repeatCount="indefinite"/>
    </circle>
    <circle cx="650" cy="385" r="2.4" fill="url(#gSpark)" filter="url(#fGlowSoft)">
      <animate attributeName="cy" values="385;50" dur="7s" begin=".7s" repeatCount="indefinite"/>
      <animate attributeName="cx" values="650;750;700;650" dur="6.8s" repeatCount="indefinite"/>
      <animate attributeName="opacity" values="0;1;0.4;0.9;0" dur="6s" repeatCount="indefinite"/>
    </circle>
    <circle cx="800" cy="400" r="2.6" fill="url(#gSpark)" filter="url(#fGlowSoft)">
      <animate attributeName="cy" values="400;60" dur="8s" begin=".4s" repeatCount="indefinite"/>
      <animate attributeName="cx" values="800;900;850;800" dur="7.5s" repeatCount="indefinite"/>
      <animate attributeName="opacity" values="0;1;0.3;0.8;0" dur="5.7s" repeatCount="indefinite"/>
    </circle>
    <circle cx="900" cy="390" r="2.3" fill="url(#gSpark)" filter="url(#fGlowSoft)">
      <animate attributeName="cy" values="390;40" dur="9s" begin=".6s" repeatCount="indefinite"/>
      <animate attributeName="cx" values="900;800;850;900" dur="6.5s" repeatCount="indefinite"/>
      <animate attributeName="opacity" values="0;1;0.5;0.7;0" dur="6.3s" repeatCount="indefinite"/>
    </circle>
    <circle cx="300" cy="395" r="2.1" fill="url(#gSpark)" filter="url(#fGlowSoft)">
      <animate attributeName="cy" values="395;50" dur="7.8s" begin=".8s" repeatCount="indefinite"/>
      <animate attributeName="cx" values="300;200;250;300" dur="7s" repeatCount="indefinite"/>
      <animate attributeName="opacity" values="0;1;0.4;0.9;0" dur="5.9s" repeatCount="indefinite"/>
    </circle>
  </g>

</svg>
