<?xml version="1.0" encoding="UTF-8"?>
<!-- build:2025-08-13T02:08:06.789Z user:statikfintechllc points:30 yMax:80 -->
<svg xmlns="http://www.w3.org/2000/svg" width="1200" height="420" viewBox="0 0 1200 420" role="img" aria-label="Crimson Flow Graph">
  <defs>
    <linearGradient id="bgGrad" x1="0" y1="0" x2="0" y2="1">
      <stop offset="0%" stop-color="#0a0d12"/><stop offset="100%" stop-color="#070a0d"/>
    </linearGradient>
    <filter id="glow"><feGaussianBlur stdDeviation="3" result="b1"/><feMerge><feMergeNode in="b1"/><feMergeNode in="SourceGraphic"/></feMerge></filter>
    <linearGradient id="sheen" x1="0" y1="0" x2="1" y2="0">
      <stop offset="0%" stop-color="#9b0e2a" stop-opacity="0"/>
      <stop offset="50%" stop-color="#9b0e2a" stop-opacity=".14"/>
      <stop offset="100%" stop-color="#9b0e2a" stop-opacity="0"/>
      <animateTransform attributeName="gradientTransform" type="translate" from="-1 0" to="1 0" dur="9s" repeatCount="indefinite"/>
    </linearGradient>
  </defs>

  <!-- BG -->
  <rect width="1200" height="420" fill="url(#bgGrad)"/>

  <!-- Plot frame -->
  <rect x="70" y="60" width="1080" height="260" fill="none" stroke="#121821" stroke-width="1"/>

  <!-- Y grid + labels -->
  <g font-family="ui-sans-serif,system-ui,-apple-system,Segoe UI,Roboto,Ubuntu,Arial" font-size="12">
    
      <path d="M70,320.0 H1150" stroke="#121821" stroke-width="1" opacity="0.6"/>
      <text x="60" y="324.0" text-anchor="end" fill="#ea384c">0</text>
    
      <path d="M70,255.0 H1150" stroke="#121821" stroke-width="1" opacity="0.6"/>
      <text x="60" y="259.0" text-anchor="end" fill="#ea384c">20</text>
    
      <path d="M70,190.0 H1150" stroke="#121821" stroke-width="1" opacity="0.6"/>
      <text x="60" y="194.0" text-anchor="end" fill="#ea384c">40</text>
    
      <path d="M70,125.0 H1150" stroke="#121821" stroke-width="1" opacity="0.6"/>
      <text x="60" y="129.0" text-anchor="end" fill="#ea384c">60</text>
    
      <path d="M70,60.0 H1150" stroke="#121821" stroke-width="1" opacity="0.6"/>
      <text x="60" y="64.0" text-anchor="end" fill="#ea384c">80</text>
    
    <text x="30" y="44" fill="#ea384c" font-size="13">Contributions</text>
  </g>

  <!-- X ticks + labels -->
  <g font-family="ui-sans-serif,system-ui,-apple-system,Segoe UI,Roboto,Ubuntu,Arial" font-size="12">
    
      <path d="M70.0,320 V326" stroke="#121821" stroke-width="1"/>
      <text x="70.0" y="340" text-anchor="middle" fill="#ea384c">7/15</text>
    
      <path d="M256.2,320 V326" stroke="#121821" stroke-width="1"/>
      <text x="256.2" y="340" text-anchor="middle" fill="#ea384c">7/20</text>
    
      <path d="M442.4,320 V326" stroke="#121821" stroke-width="1"/>
      <text x="442.4" y="340" text-anchor="middle" fill="#ea384c">7/25</text>
    
      <path d="M628.6,320 V326" stroke="#121821" stroke-width="1"/>
      <text x="628.6" y="340" text-anchor="middle" fill="#ea384c">7/30</text>
    
      <path d="M814.8,320 V326" stroke="#121821" stroke-width="1"/>
      <text x="814.8" y="340" text-anchor="middle" fill="#ea384c">8/4</text>
    
      <path d="M1001.0,320 V326" stroke="#121821" stroke-width="1"/>
      <text x="1001.0" y="340" text-anchor="middle" fill="#ea384c">8/9</text>
    
      <path d="M1150.0,320 V326" stroke="#121821" stroke-width="1"/>
      <text x="1150.0" y="340" text-anchor="middle" fill="#ea384c">8/13</text>
    
    <text x="610" y="358" text-anchor="middle" fill="#ea384c" font-size="13">Last 30 days</text>
  </g>

  <!-- Fancy sheen over plot area -->
  <rect x="70" y="60" width="1080" height="260" fill="url(#sheen)"/>

  <!-- Title -->
  <text x="600" y="40" text-anchor="middle"
        font-family="ui-sans-serif,system-ui,-apple-system,Segoe UI,Roboto,Ubuntu,Arial"
        font-size="22" fill="#ea384c" opacity=".95">Statik DK Smoke’s Crimson Flow</text>

  <!-- Area under curve -->
  <path d="M70.0,320.0 C77.4,314.1 92.3,293.4 107.2,290.8 C122.1,288.1 129.6,303.1 144.5,307.0 C159.4,310.9 166.8,315.4 181.7,310.3 C196.6,305.1 204.1,295.9 219.0,281.0 C233.9,266.1 241.3,231.6 256.2,235.5 C271.1,239.4 278.6,295.9 293.4,300.5 C308.3,305.1 315.8,265.4 330.7,258.3 C345.6,251.1 353.0,253.1 367.9,264.8 C382.8,276.4 390.3,311.6 405.2,316.8 C420.1,321.9 427.5,311.6 442.4,290.8 C457.3,269.9 464.8,214.7 479.7,212.8 C494.6,210.8 502.0,264.1 516.9,281.0 C531.8,297.9 539.2,299.2 554.1,297.3 C569.0,295.3 576.5,270.6 591.4,271.3 C606.3,271.9 613.7,294.6 628.6,300.5 C643.5,306.4 651.0,301.8 665.9,300.5 C680.8,299.2 688.2,290.1 703.1,294.0 C718.0,297.9 725.4,326.5 740.3,320.0 C755.2,313.5 762.7,278.4 777.6,261.5 C792.5,244.6 799.9,224.4 814.8,235.5 C829.7,246.6 837.2,301.8 852.1,316.8 C867.0,331.7 874.4,325.9 889.3,310.3 C904.2,294.6 911.7,236.8 926.6,238.8 C941.4,240.7 948.9,305.1 963.8,320.0 C978.7,334.9 986.1,336.3 1001.0,313.5 C1015.9,290.8 1023.4,217.9 1038.3,206.3 C1053.2,194.6 1060.6,284.3 1075.5,255.0 C1090.4,225.8 1097.9,47.6 1112.8,60.0 C1127.7,72.3 1142.6,265.4 1150.0,316.8 L 1150,320 L 70,320 Z" fill="#7a0f26" opacity=".13">
    <animate attributeName="opacity" values=".10;.17;.10" dur="6s" repeatCount="indefinite"/>
  </path>

  <!-- Neon curve -->
  <path id="curve" d="M70.0,320.0 C77.4,314.1 92.3,293.4 107.2,290.8 C122.1,288.1 129.6,303.1 144.5,307.0 C159.4,310.9 166.8,315.4 181.7,310.3 C196.6,305.1 204.1,295.9 219.0,281.0 C233.9,266.1 241.3,231.6 256.2,235.5 C271.1,239.4 278.6,295.9 293.4,300.5 C308.3,305.1 315.8,265.4 330.7,258.3 C345.6,251.1 353.0,253.1 367.9,264.8 C382.8,276.4 390.3,311.6 405.2,316.8 C420.1,321.9 427.5,311.6 442.4,290.8 C457.3,269.9 464.8,214.7 479.7,212.8 C494.6,210.8 502.0,264.1 516.9,281.0 C531.8,297.9 539.2,299.2 554.1,297.3 C569.0,295.3 576.5,270.6 591.4,271.3 C606.3,271.9 613.7,294.6 628.6,300.5 C643.5,306.4 651.0,301.8 665.9,300.5 C680.8,299.2 688.2,290.1 703.1,294.0 C718.0,297.9 725.4,326.5 740.3,320.0 C755.2,313.5 762.7,278.4 777.6,261.5 C792.5,244.6 799.9,224.4 814.8,235.5 C829.7,246.6 837.2,301.8 852.1,316.8 C867.0,331.7 874.4,325.9 889.3,310.3 C904.2,294.6 911.7,236.8 926.6,238.8 C941.4,240.7 948.9,305.1 963.8,320.0 C978.7,334.9 986.1,336.3 1001.0,313.5 C1015.9,290.8 1023.4,217.9 1038.3,206.3 C1053.2,194.6 1060.6,284.3 1075.5,255.0 C1090.4,225.8 1097.9,47.6 1112.8,60.0 C1127.7,72.3 1142.6,265.4 1150.0,316.8" fill="none" stroke="#c3193d" stroke-width="5"
        stroke-linecap="round" stroke-linejoin="round" stroke-dasharray="6 14" filter="url(#glow)">
    <animate attributeName="stroke-dashoffset" values="0;-220" dur="4.8s" repeatCount="indefinite"/>
  </path>

  <!-- Particles -->
  <g fill="#ffd1db">
    <circle r="4"><animateMotion dur="7s" rotate="auto" repeatCount="indefinite"><mpath href="#curve"/></animateMotion><animate attributeName="opacity" values="1;.3;1" dur="2.2s" repeatCount="indefinite"/></circle>
    <circle r="3" fill="#ffffff"><animateMotion dur="8.2s" begin="1s" rotate="auto" repeatCount="indefinite"><mpath href="#curve"/></animateMotion><animate attributeName="opacity" values=".7;.2;.7" dur="2.4s" repeatCount="indefinite"/></circle>
    <circle r="3" fill="#ffc7d3"><animateMotion dur="6s" begin="2s" rotate="auto" repeatCount="indefinite"><mpath href="#curve"/></animateMotion><animate attributeName="opacity" values=".8;.3;.8" dur="2s" repeatCount="indefinite"/></circle>
  </g>
</svg>