<?xml version="1.0" encoding="UTF-8"?>
<!-- build:2025-08-16T12:49:49.256Z user:statikfintechllc points:30 yMax:100 -->
<svg xmlns="http://www.w3.org/2000/svg" width="1200" height="420" viewBox="0 0 1200 420" role="img" aria-label="Crimson Flow Graph">
  <defs>
    <linearGradient id="bgGrad" x1="0" y1="0" x2="0" y2="1">
      <stop offset="0%" stop-color="#0a0d12"/><stop offset="100%" stop-color="#070a0d"/>
    </linearGradient>
    <filter id="glow"><feGaussianBlur stdDeviation="3" result="b1"/><feMerge><feMergeNode in="b1"/><feMergeNode in="SourceGraphic"/></feMerge></filter>
    <linearGradient id="sheen" x1="0" y1="0" x2="1" y2="0">
      <stop offset="0%" stop-color="#9b0e2a" stop-opacity="0"/>
      <stop offset="50%" stop-color="#9b0e2a" stop-opacity=".14"/>
      <stop offset="100%" stop-color="#9b0e2a" stop-opacity="0"/>
      <animateTransform attributeName="gradientTransform" type="translate" from="-1 0" to="1 0" dur="9s" repeatCount="indefinite"/>
    </linearGradient>
  </defs>

  <!-- BG -->
  <rect width="1200" height="420" fill="url(#bgGrad)"/>

  <!-- Plot frame -->
  <rect x="70" y="60" width="1080" height="260" fill="none" stroke="#121821" stroke-width="1"/>

  <!-- Y grid + labels -->
  <g font-family="ui-sans-serif,system-ui,-apple-system,Segoe UI,Roboto,Ubuntu,Arial" font-size="12">
    
      <path d="M70,320.0 H1150" stroke="#121821" stroke-width="1" opacity="0.6"/>
      <text x="60" y="324.0" text-anchor="end" fill="#ea384c">0</text>
    
      <path d="M70,268.0 H1150" stroke="#121821" stroke-width="1" opacity="0.6"/>
      <text x="60" y="272.0" text-anchor="end" fill="#ea384c">20</text>
    
      <path d="M70,216.0 H1150" stroke="#121821" stroke-width="1" opacity="0.6"/>
      <text x="60" y="220.0" text-anchor="end" fill="#ea384c">40</text>
    
      <path d="M70,164.0 H1150" stroke="#121821" stroke-width="1" opacity="0.6"/>
      <text x="60" y="168.0" text-anchor="end" fill="#ea384c">60</text>
    
      <path d="M70,112.0 H1150" stroke="#121821" stroke-width="1" opacity="0.6"/>
      <text x="60" y="116.0" text-anchor="end" fill="#ea384c">80</text>
    
      <path d="M70,60.0 H1150" stroke="#121821" stroke-width="1" opacity="0.6"/>
      <text x="60" y="64.0" text-anchor="end" fill="#ea384c">100</text>
    
    <text x="30" y="44" fill="#ea384c" font-size="13">Contributions</text>
  </g>

  <!-- X ticks + labels -->
  <g font-family="ui-sans-serif,system-ui,-apple-system,Segoe UI,Roboto,Ubuntu,Arial" font-size="12">
    
      <path d="M70.0,320 V326" stroke="#121821" stroke-width="1"/>
      <text x="70.0" y="340" text-anchor="middle" fill="#ea384c">7/18</text>
    
      <path d="M256.2,320 V326" stroke="#121821" stroke-width="1"/>
      <text x="256.2" y="340" text-anchor="middle" fill="#ea384c">7/23</text>
    
      <path d="M442.4,320 V326" stroke="#121821" stroke-width="1"/>
      <text x="442.4" y="340" text-anchor="middle" fill="#ea384c">7/28</text>
    
      <path d="M628.6,320 V326" stroke="#121821" stroke-width="1"/>
      <text x="628.6" y="340" text-anchor="middle" fill="#ea384c">8/2</text>
    
      <path d="M814.8,320 V326" stroke="#121821" stroke-width="1"/>
      <text x="814.8" y="340" text-anchor="middle" fill="#ea384c">8/7</text>
    
      <path d="M1001.0,320 V326" stroke="#121821" stroke-width="1"/>
      <text x="1001.0" y="340" text-anchor="middle" fill="#ea384c">8/12</text>
    
      <path d="M1150.0,320 V326" stroke="#121821" stroke-width="1"/>
      <text x="1150.0" y="340" text-anchor="middle" fill="#ea384c">8/16</text>
    
    <text x="610" y="358" text-anchor="middle" fill="#ea384c" font-size="13">Last 30 days</text>
  </g>

  <!-- Fancy sheen over plot area -->
  <rect x="70" y="60" width="1080" height="260" fill="url(#sheen)"/>

  <!-- Title -->
  <text x="600" y="40" text-anchor="middle"
        font-family="ui-sans-serif,system-ui,-apple-system,Segoe UI,Roboto,Ubuntu,Arial"
        font-size="22" fill="#ea384c" opacity=".95">Statik DK Smoke’s Crimson Flow</text>

  <!-- Area under curve -->
  <path d="M70.0,312.2 C77.4,307.5 92.3,300.8 107.2,288.8 C122.1,276.8 129.6,249.3 144.5,252.4 C159.4,255.5 166.8,300.8 181.7,304.4 C196.6,308.0 204.1,276.3 219.0,270.6 C233.9,264.9 241.3,266.4 256.2,275.8 C271.1,285.2 278.6,313.2 293.4,317.4 C308.3,321.6 315.8,313.2 330.7,296.6 C345.6,280.0 353.0,235.8 367.9,234.2 C382.8,232.6 390.3,275.3 405.2,288.8 C420.1,302.3 427.5,303.4 442.4,301.8 C457.3,300.2 464.8,280.5 479.7,281.0 C494.6,281.5 502.0,299.7 516.9,304.4 C531.8,309.1 539.2,305.4 554.1,304.4 C569.0,303.4 576.5,296.1 591.4,299.2 C606.3,302.3 613.7,325.2 628.6,320.0 C643.5,314.8 651.0,286.7 665.9,273.2 C680.8,259.7 688.2,243.6 703.1,252.4 C718.0,261.2 725.4,305.4 740.3,317.4 C755.2,329.4 762.7,324.7 777.6,312.2 C792.5,299.7 799.9,253.4 814.8,255.0 C829.7,256.6 837.2,308.0 852.1,320.0 C867.0,332.0 874.4,333.5 889.3,314.8 C904.2,296.1 911.7,235.8 926.6,226.4 C941.4,217.0 948.9,298.7 963.8,268.0 C978.7,237.3 986.1,70.9 1001.0,73.0 C1015.9,75.1 1023.4,229.5 1038.3,278.4 C1053.2,327.3 1060.6,355.9 1075.5,317.4 C1090.4,278.9 1097.9,86.0 1112.8,86.0 C1127.7,86.0 1142.6,271.1 1150.0,317.4 L 1150,320 L 70,320 Z" fill="#7a0f26" opacity=".13">
    <animate attributeName="opacity" values=".10;.17;.10" dur="6s" repeatCount="indefinite"/>
  </path>

  <!-- Neon curve -->
  <path id="curve" d="M70.0,312.2 C77.4,307.5 92.3,300.8 107.2,288.8 C122.1,276.8 129.6,249.3 144.5,252.4 C159.4,255.5 166.8,300.8 181.7,304.4 C196.6,308.0 204.1,276.3 219.0,270.6 C233.9,264.9 241.3,266.4 256.2,275.8 C271.1,285.2 278.6,313.2 293.4,317.4 C308.3,321.6 315.8,313.2 330.7,296.6 C345.6,280.0 353.0,235.8 367.9,234.2 C382.8,232.6 390.3,275.3 405.2,288.8 C420.1,302.3 427.5,303.4 442.4,301.8 C457.3,300.2 464.8,280.5 479.7,281.0 C494.6,281.5 502.0,299.7 516.9,304.4 C531.8,309.1 539.2,305.4 554.1,304.4 C569.0,303.4 576.5,296.1 591.4,299.2 C606.3,302.3 613.7,325.2 628.6,320.0 C643.5,314.8 651.0,286.7 665.9,273.2 C680.8,259.7 688.2,243.6 703.1,252.4 C718.0,261.2 725.4,305.4 740.3,317.4 C755.2,329.4 762.7,324.7 777.6,312.2 C792.5,299.7 799.9,253.4 814.8,255.0 C829.7,256.6 837.2,308.0 852.1,320.0 C867.0,332.0 874.4,333.5 889.3,314.8 C904.2,296.1 911.7,235.8 926.6,226.4 C941.4,217.0 948.9,298.7 963.8,268.0 C978.7,237.3 986.1,70.9 1001.0,73.0 C1015.9,75.1 1023.4,229.5 1038.3,278.4 C1053.2,327.3 1060.6,355.9 1075.5,317.4 C1090.4,278.9 1097.9,86.0 1112.8,86.0 C1127.7,86.0 1142.6,271.1 1150.0,317.4" fill="none" stroke="#c3193d" stroke-width="5"
        stroke-linecap="round" stroke-linejoin="round" stroke-dasharray="6 14" filter="url(#glow)">
    <animate attributeName="stroke-dashoffset" values="0;-220" dur="4.8s" repeatCount="indefinite"/>
  </path>

  <!-- Particles -->
  <g fill="#ffd1db">
    <circle r="4"><animateMotion dur="7s" rotate="auto" repeatCount="indefinite"><mpath href="#curve"/></animateMotion><animate attributeName="opacity" values="1;.3;1" dur="2.2s" repeatCount="indefinite"/></circle>
    <circle r="3" fill="#ffffff"><animateMotion dur="8.2s" begin="1s" rotate="auto" repeatCount="indefinite"><mpath href="#curve"/></animateMotion><animate attributeName="opacity" values=".7;.2;.7" dur="2.4s" repeatCount="indefinite"/></circle>
    <circle r="3" fill="#ffc7d3"><animateMotion dur="6s" begin="2s" rotate="auto" repeatCount="indefinite"><mpath href="#curve"/></animateMotion><animate attributeName="opacity" values=".8;.3;.8" dur="2s" repeatCount="indefinite"/></circle>
  </g>
</svg>