<?xml version="1.0" encoding="UTF-8"?>
<!-- build:2025-08-15T06:39:37.920Z user:statikfintechllc points:30 yMax:100 -->
<svg xmlns="http://www.w3.org/2000/svg" width="1200" height="420" viewBox="0 0 1200 420" role="img" aria-label="Crimson Flow Graph">
  <defs>
    <linearGradient id="bgGrad" x1="0" y1="0" x2="0" y2="1">
      <stop offset="0%" stop-color="#0a0d12"/><stop offset="100%" stop-color="#070a0d"/>
    </linearGradient>
    <filter id="glow"><feGaussianBlur stdDeviation="3" result="b1"/><feMerge><feMergeNode in="b1"/><feMergeNode in="SourceGraphic"/></feMerge></filter>
    <linearGradient id="sheen" x1="0" y1="0" x2="1" y2="0">
      <stop offset="0%" stop-color="#9b0e2a" stop-opacity="0"/>
      <stop offset="50%" stop-color="#9b0e2a" stop-opacity=".14"/>
      <stop offset="100%" stop-color="#9b0e2a" stop-opacity="0"/>
      <animateTransform attributeName="gradientTransform" type="translate" from="-1 0" to="1 0" dur="9s" repeatCount="indefinite"/>
    </linearGradient>
  </defs>

  <!-- BG -->
  <rect width="1200" height="420" fill="url(#bgGrad)"/>

  <!-- Plot frame -->
  <rect x="70" y="60" width="1080" height="260" fill="none" stroke="#121821" stroke-width="1"/>

  <!-- Y grid + labels -->
  <g font-family="ui-sans-serif,system-ui,-apple-system,Segoe UI,Roboto,Ubuntu,Arial" font-size="12">
    
      <path d="M70,320.0 H1150" stroke="#121821" stroke-width="1" opacity="0.6"/>
      <text x="60" y="324.0" text-anchor="end" fill="#ea384c">0</text>
    
      <path d="M70,268.0 H1150" stroke="#121821" stroke-width="1" opacity="0.6"/>
      <text x="60" y="272.0" text-anchor="end" fill="#ea384c">20</text>
    
      <path d="M70,216.0 H1150" stroke="#121821" stroke-width="1" opacity="0.6"/>
      <text x="60" y="220.0" text-anchor="end" fill="#ea384c">40</text>
    
      <path d="M70,164.0 H1150" stroke="#121821" stroke-width="1" opacity="0.6"/>
      <text x="60" y="168.0" text-anchor="end" fill="#ea384c">60</text>
    
      <path d="M70,112.0 H1150" stroke="#121821" stroke-width="1" opacity="0.6"/>
      <text x="60" y="116.0" text-anchor="end" fill="#ea384c">80</text>
    
      <path d="M70,60.0 H1150" stroke="#121821" stroke-width="1" opacity="0.6"/>
      <text x="60" y="64.0" text-anchor="end" fill="#ea384c">100</text>
    
    <text x="30" y="44" fill="#ea384c" font-size="13">Contributions</text>
  </g>

  <!-- X ticks + labels -->
  <g font-family="ui-sans-serif,system-ui,-apple-system,Segoe UI,Roboto,Ubuntu,Arial" font-size="12">
    
      <path d="M70.0,320 V326" stroke="#121821" stroke-width="1"/>
      <text x="70.0" y="340" text-anchor="middle" fill="#ea384c">7/17</text>
    
      <path d="M256.2,320 V326" stroke="#121821" stroke-width="1"/>
      <text x="256.2" y="340" text-anchor="middle" fill="#ea384c">7/22</text>
    
      <path d="M442.4,320 V326" stroke="#121821" stroke-width="1"/>
      <text x="442.4" y="340" text-anchor="middle" fill="#ea384c">7/27</text>
    
      <path d="M628.6,320 V326" stroke="#121821" stroke-width="1"/>
      <text x="628.6" y="340" text-anchor="middle" fill="#ea384c">8/1</text>
    
      <path d="M814.8,320 V326" stroke="#121821" stroke-width="1"/>
      <text x="814.8" y="340" text-anchor="middle" fill="#ea384c">8/6</text>
    
      <path d="M1001.0,320 V326" stroke="#121821" stroke-width="1"/>
      <text x="1001.0" y="340" text-anchor="middle" fill="#ea384c">8/11</text>
    
      <path d="M1150.0,320 V326" stroke="#121821" stroke-width="1"/>
      <text x="1150.0" y="340" text-anchor="middle" fill="#ea384c">8/15</text>
    
    <text x="610" y="358" text-anchor="middle" fill="#ea384c" font-size="13">Last 30 days</text>
  </g>

  <!-- Fancy sheen over plot area -->
  <rect x="70" y="60" width="1080" height="260" fill="url(#sheen)"/>

  <!-- Title -->
  <text x="600" y="40" text-anchor="middle"
        font-family="ui-sans-serif,system-ui,-apple-system,Segoe UI,Roboto,Ubuntu,Arial"
        font-size="22" fill="#ea384c" opacity=".95">Statik DK Smoke’s Crimson Flow</text>

  <!-- Area under curve -->
  <path d="M70.0,309.6 C77.4,310.1 92.3,316.4 107.2,312.2 C122.1,308.0 129.6,300.8 144.5,288.8 C159.4,276.8 166.8,249.3 181.7,252.4 C196.6,255.5 204.1,300.8 219.0,304.4 C233.9,308.0 241.3,276.3 256.2,270.6 C271.1,264.9 278.6,266.4 293.4,275.8 C308.3,285.2 315.8,313.2 330.7,317.4 C345.6,321.6 353.0,313.2 367.9,296.6 C382.8,280.0 390.3,235.8 405.2,234.2 C420.1,232.6 427.5,275.3 442.4,288.8 C457.3,302.3 464.8,303.4 479.7,301.8 C494.6,300.2 502.0,280.5 516.9,281.0 C531.8,281.5 539.2,299.7 554.1,304.4 C569.0,309.1 576.5,305.4 591.4,304.4 C606.3,303.4 613.7,296.1 628.6,299.2 C643.5,302.3 651.0,325.2 665.9,320.0 C680.8,314.8 688.2,286.7 703.1,273.2 C718.0,259.7 725.4,243.6 740.3,252.4 C755.2,261.2 762.7,305.4 777.6,317.4 C792.5,329.4 799.9,324.7 814.8,312.2 C829.7,299.7 837.2,253.4 852.1,255.0 C867.0,256.6 874.4,308.0 889.3,320.0 C904.2,332.0 911.7,333.0 926.6,314.8 C941.4,296.6 948.9,238.4 963.8,229.0 C978.7,219.6 986.1,299.2 1001.0,268.0 C1015.9,236.8 1023.4,70.9 1038.3,73.0 C1053.2,75.1 1060.6,229.5 1075.5,278.4 C1090.4,327.3 1097.9,309.1 1112.8,317.4 C1127.7,325.7 1142.6,319.5 1150.0,320.0 L 1150,320 L 70,320 Z" fill="#7a0f26" opacity=".13">
    <animate attributeName="opacity" values=".10;.17;.10" dur="6s" repeatCount="indefinite"/>
  </path>

  <!-- Neon curve -->
  <path id="curve" d="M70.0,309.6 C77.4,310.1 92.3,316.4 107.2,312.2 C122.1,308.0 129.6,300.8 144.5,288.8 C159.4,276.8 166.8,249.3 181.7,252.4 C196.6,255.5 204.1,300.8 219.0,304.4 C233.9,308.0 241.3,276.3 256.2,270.6 C271.1,264.9 278.6,266.4 293.4,275.8 C308.3,285.2 315.8,313.2 330.7,317.4 C345.6,321.6 353.0,313.2 367.9,296.6 C382.8,280.0 390.3,235.8 405.2,234.2 C420.1,232.6 427.5,275.3 442.4,288.8 C457.3,302.3 464.8,303.4 479.7,301.8 C494.6,300.2 502.0,280.5 516.9,281.0 C531.8,281.5 539.2,299.7 554.1,304.4 C569.0,309.1 576.5,305.4 591.4,304.4 C606.3,303.4 613.7,296.1 628.6,299.2 C643.5,302.3 651.0,325.2 665.9,320.0 C680.8,314.8 688.2,286.7 703.1,273.2 C718.0,259.7 725.4,243.6 740.3,252.4 C755.2,261.2 762.7,305.4 777.6,317.4 C792.5,329.4 799.9,324.7 814.8,312.2 C829.7,299.7 837.2,253.4 852.1,255.0 C867.0,256.6 874.4,308.0 889.3,320.0 C904.2,332.0 911.7,333.0 926.6,314.8 C941.4,296.6 948.9,238.4 963.8,229.0 C978.7,219.6 986.1,299.2 1001.0,268.0 C1015.9,236.8 1023.4,70.9 1038.3,73.0 C1053.2,75.1 1060.6,229.5 1075.5,278.4 C1090.4,327.3 1097.9,309.1 1112.8,317.4 C1127.7,325.7 1142.6,319.5 1150.0,320.0" fill="none" stroke="#c3193d" stroke-width="5"
        stroke-linecap="round" stroke-linejoin="round" stroke-dasharray="6 14" filter="url(#glow)">
    <animate attributeName="stroke-dashoffset" values="0;-220" dur="4.8s" repeatCount="indefinite"/>
  </path>

  <!-- Particles -->
  <g fill="#ffd1db">
    <circle r="4"><animateMotion dur="7s" rotate="auto" repeatCount="indefinite"><mpath href="#curve"/></animateMotion><animate attributeName="opacity" values="1;.3;1" dur="2.2s" repeatCount="indefinite"/></circle>
    <circle r="3" fill="#ffffff"><animateMotion dur="8.2s" begin="1s" rotate="auto" repeatCount="indefinite"><mpath href="#curve"/></animateMotion><animate attributeName="opacity" values=".7;.2;.7" dur="2.4s" repeatCount="indefinite"/></circle>
    <circle r="3" fill="#ffc7d3"><animateMotion dur="6s" begin="2s" rotate="auto" repeatCount="indefinite"><mpath href="#curve"/></animateMotion><animate attributeName="opacity" values=".8;.3;.8" dur="2s" repeatCount="indefinite"/></circle>
  </g>
</svg>