<?xml version="1.0" encoding="UTF-8"?>
<!-- build:2026-06-05T13:15:05.407Z user:statikfintechllc points:30 yMax:500 -->
<svg xmlns="http://www.w3.org/2000/svg" width="1200" height="420" viewBox="0 0 1200 420" role="img" aria-label="Contribution's Graph">
  <defs>
    <linearGradient id="bgGrad" x1="0" y1="0" x2="0" y2="1">
      <stop offset="0%" stop-color="#0a0d12"/><stop offset="100%" stop-color="#070a0d"/>
    </linearGradient>
    <filter id="glow"><feGaussianBlur stdDeviation="3" result="b1"/><feMerge><feMergeNode in="b1"/><feMergeNode in="SourceGraphic"/></feMerge></filter>
    <linearGradient id="sheen" x1="0" y1="0" x2="1" y2="0">
      <stop offset="0%" stop-color="#9b0e2a" stop-opacity="0"/>
      <stop offset="50%" stop-color="#9b0e2a" stop-opacity=".14"/>
      <stop offset="100%" stop-color="#9b0e2a" stop-opacity="0"/>
      <animateTransform attributeName="gradientTransform" type="translate" from="-1 0" to="1 0" dur="9s" repeatCount="indefinite"/>
    </linearGradient>
  </defs>

  <!-- BG -->
  <rect width="1200" height="420" fill="url(#bgGrad)"/>

  <!-- Plot frame -->
  <rect x="70" y="60" width="1080" height="260" fill="none" stroke="#121821" stroke-width="1"/>

  <!-- Y grid + labels -->
  <g font-family="ui-sans-serif,system-ui,-apple-system,Segoe UI,Roboto,Ubuntu,Arial" font-size="12">
    
      <path d="M70,320.0 H1150" stroke="#121821" stroke-width="1" opacity="0.6"/>
      <text x="60" y="324.0" text-anchor="end" fill="#ea384c">0</text>
    
      <path d="M70,268.0 H1150" stroke="#121821" stroke-width="1" opacity="0.6"/>
      <text x="60" y="272.0" text-anchor="end" fill="#ea384c">100</text>
    
      <path d="M70,216.0 H1150" stroke="#121821" stroke-width="1" opacity="0.6"/>
      <text x="60" y="220.0" text-anchor="end" fill="#ea384c">200</text>
    
      <path d="M70,164.0 H1150" stroke="#121821" stroke-width="1" opacity="0.6"/>
      <text x="60" y="168.0" text-anchor="end" fill="#ea384c">300</text>
    
      <path d="M70,112.0 H1150" stroke="#121821" stroke-width="1" opacity="0.6"/>
      <text x="60" y="116.0" text-anchor="end" fill="#ea384c">400</text>
    
      <path d="M70,60.0 H1150" stroke="#121821" stroke-width="1" opacity="0.6"/>
      <text x="60" y="64.0" text-anchor="end" fill="#ea384c">500</text>
    
    <text x="30" y="44" fill="#ea384c" font-size="13">Contributions</text>
  </g>

  <!-- X ticks + labels -->
  <g font-family="ui-sans-serif,system-ui,-apple-system,Segoe UI,Roboto,Ubuntu,Arial" font-size="12">
    
      <path d="M70.0,320 V326" stroke="#121821" stroke-width="1"/>
      <text x="70.0" y="340" text-anchor="middle" fill="#ea384c">5/7</text>
    
      <path d="M256.2,320 V326" stroke="#121821" stroke-width="1"/>
      <text x="256.2" y="340" text-anchor="middle" fill="#ea384c">5/12</text>
    
      <path d="M442.4,320 V326" stroke="#121821" stroke-width="1"/>
      <text x="442.4" y="340" text-anchor="middle" fill="#ea384c">5/17</text>
    
      <path d="M628.6,320 V326" stroke="#121821" stroke-width="1"/>
      <text x="628.6" y="340" text-anchor="middle" fill="#ea384c">5/22</text>
    
      <path d="M814.8,320 V326" stroke="#121821" stroke-width="1"/>
      <text x="814.8" y="340" text-anchor="middle" fill="#ea384c">5/27</text>
    
      <path d="M1001.0,320 V326" stroke="#121821" stroke-width="1"/>
      <text x="1001.0" y="340" text-anchor="middle" fill="#ea384c">6/1</text>
    
      <path d="M1150.0,320 V326" stroke="#121821" stroke-width="1"/>
      <text x="1150.0" y="340" text-anchor="middle" fill="#ea384c">6/5</text>
    
    <text x="610" y="358" text-anchor="middle" fill="#ea384c" font-size="13">Last 30 days</text>
  </g>

  <!-- Fancy sheen over plot area -->
  <rect x="70" y="60" width="1080" height="260" fill="url(#sheen)"/>

  <!-- Title -->
  <text x="600" y="40" text-anchor="middle"
        font-family="ui-sans-serif,system-ui,-apple-system,Segoe UI,Roboto,Ubuntu,Arial"
        font-size="22" fill="#ea384c" opacity=".95">Statik DK Smoke’s Contribution's</text>

  <!-- Area under curve -->
  <path d="M70.0,320.0 C77.4,316.9 92.3,305.3 107.2,304.4 C122.1,303.5 129.6,323.2 144.5,315.3 C159.4,307.4 166.8,265.7 181.7,264.9 C196.6,264.0 204.1,300.2 219.0,311.2 C233.9,322.1 241.3,319.1 256.2,319.5 C271.1,319.9 278.6,316.2 293.4,313.2 C308.3,310.3 315.8,305.2 330.7,304.9 C345.6,304.6 353.0,310.0 367.9,311.7 C382.8,313.3 390.3,332.8 405.2,313.2 C420.1,293.7 427.5,256.9 442.4,213.9 C457.3,171.0 464.8,91.8 479.7,98.5 C494.6,105.1 502.0,202.9 516.9,247.2 C531.8,291.5 539.2,305.4 554.1,320.0 C569.0,334.6 576.5,320.0 591.4,320.0 C606.3,320.0 613.7,338.7 628.6,320.0 C643.5,301.3 651.0,234.1 665.9,226.4 C680.8,218.7 688.2,270.8 703.1,281.5 C718.0,292.2 725.4,277.0 740.3,280.0 C755.2,282.9 762.7,315.8 777.6,296.1 C792.5,276.3 799.9,193.3 814.8,181.2 C829.7,169.0 837.2,207.5 852.1,235.2 C867.0,263.0 874.4,303.0 889.3,320.0 C904.2,337.0 911.7,320.0 926.6,320.0 C941.4,320.0 948.9,320.0 963.8,320.0 C978.7,320.0 986.1,320.0 1001.0,320.0 C1015.9,320.0 1023.4,320.0 1038.3,320.0 C1053.2,320.0 1060.6,320.0 1075.5,320.0 C1090.4,320.0 1097.9,320.0 1112.8,320.0 C1127.7,320.0 1142.6,320.0 1150.0,320.0 L 1150,320 L 70,320 Z" fill="#7a0f26" opacity=".13">
    <animate attributeName="opacity" values=".10;.17;.10" dur="6s" repeatCount="indefinite"/>
  </path>

  <!-- Neon curve -->
  <path id="curve" d="M70.0,320.0 C77.4,316.9 92.3,305.3 107.2,304.4 C122.1,303.5 129.6,323.2 144.5,315.3 C159.4,307.4 166.8,265.7 181.7,264.9 C196.6,264.0 204.1,300.2 219.0,311.2 C233.9,322.1 241.3,319.1 256.2,319.5 C271.1,319.9 278.6,316.2 293.4,313.2 C308.3,310.3 315.8,305.2 330.7,304.9 C345.6,304.6 353.0,310.0 367.9,311.7 C382.8,313.3 390.3,332.8 405.2,313.2 C420.1,293.7 427.5,256.9 442.4,213.9 C457.3,171.0 464.8,91.8 479.7,98.5 C494.6,105.1 502.0,202.9 516.9,247.2 C531.8,291.5 539.2,305.4 554.1,320.0 C569.0,334.6 576.5,320.0 591.4,320.0 C606.3,320.0 613.7,338.7 628.6,320.0 C643.5,301.3 651.0,234.1 665.9,226.4 C680.8,218.7 688.2,270.8 703.1,281.5 C718.0,292.2 725.4,277.0 740.3,280.0 C755.2,282.9 762.7,315.8 777.6,296.1 C792.5,276.3 799.9,193.3 814.8,181.2 C829.7,169.0 837.2,207.5 852.1,235.2 C867.0,263.0 874.4,303.0 889.3,320.0 C904.2,337.0 911.7,320.0 926.6,320.0 C941.4,320.0 948.9,320.0 963.8,320.0 C978.7,320.0 986.1,320.0 1001.0,320.0 C1015.9,320.0 1023.4,320.0 1038.3,320.0 C1053.2,320.0 1060.6,320.0 1075.5,320.0 C1090.4,320.0 1097.9,320.0 1112.8,320.0 C1127.7,320.0 1142.6,320.0 1150.0,320.0" fill="none" stroke="#c3193d" stroke-width="5"
        stroke-linecap="round" stroke-linejoin="round" stroke-dasharray="6 14" filter="url(#glow)">
    <animate attributeName="stroke-dashoffset" values="0;-220" dur="4.8s" repeatCount="indefinite"/>
  </path>

  <!-- Particles -->
  <g fill="#ffd1db">
    <circle r="4"><animateMotion dur="7s" rotate="auto" repeatCount="indefinite"><mpath href="#curve"/></animateMotion><animate attributeName="opacity" values="1;.3;1" dur="2.2s" repeatCount="indefinite"/></circle>
    <circle r="3" fill="#ffffff"><animateMotion dur="8.2s" begin="1s" rotate="auto" repeatCount="indefinite"><mpath href="#curve"/></animateMotion><animate attributeName="opacity" values=".7;.2;.7" dur="2.4s" repeatCount="indefinite"/></circle>
    <circle r="3" fill="#ffc7d3"><animateMotion dur="6s" begin="2s" rotate="auto" repeatCount="indefinite"><mpath href="#curve"/></animateMotion><animate attributeName="opacity" values=".8;.3;.8" dur="2s" repeatCount="indefinite"/></circle>
  </g>
</svg>