<?xml version="1.0" encoding="UTF-8"?>
<!-- build:2025-11-11T00:34:15.383Z user:statikfintechllc points:30 yMax:100 -->
<svg xmlns="http://www.w3.org/2000/svg" width="1200" height="420" viewBox="0 0 1200 420" role="img" aria-label="Contribution's Graph">
  <defs>
    <linearGradient id="bgGrad" x1="0" y1="0" x2="0" y2="1">
      <stop offset="0%" stop-color="#0a0d12"/><stop offset="100%" stop-color="#070a0d"/>
    </linearGradient>
    <filter id="glow"><feGaussianBlur stdDeviation="3" result="b1"/><feMerge><feMergeNode in="b1"/><feMergeNode in="SourceGraphic"/></feMerge></filter>
    <linearGradient id="sheen" x1="0" y1="0" x2="1" y2="0">
      <stop offset="0%" stop-color="#9b0e2a" stop-opacity="0"/>
      <stop offset="50%" stop-color="#9b0e2a" stop-opacity=".14"/>
      <stop offset="100%" stop-color="#9b0e2a" stop-opacity="0"/>
      <animateTransform attributeName="gradientTransform" type="translate" from="-1 0" to="1 0" dur="9s" repeatCount="indefinite"/>
    </linearGradient>
  </defs>

  <!-- BG -->
  <rect width="1200" height="420" fill="url(#bgGrad)"/>

  <!-- Plot frame -->
  <rect x="70" y="60" width="1080" height="260" fill="none" stroke="#121821" stroke-width="1"/>

  <!-- Y grid + labels -->
  <g font-family="ui-sans-serif,system-ui,-apple-system,Segoe UI,Roboto,Ubuntu,Arial" font-size="12">
    
      <path d="M70,320.0 H1150" stroke="#121821" stroke-width="1" opacity="0.6"/>
      <text x="60" y="324.0" text-anchor="end" fill="#ea384c">0</text>
    
      <path d="M70,268.0 H1150" stroke="#121821" stroke-width="1" opacity="0.6"/>
      <text x="60" y="272.0" text-anchor="end" fill="#ea384c">20</text>
    
      <path d="M70,216.0 H1150" stroke="#121821" stroke-width="1" opacity="0.6"/>
      <text x="60" y="220.0" text-anchor="end" fill="#ea384c">40</text>
    
      <path d="M70,164.0 H1150" stroke="#121821" stroke-width="1" opacity="0.6"/>
      <text x="60" y="168.0" text-anchor="end" fill="#ea384c">60</text>
    
      <path d="M70,112.0 H1150" stroke="#121821" stroke-width="1" opacity="0.6"/>
      <text x="60" y="116.0" text-anchor="end" fill="#ea384c">80</text>
    
      <path d="M70,60.0 H1150" stroke="#121821" stroke-width="1" opacity="0.6"/>
      <text x="60" y="64.0" text-anchor="end" fill="#ea384c">100</text>
    
    <text x="30" y="44" fill="#ea384c" font-size="13">Contributions</text>
  </g>

  <!-- X ticks + labels -->
  <g font-family="ui-sans-serif,system-ui,-apple-system,Segoe UI,Roboto,Ubuntu,Arial" font-size="12">
    
      <path d="M70.0,320 V326" stroke="#121821" stroke-width="1"/>
      <text x="70.0" y="340" text-anchor="middle" fill="#ea384c">10/13</text>
    
      <path d="M256.2,320 V326" stroke="#121821" stroke-width="1"/>
      <text x="256.2" y="340" text-anchor="middle" fill="#ea384c">10/18</text>
    
      <path d="M442.4,320 V326" stroke="#121821" stroke-width="1"/>
      <text x="442.4" y="340" text-anchor="middle" fill="#ea384c">10/23</text>
    
      <path d="M628.6,320 V326" stroke="#121821" stroke-width="1"/>
      <text x="628.6" y="340" text-anchor="middle" fill="#ea384c">10/28</text>
    
      <path d="M814.8,320 V326" stroke="#121821" stroke-width="1"/>
      <text x="814.8" y="340" text-anchor="middle" fill="#ea384c">11/2</text>
    
      <path d="M1001.0,320 V326" stroke="#121821" stroke-width="1"/>
      <text x="1001.0" y="340" text-anchor="middle" fill="#ea384c">11/7</text>
    
      <path d="M1150.0,320 V326" stroke="#121821" stroke-width="1"/>
      <text x="1150.0" y="340" text-anchor="middle" fill="#ea384c">11/11</text>
    
    <text x="610" y="358" text-anchor="middle" fill="#ea384c" font-size="13">Last 30 days</text>
  </g>

  <!-- Fancy sheen over plot area -->
  <rect x="70" y="60" width="1080" height="260" fill="url(#sheen)"/>

  <!-- Title -->
  <text x="600" y="40" text-anchor="middle"
        font-family="ui-sans-serif,system-ui,-apple-system,Segoe UI,Roboto,Ubuntu,Arial"
        font-size="22" fill="#ea384c" opacity=".95">Statik DK Smoke’s Contribution's</text>

  <!-- Area under curve -->
  <path d="M70.0,265.4 C77.4,269.6 92.3,283.6 107.2,286.2 C122.1,288.8 129.6,284.6 144.5,278.4 C159.4,272.2 166.8,272.7 181.7,255.0 C196.6,237.3 204.1,194.2 219.0,190.0 C233.9,185.8 241.3,258.6 256.2,234.2 C271.1,209.8 278.6,69.4 293.4,67.8 C308.3,66.2 315.8,184.8 330.7,226.4 C345.6,268.0 353.0,264.4 367.9,275.8 C382.8,287.2 390.3,288.8 405.2,283.6 C420.1,278.4 427.5,249.3 442.4,249.8 C457.3,250.3 464.8,278.4 479.7,286.2 C494.6,294.0 502.0,290.4 516.9,288.8 C531.8,287.2 539.2,282.6 554.1,278.4 C569.0,274.2 576.5,264.4 591.4,268.0 C606.3,271.6 613.7,286.2 628.6,296.6 C643.5,307.0 651.0,323.1 665.9,320.0 C680.8,316.9 688.2,289.3 703.1,281.0 C718.0,272.7 725.4,284.6 740.3,278.4 C755.2,272.2 762.7,257.1 777.6,249.8 C792.5,242.5 799.9,246.7 814.8,242.0 C829.7,237.3 837.2,213.4 852.1,226.4 C867.0,239.4 874.4,292.4 889.3,307.0 C904.2,321.6 911.7,296.6 926.6,299.2 C941.4,301.8 948.9,315.8 963.8,320.0 C978.7,324.2 986.1,320.0 1001.0,320.0 C1015.9,320.0 1023.4,321.6 1038.3,320.0 C1053.2,318.4 1060.6,316.4 1075.5,312.2 C1090.4,308.0 1097.9,297.6 1112.8,299.2 C1127.7,300.8 1142.6,315.8 1150.0,320.0 L 1150,320 L 70,320 Z" fill="#7a0f26" opacity=".13">
    <animate attributeName="opacity" values=".10;.17;.10" dur="6s" repeatCount="indefinite"/>
  </path>

  <!-- Neon curve -->
  <path id="curve" d="M70.0,265.4 C77.4,269.6 92.3,283.6 107.2,286.2 C122.1,288.8 129.6,284.6 144.5,278.4 C159.4,272.2 166.8,272.7 181.7,255.0 C196.6,237.3 204.1,194.2 219.0,190.0 C233.9,185.8 241.3,258.6 256.2,234.2 C271.1,209.8 278.6,69.4 293.4,67.8 C308.3,66.2 315.8,184.8 330.7,226.4 C345.6,268.0 353.0,264.4 367.9,275.8 C382.8,287.2 390.3,288.8 405.2,283.6 C420.1,278.4 427.5,249.3 442.4,249.8 C457.3,250.3 464.8,278.4 479.7,286.2 C494.6,294.0 502.0,290.4 516.9,288.8 C531.8,287.2 539.2,282.6 554.1,278.4 C569.0,274.2 576.5,264.4 591.4,268.0 C606.3,271.6 613.7,286.2 628.6,296.6 C643.5,307.0 651.0,323.1 665.9,320.0 C680.8,316.9 688.2,289.3 703.1,281.0 C718.0,272.7 725.4,284.6 740.3,278.4 C755.2,272.2 762.7,257.1 777.6,249.8 C792.5,242.5 799.9,246.7 814.8,242.0 C829.7,237.3 837.2,213.4 852.1,226.4 C867.0,239.4 874.4,292.4 889.3,307.0 C904.2,321.6 911.7,296.6 926.6,299.2 C941.4,301.8 948.9,315.8 963.8,320.0 C978.7,324.2 986.1,320.0 1001.0,320.0 C1015.9,320.0 1023.4,321.6 1038.3,320.0 C1053.2,318.4 1060.6,316.4 1075.5,312.2 C1090.4,308.0 1097.9,297.6 1112.8,299.2 C1127.7,300.8 1142.6,315.8 1150.0,320.0" fill="none" stroke="#c3193d" stroke-width="5"
        stroke-linecap="round" stroke-linejoin="round" stroke-dasharray="6 14" filter="url(#glow)">
    <animate attributeName="stroke-dashoffset" values="0;-220" dur="4.8s" repeatCount="indefinite"/>
  </path>

  <!-- Particles -->
  <g fill="#ffd1db">
    <circle r="4"><animateMotion dur="7s" rotate="auto" repeatCount="indefinite"><mpath href="#curve"/></animateMotion><animate attributeName="opacity" values="1;.3;1" dur="2.2s" repeatCount="indefinite"/></circle>
    <circle r="3" fill="#ffffff"><animateMotion dur="8.2s" begin="1s" rotate="auto" repeatCount="indefinite"><mpath href="#curve"/></animateMotion><animate attributeName="opacity" values=".7;.2;.7" dur="2.4s" repeatCount="indefinite"/></circle>
    <circle r="3" fill="#ffc7d3"><animateMotion dur="6s" begin="2s" rotate="auto" repeatCount="indefinite"><mpath href="#curve"/></animateMotion><animate attributeName="opacity" values=".8;.3;.8" dur="2s" repeatCount="indefinite"/></circle>
  </g>
</svg>