<?xml version="1.0" encoding="UTF-8"?>
<!-- build:2026-07-31T14:22:47.643Z user:statikfintechllc points:30 yMax:250 -->
<svg xmlns="http://www.w3.org/2000/svg" width="1200" height="420" viewBox="0 0 1200 420" role="img" aria-label="Contribution's Graph">
  <defs>
    <linearGradient id="bgGrad" x1="0" y1="0" x2="0" y2="1">
      <stop offset="0%" stop-color="#0a0d12"/><stop offset="100%" stop-color="#070a0d"/>
    </linearGradient>
    <filter id="glow"><feGaussianBlur stdDeviation="3" result="b1"/><feMerge><feMergeNode in="b1"/><feMergeNode in="SourceGraphic"/></feMerge></filter>
    <linearGradient id="sheen" x1="0" y1="0" x2="1" y2="0">
      <stop offset="0%" stop-color="#9b0e2a" stop-opacity="0"/>
      <stop offset="50%" stop-color="#9b0e2a" stop-opacity=".14"/>
      <stop offset="100%" stop-color="#9b0e2a" stop-opacity="0"/>
      <animateTransform attributeName="gradientTransform" type="translate" from="-1 0" to="1 0" dur="9s" repeatCount="indefinite"/>
    </linearGradient>
  </defs>

  <!-- BG -->
  <rect width="1200" height="420" fill="url(#bgGrad)"/>

  <!-- Plot frame -->
  <rect x="70" y="60" width="1080" height="260" fill="none" stroke="#121821" stroke-width="1"/>

  <!-- Y grid + labels -->
  <g font-family="ui-sans-serif,system-ui,-apple-system,Segoe UI,Roboto,Ubuntu,Arial" font-size="12">
    
      <path d="M70,320.0 H1150" stroke="#121821" stroke-width="1" opacity="0.6"/>
      <text x="60" y="324.0" text-anchor="end" fill="#ea384c">0</text>
    
      <path d="M70,268.0 H1150" stroke="#121821" stroke-width="1" opacity="0.6"/>
      <text x="60" y="272.0" text-anchor="end" fill="#ea384c">50</text>
    
      <path d="M70,216.0 H1150" stroke="#121821" stroke-width="1" opacity="0.6"/>
      <text x="60" y="220.0" text-anchor="end" fill="#ea384c">100</text>
    
      <path d="M70,164.0 H1150" stroke="#121821" stroke-width="1" opacity="0.6"/>
      <text x="60" y="168.0" text-anchor="end" fill="#ea384c">150</text>
    
      <path d="M70,112.0 H1150" stroke="#121821" stroke-width="1" opacity="0.6"/>
      <text x="60" y="116.0" text-anchor="end" fill="#ea384c">200</text>
    
      <path d="M70,60.0 H1150" stroke="#121821" stroke-width="1" opacity="0.6"/>
      <text x="60" y="64.0" text-anchor="end" fill="#ea384c">250</text>
    
    <text x="30" y="44" fill="#ea384c" font-size="13">Contributions</text>
  </g>

  <!-- X ticks + labels -->
  <g font-family="ui-sans-serif,system-ui,-apple-system,Segoe UI,Roboto,Ubuntu,Arial" font-size="12">
    
      <path d="M70.0,320 V326" stroke="#121821" stroke-width="1"/>
      <text x="70.0" y="340" text-anchor="middle" fill="#ea384c">7/2</text>
    
      <path d="M256.2,320 V326" stroke="#121821" stroke-width="1"/>
      <text x="256.2" y="340" text-anchor="middle" fill="#ea384c">7/7</text>
    
      <path d="M442.4,320 V326" stroke="#121821" stroke-width="1"/>
      <text x="442.4" y="340" text-anchor="middle" fill="#ea384c">7/12</text>
    
      <path d="M628.6,320 V326" stroke="#121821" stroke-width="1"/>
      <text x="628.6" y="340" text-anchor="middle" fill="#ea384c">7/17</text>
    
      <path d="M814.8,320 V326" stroke="#121821" stroke-width="1"/>
      <text x="814.8" y="340" text-anchor="middle" fill="#ea384c">7/22</text>
    
      <path d="M1001.0,320 V326" stroke="#121821" stroke-width="1"/>
      <text x="1001.0" y="340" text-anchor="middle" fill="#ea384c">7/27</text>
    
      <path d="M1150.0,320 V326" stroke="#121821" stroke-width="1"/>
      <text x="1150.0" y="340" text-anchor="middle" fill="#ea384c">7/31</text>
    
    <text x="610" y="358" text-anchor="middle" fill="#ea384c" font-size="13">Last 30 days</text>
  </g>

  <!-- Fancy sheen over plot area -->
  <rect x="70" y="60" width="1080" height="260" fill="url(#sheen)"/>

  <!-- Title -->
  <text x="600" y="40" text-anchor="middle"
        font-family="ui-sans-serif,system-ui,-apple-system,Segoe UI,Roboto,Ubuntu,Arial"
        font-size="22" fill="#ea384c" opacity=".95">Statik DK Smoke’s Contribution's</text>

  <!-- Area under curve -->
  <path d="M70.0,221.2 C77.4,221.2 92.3,221.2 107.2,221.2 C122.1,221.2 129.6,221.2 144.5,221.2 C159.4,221.2 166.8,213.3 181.7,221.2 C196.6,229.1 204.1,260.1 219.0,260.7 C233.9,261.3 241.3,232.2 256.2,224.3 C271.1,216.4 278.6,221.6 293.4,221.2 C308.3,220.8 315.8,218.7 330.7,222.2 C345.6,225.8 353.0,219.3 367.9,238.9 C382.8,258.4 390.3,305.0 405.2,320.0 C420.1,335.0 427.5,321.0 442.4,313.8 C457.3,306.5 464.8,288.6 479.7,283.6 C494.6,278.6 502.0,302.7 516.9,288.8 C531.8,274.9 539.2,229.1 554.1,213.9 C569.0,198.7 576.5,211.4 591.4,212.9 C606.3,214.3 613.7,207.7 628.6,221.2 C643.5,234.7 651.0,260.7 665.9,280.5 C680.8,300.2 688.2,320.4 703.1,320.0 C718.0,319.6 725.4,300.2 740.3,278.4 C755.2,256.6 762.7,222.2 777.6,210.8 C792.5,199.4 799.9,219.5 814.8,221.2 C829.7,222.9 837.2,222.9 852.1,219.1 C867.0,215.4 874.4,184.8 889.3,202.5 C904.2,220.2 911.7,305.4 926.6,307.5 C941.4,309.6 948.9,221.4 963.8,212.9 C978.7,204.4 986.1,243.5 1001.0,264.9 C1015.9,286.3 1023.4,352.9 1038.3,320.0 C1053.2,287.1 1060.6,130.7 1075.5,100.6 C1090.4,70.4 1097.9,127.2 1112.8,169.2 C1127.7,211.2 1142.6,282.4 1150.0,310.6 L 1150,320 L 70,320 Z" fill="#7a0f26" opacity=".13">
    <animate attributeName="opacity" values=".10;.17;.10" dur="6s" repeatCount="indefinite"/>
  </path>

  <!-- Neon curve -->
  <path id="curve" d="M70.0,221.2 C77.4,221.2 92.3,221.2 107.2,221.2 C122.1,221.2 129.6,221.2 144.5,221.2 C159.4,221.2 166.8,213.3 181.7,221.2 C196.6,229.1 204.1,260.1 219.0,260.7 C233.9,261.3 241.3,232.2 256.2,224.3 C271.1,216.4 278.6,221.6 293.4,221.2 C308.3,220.8 315.8,218.7 330.7,222.2 C345.6,225.8 353.0,219.3 367.9,238.9 C382.8,258.4 390.3,305.0 405.2,320.0 C420.1,335.0 427.5,321.0 442.4,313.8 C457.3,306.5 464.8,288.6 479.7,283.6 C494.6,278.6 502.0,302.7 516.9,288.8 C531.8,274.9 539.2,229.1 554.1,213.9 C569.0,198.7 576.5,211.4 591.4,212.9 C606.3,214.3 613.7,207.7 628.6,221.2 C643.5,234.7 651.0,260.7 665.9,280.5 C680.8,300.2 688.2,320.4 703.1,320.0 C718.0,319.6 725.4,300.2 740.3,278.4 C755.2,256.6 762.7,222.2 777.6,210.8 C792.5,199.4 799.9,219.5 814.8,221.2 C829.7,222.9 837.2,222.9 852.1,219.1 C867.0,215.4 874.4,184.8 889.3,202.5 C904.2,220.2 911.7,305.4 926.6,307.5 C941.4,309.6 948.9,221.4 963.8,212.9 C978.7,204.4 986.1,243.5 1001.0,264.9 C1015.9,286.3 1023.4,352.9 1038.3,320.0 C1053.2,287.1 1060.6,130.7 1075.5,100.6 C1090.4,70.4 1097.9,127.2 1112.8,169.2 C1127.7,211.2 1142.6,282.4 1150.0,310.6" fill="none" stroke="#c3193d" stroke-width="5"
        stroke-linecap="round" stroke-linejoin="round" stroke-dasharray="6 14" filter="url(#glow)">
    <animate attributeName="stroke-dashoffset" values="0;-220" dur="4.8s" repeatCount="indefinite"/>
  </path>

  <!-- Particles -->
  <g fill="#ffd1db">
    <circle r="4"><animateMotion dur="7s" rotate="auto" repeatCount="indefinite"><mpath href="#curve"/></animateMotion><animate attributeName="opacity" values="1;.3;1" dur="2.2s" repeatCount="indefinite"/></circle>
    <circle r="3" fill="#ffffff"><animateMotion dur="8.2s" begin="1s" rotate="auto" repeatCount="indefinite"><mpath href="#curve"/></animateMotion><animate attributeName="opacity" values=".7;.2;.7" dur="2.4s" repeatCount="indefinite"/></circle>
    <circle r="3" fill="#ffc7d3"><animateMotion dur="6s" begin="2s" rotate="auto" repeatCount="indefinite"><mpath href="#curve"/></animateMotion><animate attributeName="opacity" values=".8;.3;.8" dur="2s" repeatCount="indefinite"/></circle>
  </g>
</svg>