<?xml version="1.0" encoding="UTF-8"?>
<!-- build:2025-08-17T22:20:49.296Z user:statikfintechllc points:30 yMax:100 -->
<svg xmlns="http://www.w3.org/2000/svg" width="1200" height="420" viewBox="0 0 1200 420" role="img" aria-label="Contribution's Graph">
  <defs>
    <linearGradient id="bgGrad" x1="0" y1="0" x2="0" y2="1">
      <stop offset="0%" stop-color="#0a0d12"/><stop offset="100%" stop-color="#070a0d"/>
    </linearGradient>
    <filter id="glow"><feGaussianBlur stdDeviation="3" result="b1"/><feMerge><feMergeNode in="b1"/><feMergeNode in="SourceGraphic"/></feMerge></filter>
    <linearGradient id="sheen" x1="0" y1="0" x2="1" y2="0">
      <stop offset="0%" stop-color="#9b0e2a" stop-opacity="0"/>
      <stop offset="50%" stop-color="#9b0e2a" stop-opacity=".14"/>
      <stop offset="100%" stop-color="#9b0e2a" stop-opacity="0"/>
      <animateTransform attributeName="gradientTransform" type="translate" from="-1 0" to="1 0" dur="9s" repeatCount="indefinite"/>
    </linearGradient>
  </defs>

  <!-- BG -->
  <rect width="1200" height="420" fill="url(#bgGrad)"/>

  <!-- Plot frame -->
  <rect x="70" y="60" width="1080" height="260" fill="none" stroke="#121821" stroke-width="1"/>

  <!-- Y grid + labels -->
  <g font-family="ui-sans-serif,system-ui,-apple-system,Segoe UI,Roboto,Ubuntu,Arial" font-size="12">
    
      <path d="M70,320.0 H1150" stroke="#121821" stroke-width="1" opacity="0.6"/>
      <text x="60" y="324.0" text-anchor="end" fill="#ea384c">0</text>
    
      <path d="M70,268.0 H1150" stroke="#121821" stroke-width="1" opacity="0.6"/>
      <text x="60" y="272.0" text-anchor="end" fill="#ea384c">20</text>
    
      <path d="M70,216.0 H1150" stroke="#121821" stroke-width="1" opacity="0.6"/>
      <text x="60" y="220.0" text-anchor="end" fill="#ea384c">40</text>
    
      <path d="M70,164.0 H1150" stroke="#121821" stroke-width="1" opacity="0.6"/>
      <text x="60" y="168.0" text-anchor="end" fill="#ea384c">60</text>
    
      <path d="M70,112.0 H1150" stroke="#121821" stroke-width="1" opacity="0.6"/>
      <text x="60" y="116.0" text-anchor="end" fill="#ea384c">80</text>
    
      <path d="M70,60.0 H1150" stroke="#121821" stroke-width="1" opacity="0.6"/>
      <text x="60" y="64.0" text-anchor="end" fill="#ea384c">100</text>
    
    <text x="30" y="44" fill="#ea384c" font-size="13">Contributions</text>
  </g>

  <!-- X ticks + labels -->
  <g font-family="ui-sans-serif,system-ui,-apple-system,Segoe UI,Roboto,Ubuntu,Arial" font-size="12">
    
      <path d="M70.0,320 V326" stroke="#121821" stroke-width="1"/>
      <text x="70.0" y="340" text-anchor="middle" fill="#ea384c">7/19</text>
    
      <path d="M256.2,320 V326" stroke="#121821" stroke-width="1"/>
      <text x="256.2" y="340" text-anchor="middle" fill="#ea384c">7/24</text>
    
      <path d="M442.4,320 V326" stroke="#121821" stroke-width="1"/>
      <text x="442.4" y="340" text-anchor="middle" fill="#ea384c">7/29</text>
    
      <path d="M628.6,320 V326" stroke="#121821" stroke-width="1"/>
      <text x="628.6" y="340" text-anchor="middle" fill="#ea384c">8/3</text>
    
      <path d="M814.8,320 V326" stroke="#121821" stroke-width="1"/>
      <text x="814.8" y="340" text-anchor="middle" fill="#ea384c">8/8</text>
    
      <path d="M1001.0,320 V326" stroke="#121821" stroke-width="1"/>
      <text x="1001.0" y="340" text-anchor="middle" fill="#ea384c">8/13</text>
    
      <path d="M1150.0,320 V326" stroke="#121821" stroke-width="1"/>
      <text x="1150.0" y="340" text-anchor="middle" fill="#ea384c">8/17</text>
    
    <text x="610" y="358" text-anchor="middle" fill="#ea384c" font-size="13">Last 30 days</text>
  </g>

  <!-- Fancy sheen over plot area -->
  <rect x="70" y="60" width="1080" height="260" fill="url(#sheen)"/>

  <!-- Title -->
  <text x="600" y="40" text-anchor="middle"
        font-family="ui-sans-serif,system-ui,-apple-system,Segoe UI,Roboto,Ubuntu,Arial"
        font-size="22" fill="#ea384c" opacity=".95">Statik DK Smoke’s Contribution's</text>

  <!-- Area under curve -->
  <path d="M70.0,288.8 C77.4,281.5 92.3,249.3 107.2,252.4 C122.1,255.5 129.6,300.8 144.5,304.4 C159.4,308.0 166.8,276.3 181.7,270.6 C196.6,264.9 204.1,266.4 219.0,275.8 C233.9,285.2 241.3,313.2 256.2,317.4 C271.1,321.6 278.6,313.2 293.4,296.6 C308.3,280.0 315.8,235.8 330.7,234.2 C345.6,232.6 353.0,275.3 367.9,288.8 C382.8,302.3 390.3,303.4 405.2,301.8 C420.1,300.2 427.5,280.5 442.4,281.0 C457.3,281.5 464.8,299.7 479.7,304.4 C494.6,309.1 502.0,305.4 516.9,304.4 C531.8,303.4 539.2,296.1 554.1,299.2 C569.0,302.3 576.5,325.2 591.4,320.0 C606.3,314.8 613.7,286.7 628.6,273.2 C643.5,259.7 651.0,243.6 665.9,252.4 C680.8,261.2 688.2,305.4 703.1,317.4 C718.0,329.4 725.4,324.7 740.3,312.2 C755.2,299.7 762.7,253.4 777.6,255.0 C792.5,256.6 799.9,308.0 814.8,320.0 C829.7,332.0 837.2,333.5 852.1,314.8 C867.0,296.1 874.4,235.8 889.3,226.4 C904.2,217.0 911.7,298.7 926.6,268.0 C941.4,237.3 948.9,70.9 963.8,73.0 C978.7,75.1 986.1,229.5 1001.0,278.4 C1015.9,327.3 1023.4,355.9 1038.3,317.4 C1053.2,278.9 1060.6,109.4 1075.5,86.0 C1090.4,62.6 1097.9,165.6 1112.8,200.4 C1127.7,235.2 1142.6,248.2 1150.0,260.2 L 1150,320 L 70,320 Z" fill="#7a0f26" opacity=".13">
    <animate attributeName="opacity" values=".10;.17;.10" dur="6s" repeatCount="indefinite"/>
  </path>

  <!-- Neon curve -->
  <path id="curve" d="M70.0,288.8 C77.4,281.5 92.3,249.3 107.2,252.4 C122.1,255.5 129.6,300.8 144.5,304.4 C159.4,308.0 166.8,276.3 181.7,270.6 C196.6,264.9 204.1,266.4 219.0,275.8 C233.9,285.2 241.3,313.2 256.2,317.4 C271.1,321.6 278.6,313.2 293.4,296.6 C308.3,280.0 315.8,235.8 330.7,234.2 C345.6,232.6 353.0,275.3 367.9,288.8 C382.8,302.3 390.3,303.4 405.2,301.8 C420.1,300.2 427.5,280.5 442.4,281.0 C457.3,281.5 464.8,299.7 479.7,304.4 C494.6,309.1 502.0,305.4 516.9,304.4 C531.8,303.4 539.2,296.1 554.1,299.2 C569.0,302.3 576.5,325.2 591.4,320.0 C606.3,314.8 613.7,286.7 628.6,273.2 C643.5,259.7 651.0,243.6 665.9,252.4 C680.8,261.2 688.2,305.4 703.1,317.4 C718.0,329.4 725.4,324.7 740.3,312.2 C755.2,299.7 762.7,253.4 777.6,255.0 C792.5,256.6 799.9,308.0 814.8,320.0 C829.7,332.0 837.2,333.5 852.1,314.8 C867.0,296.1 874.4,235.8 889.3,226.4 C904.2,217.0 911.7,298.7 926.6,268.0 C941.4,237.3 948.9,70.9 963.8,73.0 C978.7,75.1 986.1,229.5 1001.0,278.4 C1015.9,327.3 1023.4,355.9 1038.3,317.4 C1053.2,278.9 1060.6,109.4 1075.5,86.0 C1090.4,62.6 1097.9,165.6 1112.8,200.4 C1127.7,235.2 1142.6,248.2 1150.0,260.2" fill="none" stroke="#c3193d" stroke-width="5"
        stroke-linecap="round" stroke-linejoin="round" stroke-dasharray="6 14" filter="url(#glow)">
    <animate attributeName="stroke-dashoffset" values="0;-220" dur="4.8s" repeatCount="indefinite"/>
  </path>

  <!-- Particles -->
  <g fill="#ffd1db">
    <circle r="4"><animateMotion dur="7s" rotate="auto" repeatCount="indefinite"><mpath href="#curve"/></animateMotion><animate attributeName="opacity" values="1;.3;1" dur="2.2s" repeatCount="indefinite"/></circle>
    <circle r="3" fill="#ffffff"><animateMotion dur="8.2s" begin="1s" rotate="auto" repeatCount="indefinite"><mpath href="#curve"/></animateMotion><animate attributeName="opacity" values=".7;.2;.7" dur="2.4s" repeatCount="indefinite"/></circle>
    <circle r="3" fill="#ffc7d3"><animateMotion dur="6s" begin="2s" rotate="auto" repeatCount="indefinite"><mpath href="#curve"/></animateMotion><animate attributeName="opacity" values=".8;.3;.8" dur="2s" repeatCount="indefinite"/></circle>
  </g>
</svg>