<?xml version="1.0" encoding="UTF-8"?>
<!-- build:2025-09-11T12:48:41.423Z user:statikfintechllc points:30 yMax:150 -->
<svg xmlns="http://www.w3.org/2000/svg" width="1200" height="420" viewBox="0 0 1200 420" role="img" aria-label="Contribution's Graph">
  <defs>
    <linearGradient id="bgGrad" x1="0" y1="0" x2="0" y2="1">
      <stop offset="0%" stop-color="#0a0d12"/><stop offset="100%" stop-color="#070a0d"/>
    </linearGradient>
    <filter id="glow"><feGaussianBlur stdDeviation="3" result="b1"/><feMerge><feMergeNode in="b1"/><feMergeNode in="SourceGraphic"/></feMerge></filter>
    <linearGradient id="sheen" x1="0" y1="0" x2="1" y2="0">
      <stop offset="0%" stop-color="#9b0e2a" stop-opacity="0"/>
      <stop offset="50%" stop-color="#9b0e2a" stop-opacity=".14"/>
      <stop offset="100%" stop-color="#9b0e2a" stop-opacity="0"/>
      <animateTransform attributeName="gradientTransform" type="translate" from="-1 0" to="1 0" dur="9s" repeatCount="indefinite"/>
    </linearGradient>
  </defs>

  <!-- BG -->
  <rect width="1200" height="420" fill="url(#bgGrad)"/>

  <!-- Plot frame -->
  <rect x="70" y="60" width="1080" height="260" fill="none" stroke="#121821" stroke-width="1"/>

  <!-- Y grid + labels -->
  <g font-family="ui-sans-serif,system-ui,-apple-system,Segoe UI,Roboto,Ubuntu,Arial" font-size="12">
    
      <path d="M70,320.0 H1150" stroke="#121821" stroke-width="1" opacity="0.6"/>
      <text x="60" y="324.0" text-anchor="end" fill="#ea384c">0</text>
    
      <path d="M70,233.3 H1150" stroke="#121821" stroke-width="1" opacity="0.6"/>
      <text x="60" y="237.3" text-anchor="end" fill="#ea384c">50</text>
    
      <path d="M70,146.7 H1150" stroke="#121821" stroke-width="1" opacity="0.6"/>
      <text x="60" y="150.7" text-anchor="end" fill="#ea384c">100</text>
    
      <path d="M70,60.0 H1150" stroke="#121821" stroke-width="1" opacity="0.6"/>
      <text x="60" y="64.0" text-anchor="end" fill="#ea384c">150</text>
    
    <text x="30" y="44" fill="#ea384c" font-size="13">Contributions</text>
  </g>

  <!-- X ticks + labels -->
  <g font-family="ui-sans-serif,system-ui,-apple-system,Segoe UI,Roboto,Ubuntu,Arial" font-size="12">
    
      <path d="M70.0,320 V326" stroke="#121821" stroke-width="1"/>
      <text x="70.0" y="340" text-anchor="middle" fill="#ea384c">8/13</text>
    
      <path d="M256.2,320 V326" stroke="#121821" stroke-width="1"/>
      <text x="256.2" y="340" text-anchor="middle" fill="#ea384c">8/18</text>
    
      <path d="M442.4,320 V326" stroke="#121821" stroke-width="1"/>
      <text x="442.4" y="340" text-anchor="middle" fill="#ea384c">8/23</text>
    
      <path d="M628.6,320 V326" stroke="#121821" stroke-width="1"/>
      <text x="628.6" y="340" text-anchor="middle" fill="#ea384c">8/28</text>
    
      <path d="M814.8,320 V326" stroke="#121821" stroke-width="1"/>
      <text x="814.8" y="340" text-anchor="middle" fill="#ea384c">9/2</text>
    
      <path d="M1001.0,320 V326" stroke="#121821" stroke-width="1"/>
      <text x="1001.0" y="340" text-anchor="middle" fill="#ea384c">9/7</text>
    
      <path d="M1150.0,320 V326" stroke="#121821" stroke-width="1"/>
      <text x="1150.0" y="340" text-anchor="middle" fill="#ea384c">9/11</text>
    
    <text x="610" y="358" text-anchor="middle" fill="#ea384c" font-size="13">Last 30 days</text>
  </g>

  <!-- Fancy sheen over plot area -->
  <rect x="70" y="60" width="1080" height="260" fill="url(#sheen)"/>

  <!-- Title -->
  <text x="600" y="40" text-anchor="middle"
        font-family="ui-sans-serif,system-ui,-apple-system,Segoe UI,Roboto,Ubuntu,Arial"
        font-size="22" fill="#ea384c" opacity=".95">Statik DK Smoke’s Contribution's</text>

  <!-- Area under curve -->
  <path d="M70.0,292.3 C77.4,297.5 92.3,343.9 107.2,318.3 C122.1,292.6 129.6,179.6 144.5,164.0 C159.4,148.4 166.8,226.1 181.7,240.3 C196.6,254.5 204.1,230.2 219.0,235.1 C233.9,239.9 241.3,247.5 256.2,264.5 C271.1,281.5 278.6,308.9 293.4,320.0 C308.3,331.1 315.8,320.0 330.7,320.0 C345.6,320.0 353.0,320.7 367.9,320.0 C382.8,319.3 390.3,320.0 405.2,316.5 C420.1,313.1 427.5,306.8 442.4,302.7 C457.3,298.5 464.8,293.0 479.7,295.7 C494.6,298.5 502.0,313.4 516.9,316.5 C531.8,319.7 539.2,312.4 554.1,311.3 C569.0,310.3 576.5,335.6 591.4,311.3 C606.3,287.1 613.7,191.4 628.6,190.0 C643.5,188.6 651.0,281.2 665.9,304.4 C680.8,327.6 688.2,319.3 703.1,306.1 C718.0,293.0 725.4,239.2 740.3,238.5 C755.2,237.8 762.7,286.4 777.6,302.7 C792.5,319.0 799.9,316.5 814.8,320.0 C829.7,323.5 837.2,321.4 852.1,320.0 C867.0,318.6 874.4,314.8 889.3,313.1 C904.2,311.3 911.7,309.9 926.6,311.3 C941.4,312.7 948.9,354.3 963.8,320.0 C978.7,285.7 986.1,150.1 1001.0,139.7 C1015.9,129.3 1023.4,235.1 1038.3,268.0 C1053.2,300.9 1060.6,299.9 1075.5,304.4 C1090.4,308.9 1097.9,287.4 1112.8,290.5 C1127.7,293.7 1142.6,314.1 1150.0,320.0 L 1150,320 L 70,320 Z" fill="#7a0f26" opacity=".13">
    <animate attributeName="opacity" values=".10;.17;.10" dur="6s" repeatCount="indefinite"/>
  </path>

  <!-- Neon curve -->
  <path id="curve" d="M70.0,292.3 C77.4,297.5 92.3,343.9 107.2,318.3 C122.1,292.6 129.6,179.6 144.5,164.0 C159.4,148.4 166.8,226.1 181.7,240.3 C196.6,254.5 204.1,230.2 219.0,235.1 C233.9,239.9 241.3,247.5 256.2,264.5 C271.1,281.5 278.6,308.9 293.4,320.0 C308.3,331.1 315.8,320.0 330.7,320.0 C345.6,320.0 353.0,320.7 367.9,320.0 C382.8,319.3 390.3,320.0 405.2,316.5 C420.1,313.1 427.5,306.8 442.4,302.7 C457.3,298.5 464.8,293.0 479.7,295.7 C494.6,298.5 502.0,313.4 516.9,316.5 C531.8,319.7 539.2,312.4 554.1,311.3 C569.0,310.3 576.5,335.6 591.4,311.3 C606.3,287.1 613.7,191.4 628.6,190.0 C643.5,188.6 651.0,281.2 665.9,304.4 C680.8,327.6 688.2,319.3 703.1,306.1 C718.0,293.0 725.4,239.2 740.3,238.5 C755.2,237.8 762.7,286.4 777.6,302.7 C792.5,319.0 799.9,316.5 814.8,320.0 C829.7,323.5 837.2,321.4 852.1,320.0 C867.0,318.6 874.4,314.8 889.3,313.1 C904.2,311.3 911.7,309.9 926.6,311.3 C941.4,312.7 948.9,354.3 963.8,320.0 C978.7,285.7 986.1,150.1 1001.0,139.7 C1015.9,129.3 1023.4,235.1 1038.3,268.0 C1053.2,300.9 1060.6,299.9 1075.5,304.4 C1090.4,308.9 1097.9,287.4 1112.8,290.5 C1127.7,293.7 1142.6,314.1 1150.0,320.0" fill="none" stroke="#c3193d" stroke-width="5"
        stroke-linecap="round" stroke-linejoin="round" stroke-dasharray="6 14" filter="url(#glow)">
    <animate attributeName="stroke-dashoffset" values="0;-220" dur="4.8s" repeatCount="indefinite"/>
  </path>

  <!-- Particles -->
  <g fill="#ffd1db">
    <circle r="4"><animateMotion dur="7s" rotate="auto" repeatCount="indefinite"><mpath href="#curve"/></animateMotion><animate attributeName="opacity" values="1;.3;1" dur="2.2s" repeatCount="indefinite"/></circle>
    <circle r="3" fill="#ffffff"><animateMotion dur="8.2s" begin="1s" rotate="auto" repeatCount="indefinite"><mpath href="#curve"/></animateMotion><animate attributeName="opacity" values=".7;.2;.7" dur="2.4s" repeatCount="indefinite"/></circle>
    <circle r="3" fill="#ffc7d3"><animateMotion dur="6s" begin="2s" rotate="auto" repeatCount="indefinite"><mpath href="#curve"/></animateMotion><animate attributeName="opacity" values=".8;.3;.8" dur="2s" repeatCount="indefinite"/></circle>
  </g>
</svg>