<?xml version="1.0" encoding="UTF-8"?>
<!-- build:2026-07-25T03:21:43.082Z user:statikfintechllc points:30 yMax:150 -->
<svg xmlns="http://www.w3.org/2000/svg" width="1200" height="420" viewBox="0 0 1200 420" role="img" aria-label="Contribution's Graph">
  <defs>
    <linearGradient id="bgGrad" x1="0" y1="0" x2="0" y2="1">
      <stop offset="0%" stop-color="#0a0d12"/><stop offset="100%" stop-color="#070a0d"/>
    </linearGradient>
    <filter id="glow"><feGaussianBlur stdDeviation="3" result="b1"/><feMerge><feMergeNode in="b1"/><feMergeNode in="SourceGraphic"/></feMerge></filter>
    <linearGradient id="sheen" x1="0" y1="0" x2="1" y2="0">
      <stop offset="0%" stop-color="#9b0e2a" stop-opacity="0"/>
      <stop offset="50%" stop-color="#9b0e2a" stop-opacity=".14"/>
      <stop offset="100%" stop-color="#9b0e2a" stop-opacity="0"/>
      <animateTransform attributeName="gradientTransform" type="translate" from="-1 0" to="1 0" dur="9s" repeatCount="indefinite"/>
    </linearGradient>
  </defs>

  <!-- BG -->
  <rect width="1200" height="420" fill="url(#bgGrad)"/>

  <!-- Plot frame -->
  <rect x="70" y="60" width="1080" height="260" fill="none" stroke="#121821" stroke-width="1"/>

  <!-- Y grid + labels -->
  <g font-family="ui-sans-serif,system-ui,-apple-system,Segoe UI,Roboto,Ubuntu,Arial" font-size="12">
    
      <path d="M70,320.0 H1150" stroke="#121821" stroke-width="1" opacity="0.6"/>
      <text x="60" y="324.0" text-anchor="end" fill="#ea384c">0</text>
    
      <path d="M70,233.3 H1150" stroke="#121821" stroke-width="1" opacity="0.6"/>
      <text x="60" y="237.3" text-anchor="end" fill="#ea384c">50</text>
    
      <path d="M70,146.7 H1150" stroke="#121821" stroke-width="1" opacity="0.6"/>
      <text x="60" y="150.7" text-anchor="end" fill="#ea384c">100</text>
    
      <path d="M70,60.0 H1150" stroke="#121821" stroke-width="1" opacity="0.6"/>
      <text x="60" y="64.0" text-anchor="end" fill="#ea384c">150</text>
    
    <text x="30" y="44" fill="#ea384c" font-size="13">Contributions</text>
  </g>

  <!-- X ticks + labels -->
  <g font-family="ui-sans-serif,system-ui,-apple-system,Segoe UI,Roboto,Ubuntu,Arial" font-size="12">
    
      <path d="M70.0,320 V326" stroke="#121821" stroke-width="1"/>
      <text x="70.0" y="340" text-anchor="middle" fill="#ea384c">6/26</text>
    
      <path d="M256.2,320 V326" stroke="#121821" stroke-width="1"/>
      <text x="256.2" y="340" text-anchor="middle" fill="#ea384c">7/1</text>
    
      <path d="M442.4,320 V326" stroke="#121821" stroke-width="1"/>
      <text x="442.4" y="340" text-anchor="middle" fill="#ea384c">7/6</text>
    
      <path d="M628.6,320 V326" stroke="#121821" stroke-width="1"/>
      <text x="628.6" y="340" text-anchor="middle" fill="#ea384c">7/11</text>
    
      <path d="M814.8,320 V326" stroke="#121821" stroke-width="1"/>
      <text x="814.8" y="340" text-anchor="middle" fill="#ea384c">7/16</text>
    
      <path d="M1001.0,320 V326" stroke="#121821" stroke-width="1"/>
      <text x="1001.0" y="340" text-anchor="middle" fill="#ea384c">7/21</text>
    
      <path d="M1150.0,320 V326" stroke="#121821" stroke-width="1"/>
      <text x="1150.0" y="340" text-anchor="middle" fill="#ea384c">7/25</text>
    
    <text x="610" y="358" text-anchor="middle" fill="#ea384c" font-size="13">Last 30 days</text>
  </g>

  <!-- Fancy sheen over plot area -->
  <rect x="70" y="60" width="1080" height="260" fill="url(#sheen)"/>

  <!-- Title -->
  <text x="600" y="40" text-anchor="middle"
        font-family="ui-sans-serif,system-ui,-apple-system,Segoe UI,Roboto,Ubuntu,Arial"
        font-size="22" fill="#ea384c" opacity=".95">Statik DK Smoke’s Contribution's</text>

  <!-- Area under curve -->
  <path d="M70.0,151.9 C77.4,142.9 92.3,112.3 107.2,106.8 C122.1,101.3 129.6,119.6 144.5,124.1 C159.4,128.6 166.8,123.1 181.7,129.3 C196.6,135.6 204.1,150.1 219.0,155.3 C233.9,160.5 241.3,155.3 256.2,155.3 C271.1,155.3 278.6,155.3 293.4,155.3 C308.3,155.3 315.8,155.3 330.7,155.3 C345.6,155.3 353.0,155.3 367.9,155.3 C382.8,155.3 390.3,142.2 405.2,155.3 C420.1,168.5 427.5,220.2 442.4,221.2 C457.3,222.2 464.8,173.7 479.7,160.5 C494.6,147.4 502.0,156.0 516.9,155.3 C531.8,154.6 539.2,151.2 554.1,157.1 C569.0,163.0 576.5,152.2 591.4,184.8 C606.3,217.4 613.7,295.0 628.6,320.0 C643.5,345.0 651.0,321.7 665.9,309.6 C680.8,297.5 688.2,267.7 703.1,259.3 C718.0,251.0 725.4,291.2 740.3,268.0 C755.2,244.8 762.7,168.5 777.6,143.2 C792.5,117.9 799.9,139.0 814.8,141.5 C829.7,143.9 837.2,132.8 852.1,155.3 C867.0,177.9 874.4,221.2 889.3,254.1 C904.2,287.1 911.7,320.7 926.6,320.0 C941.4,319.3 948.9,287.1 963.8,250.7 C978.7,214.3 986.1,157.1 1001.0,138.0 C1015.9,118.9 1023.4,152.6 1038.3,155.3 C1053.2,158.1 1060.6,152.2 1075.5,151.9 C1090.4,151.5 1097.9,120.0 1112.8,153.6 C1127.7,187.2 1142.6,286.7 1150.0,320.0 L 1150,320 L 70,320 Z" fill="#7a0f26" opacity=".13">
    <animate attributeName="opacity" values=".10;.17;.10" dur="6s" repeatCount="indefinite"/>
  </path>

  <!-- Neon curve -->
  <path id="curve" d="M70.0,151.9 C77.4,142.9 92.3,112.3 107.2,106.8 C122.1,101.3 129.6,119.6 144.5,124.1 C159.4,128.6 166.8,123.1 181.7,129.3 C196.6,135.6 204.1,150.1 219.0,155.3 C233.9,160.5 241.3,155.3 256.2,155.3 C271.1,155.3 278.6,155.3 293.4,155.3 C308.3,155.3 315.8,155.3 330.7,155.3 C345.6,155.3 353.0,155.3 367.9,155.3 C382.8,155.3 390.3,142.2 405.2,155.3 C420.1,168.5 427.5,220.2 442.4,221.2 C457.3,222.2 464.8,173.7 479.7,160.5 C494.6,147.4 502.0,156.0 516.9,155.3 C531.8,154.6 539.2,151.2 554.1,157.1 C569.0,163.0 576.5,152.2 591.4,184.8 C606.3,217.4 613.7,295.0 628.6,320.0 C643.5,345.0 651.0,321.7 665.9,309.6 C680.8,297.5 688.2,267.7 703.1,259.3 C718.0,251.0 725.4,291.2 740.3,268.0 C755.2,244.8 762.7,168.5 777.6,143.2 C792.5,117.9 799.9,139.0 814.8,141.5 C829.7,143.9 837.2,132.8 852.1,155.3 C867.0,177.9 874.4,221.2 889.3,254.1 C904.2,287.1 911.7,320.7 926.6,320.0 C941.4,319.3 948.9,287.1 963.8,250.7 C978.7,214.3 986.1,157.1 1001.0,138.0 C1015.9,118.9 1023.4,152.6 1038.3,155.3 C1053.2,158.1 1060.6,152.2 1075.5,151.9 C1090.4,151.5 1097.9,120.0 1112.8,153.6 C1127.7,187.2 1142.6,286.7 1150.0,320.0" fill="none" stroke="#c3193d" stroke-width="5"
        stroke-linecap="round" stroke-linejoin="round" stroke-dasharray="6 14" filter="url(#glow)">
    <animate attributeName="stroke-dashoffset" values="0;-220" dur="4.8s" repeatCount="indefinite"/>
  </path>

  <!-- Particles -->
  <g fill="#ffd1db">
    <circle r="4"><animateMotion dur="7s" rotate="auto" repeatCount="indefinite"><mpath href="#curve"/></animateMotion><animate attributeName="opacity" values="1;.3;1" dur="2.2s" repeatCount="indefinite"/></circle>
    <circle r="3" fill="#ffffff"><animateMotion dur="8.2s" begin="1s" rotate="auto" repeatCount="indefinite"><mpath href="#curve"/></animateMotion><animate attributeName="opacity" values=".7;.2;.7" dur="2.4s" repeatCount="indefinite"/></circle>
    <circle r="3" fill="#ffc7d3"><animateMotion dur="6s" begin="2s" rotate="auto" repeatCount="indefinite"><mpath href="#curve"/></animateMotion><animate attributeName="opacity" values=".8;.3;.8" dur="2s" repeatCount="indefinite"/></circle>
  </g>
</svg>