<?xml version="1.0" encoding="UTF-8"?>
<!-- build:2025-10-27T12:13:46.734Z user:statikfintechllc points:30 yMax:100 -->
<svg xmlns="http://www.w3.org/2000/svg" width="1200" height="420" viewBox="0 0 1200 420" role="img" aria-label="Contribution's Graph">
  <defs>
    <linearGradient id="bgGrad" x1="0" y1="0" x2="0" y2="1">
      <stop offset="0%" stop-color="#0a0d12"/><stop offset="100%" stop-color="#070a0d"/>
    </linearGradient>
    <filter id="glow"><feGaussianBlur stdDeviation="3" result="b1"/><feMerge><feMergeNode in="b1"/><feMergeNode in="SourceGraphic"/></feMerge></filter>
    <linearGradient id="sheen" x1="0" y1="0" x2="1" y2="0">
      <stop offset="0%" stop-color="#9b0e2a" stop-opacity="0"/>
      <stop offset="50%" stop-color="#9b0e2a" stop-opacity=".14"/>
      <stop offset="100%" stop-color="#9b0e2a" stop-opacity="0"/>
      <animateTransform attributeName="gradientTransform" type="translate" from="-1 0" to="1 0" dur="9s" repeatCount="indefinite"/>
    </linearGradient>
  </defs>

  <!-- BG -->
  <rect width="1200" height="420" fill="url(#bgGrad)"/>

  <!-- Plot frame -->
  <rect x="70" y="60" width="1080" height="260" fill="none" stroke="#121821" stroke-width="1"/>

  <!-- Y grid + labels -->
  <g font-family="ui-sans-serif,system-ui,-apple-system,Segoe UI,Roboto,Ubuntu,Arial" font-size="12">
    
      <path d="M70,320.0 H1150" stroke="#121821" stroke-width="1" opacity="0.6"/>
      <text x="60" y="324.0" text-anchor="end" fill="#ea384c">0</text>
    
      <path d="M70,268.0 H1150" stroke="#121821" stroke-width="1" opacity="0.6"/>
      <text x="60" y="272.0" text-anchor="end" fill="#ea384c">20</text>
    
      <path d="M70,216.0 H1150" stroke="#121821" stroke-width="1" opacity="0.6"/>
      <text x="60" y="220.0" text-anchor="end" fill="#ea384c">40</text>
    
      <path d="M70,164.0 H1150" stroke="#121821" stroke-width="1" opacity="0.6"/>
      <text x="60" y="168.0" text-anchor="end" fill="#ea384c">60</text>
    
      <path d="M70,112.0 H1150" stroke="#121821" stroke-width="1" opacity="0.6"/>
      <text x="60" y="116.0" text-anchor="end" fill="#ea384c">80</text>
    
      <path d="M70,60.0 H1150" stroke="#121821" stroke-width="1" opacity="0.6"/>
      <text x="60" y="64.0" text-anchor="end" fill="#ea384c">100</text>
    
    <text x="30" y="44" fill="#ea384c" font-size="13">Contributions</text>
  </g>

  <!-- X ticks + labels -->
  <g font-family="ui-sans-serif,system-ui,-apple-system,Segoe UI,Roboto,Ubuntu,Arial" font-size="12">
    
      <path d="M70.0,320 V326" stroke="#121821" stroke-width="1"/>
      <text x="70.0" y="340" text-anchor="middle" fill="#ea384c">9/28</text>
    
      <path d="M256.2,320 V326" stroke="#121821" stroke-width="1"/>
      <text x="256.2" y="340" text-anchor="middle" fill="#ea384c">10/3</text>
    
      <path d="M442.4,320 V326" stroke="#121821" stroke-width="1"/>
      <text x="442.4" y="340" text-anchor="middle" fill="#ea384c">10/8</text>
    
      <path d="M628.6,320 V326" stroke="#121821" stroke-width="1"/>
      <text x="628.6" y="340" text-anchor="middle" fill="#ea384c">10/13</text>
    
      <path d="M814.8,320 V326" stroke="#121821" stroke-width="1"/>
      <text x="814.8" y="340" text-anchor="middle" fill="#ea384c">10/18</text>
    
      <path d="M1001.0,320 V326" stroke="#121821" stroke-width="1"/>
      <text x="1001.0" y="340" text-anchor="middle" fill="#ea384c">10/23</text>
    
      <path d="M1150.0,320 V326" stroke="#121821" stroke-width="1"/>
      <text x="1150.0" y="340" text-anchor="middle" fill="#ea384c">10/27</text>
    
    <text x="610" y="358" text-anchor="middle" fill="#ea384c" font-size="13">Last 30 days</text>
  </g>

  <!-- Fancy sheen over plot area -->
  <rect x="70" y="60" width="1080" height="260" fill="url(#sheen)"/>

  <!-- Title -->
  <text x="600" y="40" text-anchor="middle"
        font-family="ui-sans-serif,system-ui,-apple-system,Segoe UI,Roboto,Ubuntu,Arial"
        font-size="22" fill="#ea384c" opacity=".95">Statik DK Smoke’s Contribution's</text>

  <!-- Area under curve -->
  <path d="M70.0,314.8 C77.4,310.1 92.3,290.4 107.2,291.4 C122.1,292.4 129.6,314.3 144.5,320.0 C159.4,325.7 166.8,320.0 181.7,320.0 C196.6,320.0 204.1,320.0 219.0,320.0 C233.9,320.0 241.3,320.0 256.2,320.0 C271.1,320.0 278.6,320.0 293.4,320.0 C308.3,320.0 315.8,322.6 330.7,320.0 C345.6,317.4 353.0,308.6 367.9,307.0 C382.8,305.4 390.3,309.6 405.2,312.2 C420.1,314.8 427.5,318.4 442.4,320.0 C457.3,321.6 464.8,320.0 479.7,320.0 C494.6,320.0 502.0,324.2 516.9,320.0 C531.8,315.8 539.2,320.0 554.1,299.2 C569.0,278.4 576.5,222.8 591.4,216.0 C606.3,209.2 613.7,251.4 628.6,265.4 C643.5,279.4 651.0,283.6 665.9,286.2 C680.8,288.8 688.2,284.6 703.1,278.4 C718.0,272.2 725.4,272.7 740.3,255.0 C755.2,237.3 762.7,194.2 777.6,190.0 C792.5,185.8 799.9,258.6 814.8,234.2 C829.7,209.8 837.2,69.4 852.1,67.8 C867.0,66.2 874.4,184.8 889.3,226.4 C904.2,268.0 911.7,264.4 926.6,275.8 C941.4,287.2 948.9,288.8 963.8,283.6 C978.7,278.4 986.1,249.3 1001.0,249.8 C1015.9,250.3 1023.4,275.8 1038.3,286.2 C1053.2,296.6 1060.6,303.4 1075.5,301.8 C1090.4,300.2 1097.9,275.3 1112.8,278.4 C1127.7,281.5 1142.6,309.6 1150.0,317.4 L 1150,320 L 70,320 Z" fill="#7a0f26" opacity=".13">
    <animate attributeName="opacity" values=".10;.17;.10" dur="6s" repeatCount="indefinite"/>
  </path>

  <!-- Neon curve -->
  <path id="curve" d="M70.0,314.8 C77.4,310.1 92.3,290.4 107.2,291.4 C122.1,292.4 129.6,314.3 144.5,320.0 C159.4,325.7 166.8,320.0 181.7,320.0 C196.6,320.0 204.1,320.0 219.0,320.0 C233.9,320.0 241.3,320.0 256.2,320.0 C271.1,320.0 278.6,320.0 293.4,320.0 C308.3,320.0 315.8,322.6 330.7,320.0 C345.6,317.4 353.0,308.6 367.9,307.0 C382.8,305.4 390.3,309.6 405.2,312.2 C420.1,314.8 427.5,318.4 442.4,320.0 C457.3,321.6 464.8,320.0 479.7,320.0 C494.6,320.0 502.0,324.2 516.9,320.0 C531.8,315.8 539.2,320.0 554.1,299.2 C569.0,278.4 576.5,222.8 591.4,216.0 C606.3,209.2 613.7,251.4 628.6,265.4 C643.5,279.4 651.0,283.6 665.9,286.2 C680.8,288.8 688.2,284.6 703.1,278.4 C718.0,272.2 725.4,272.7 740.3,255.0 C755.2,237.3 762.7,194.2 777.6,190.0 C792.5,185.8 799.9,258.6 814.8,234.2 C829.7,209.8 837.2,69.4 852.1,67.8 C867.0,66.2 874.4,184.8 889.3,226.4 C904.2,268.0 911.7,264.4 926.6,275.8 C941.4,287.2 948.9,288.8 963.8,283.6 C978.7,278.4 986.1,249.3 1001.0,249.8 C1015.9,250.3 1023.4,275.8 1038.3,286.2 C1053.2,296.6 1060.6,303.4 1075.5,301.8 C1090.4,300.2 1097.9,275.3 1112.8,278.4 C1127.7,281.5 1142.6,309.6 1150.0,317.4" fill="none" stroke="#c3193d" stroke-width="5"
        stroke-linecap="round" stroke-linejoin="round" stroke-dasharray="6 14" filter="url(#glow)">
    <animate attributeName="stroke-dashoffset" values="0;-220" dur="4.8s" repeatCount="indefinite"/>
  </path>

  <!-- Particles -->
  <g fill="#ffd1db">
    <circle r="4"><animateMotion dur="7s" rotate="auto" repeatCount="indefinite"><mpath href="#curve"/></animateMotion><animate attributeName="opacity" values="1;.3;1" dur="2.2s" repeatCount="indefinite"/></circle>
    <circle r="3" fill="#ffffff"><animateMotion dur="8.2s" begin="1s" rotate="auto" repeatCount="indefinite"><mpath href="#curve"/></animateMotion><animate attributeName="opacity" values=".7;.2;.7" dur="2.4s" repeatCount="indefinite"/></circle>
    <circle r="3" fill="#ffc7d3"><animateMotion dur="6s" begin="2s" rotate="auto" repeatCount="indefinite"><mpath href="#curve"/></animateMotion><animate attributeName="opacity" values=".8;.3;.8" dur="2s" repeatCount="indefinite"/></circle>
  </g>
</svg>