<?xml version="1.0" encoding="UTF-8"?>
<!-- build:2025-08-12T16:46:31.330Z user:statikfintechllc points:30 yMax:40 -->
<svg xmlns="http://www.w3.org/2000/svg" width="1200" height="420" viewBox="0 0 1200 420" role="img" aria-label="Crimson Flow Graph">
  <defs>
    <linearGradient id="bgGrad" x1="0" y1="0" x2="0" y2="1">
      <stop offset="0%" stop-color="#0a0d12"/><stop offset="100%" stop-color="#070a0d"/>
    </linearGradient>
    <filter id="glow"><feGaussianBlur stdDeviation="3" result="b1"/><feMerge><feMergeNode in="b1"/><feMergeNode in="SourceGraphic"/></feMerge></filter>
    <linearGradient id="sheen" x1="0" y1="0" x2="1" y2="0">
      <stop offset="0%" stop-color="#9b0e2a" stop-opacity="0"/>
      <stop offset="50%" stop-color="#9b0e2a" stop-opacity=".14"/>
      <stop offset="100%" stop-color="#9b0e2a" stop-opacity="0"/>
      <animateTransform attributeName="gradientTransform" type="translate" from="-1 0" to="1 0" dur="9s" repeatCount="indefinite"/>
    </linearGradient>
  </defs>

  <!-- BG -->
  <rect width="1200" height="420" fill="url(#bgGrad)"/>

  <!-- Plot frame -->
  <rect x="70" y="60" width="1080" height="260" fill="none" stroke="#121821" stroke-width="1"/>

  <!-- Y grid + labels -->
  <g font-family="ui-sans-serif,system-ui,-apple-system,Segoe UI,Roboto,Ubuntu,Arial" font-size="12">
    
      <path d="M70,320.0 H1150" stroke="#121821" stroke-width="1" opacity="0.6"/>
      <text x="60" y="324.0" text-anchor="end" fill="#ea384c">0</text>
    
      <path d="M70,255.0 H1150" stroke="#121821" stroke-width="1" opacity="0.6"/>
      <text x="60" y="259.0" text-anchor="end" fill="#ea384c">10</text>
    
      <path d="M70,190.0 H1150" stroke="#121821" stroke-width="1" opacity="0.6"/>
      <text x="60" y="194.0" text-anchor="end" fill="#ea384c">20</text>
    
      <path d="M70,125.0 H1150" stroke="#121821" stroke-width="1" opacity="0.6"/>
      <text x="60" y="129.0" text-anchor="end" fill="#ea384c">30</text>
    
      <path d="M70,60.0 H1150" stroke="#121821" stroke-width="1" opacity="0.6"/>
      <text x="60" y="64.0" text-anchor="end" fill="#ea384c">40</text>
    
    <text x="30" y="44" fill="#ea384c" font-size="13">Contributions</text>
  </g>

  <!-- X ticks + labels -->
  <g font-family="ui-sans-serif,system-ui,-apple-system,Segoe UI,Roboto,Ubuntu,Arial" font-size="12">
    
      <path d="M70.0,320 V326" stroke="#121821" stroke-width="1"/>
      <text x="70.0" y="340" text-anchor="middle" fill="#ea384c">7/14</text>
    
      <path d="M256.2,320 V326" stroke="#121821" stroke-width="1"/>
      <text x="256.2" y="340" text-anchor="middle" fill="#ea384c">7/19</text>
    
      <path d="M442.4,320 V326" stroke="#121821" stroke-width="1"/>
      <text x="442.4" y="340" text-anchor="middle" fill="#ea384c">7/24</text>
    
      <path d="M628.6,320 V326" stroke="#121821" stroke-width="1"/>
      <text x="628.6" y="340" text-anchor="middle" fill="#ea384c">7/29</text>
    
      <path d="M814.8,320 V326" stroke="#121821" stroke-width="1"/>
      <text x="814.8" y="340" text-anchor="middle" fill="#ea384c">8/3</text>
    
      <path d="M1001.0,320 V326" stroke="#121821" stroke-width="1"/>
      <text x="1001.0" y="340" text-anchor="middle" fill="#ea384c">8/8</text>
    
      <path d="M1150.0,320 V326" stroke="#121821" stroke-width="1"/>
      <text x="1150.0" y="340" text-anchor="middle" fill="#ea384c">8/12</text>
    
    <text x="610" y="358" text-anchor="middle" fill="#ea384c" font-size="13">Last 30 days</text>
  </g>

  <!-- Fancy sheen over plot area -->
  <rect x="70" y="60" width="1080" height="260" fill="url(#sheen)"/>

  <!-- Title -->
  <text x="600" y="40" text-anchor="middle"
        font-family="ui-sans-serif,system-ui,-apple-system,Segoe UI,Roboto,Ubuntu,Arial"
        font-size="22" fill="#ea384c" opacity=".95">Statik DK Smoke’s Crimson Flow</text>

  <!-- Area under curve -->
  <path d="M70.0,287.5 C77.4,294.0 92.3,325.2 107.2,320.0 C122.1,314.8 129.6,266.7 144.5,261.5 C159.4,256.3 166.8,286.2 181.7,294.0 C196.6,301.8 204.1,310.9 219.0,300.5 C233.9,290.1 241.3,271.9 256.2,242.0 C271.1,212.1 278.6,143.2 293.4,151.0 C308.3,158.8 315.8,271.9 330.7,281.0 C345.6,290.1 353.0,210.8 367.9,196.5 C382.8,182.2 390.3,186.1 405.2,209.5 C420.1,232.9 427.5,303.1 442.4,313.5 C457.3,323.9 464.8,303.1 479.7,261.5 C494.6,219.9 502.0,109.4 516.9,105.5 C531.8,101.6 539.2,208.2 554.1,242.0 C569.0,275.8 576.5,278.4 591.4,274.5 C606.3,270.6 613.7,221.2 628.6,222.5 C643.5,223.8 651.0,269.3 665.9,281.0 C680.8,292.7 688.2,283.6 703.1,281.0 C718.0,278.4 725.4,260.2 740.3,268.0 C755.2,275.8 762.7,333.0 777.6,320.0 C792.5,307.0 799.9,236.8 814.8,203.0 C829.7,169.2 837.2,128.9 852.1,151.0 C867.0,173.1 874.4,283.6 889.3,313.5 C904.2,343.4 911.7,331.7 926.6,300.5 C941.4,269.3 948.9,153.6 963.8,157.5 C978.7,161.4 986.1,290.1 1001.0,320.0 C1015.9,349.9 1023.4,352.5 1038.3,307.0 C1053.2,261.5 1060.6,115.9 1075.5,92.5 C1090.4,69.1 1097.9,178.3 1112.8,190.0 C1127.7,201.7 1142.6,158.8 1150.0,151.0 L 1150,320 L 70,320 Z" fill="#7a0f26" opacity=".13">
    <animate attributeName="opacity" values=".10;.17;.10" dur="6s" repeatCount="indefinite"/>
  </path>

  <!-- Neon curve -->
  <path id="curve" d="M70.0,287.5 C77.4,294.0 92.3,325.2 107.2,320.0 C122.1,314.8 129.6,266.7 144.5,261.5 C159.4,256.3 166.8,286.2 181.7,294.0 C196.6,301.8 204.1,310.9 219.0,300.5 C233.9,290.1 241.3,271.9 256.2,242.0 C271.1,212.1 278.6,143.2 293.4,151.0 C308.3,158.8 315.8,271.9 330.7,281.0 C345.6,290.1 353.0,210.8 367.9,196.5 C382.8,182.2 390.3,186.1 405.2,209.5 C420.1,232.9 427.5,303.1 442.4,313.5 C457.3,323.9 464.8,303.1 479.7,261.5 C494.6,219.9 502.0,109.4 516.9,105.5 C531.8,101.6 539.2,208.2 554.1,242.0 C569.0,275.8 576.5,278.4 591.4,274.5 C606.3,270.6 613.7,221.2 628.6,222.5 C643.5,223.8 651.0,269.3 665.9,281.0 C680.8,292.7 688.2,283.6 703.1,281.0 C718.0,278.4 725.4,260.2 740.3,268.0 C755.2,275.8 762.7,333.0 777.6,320.0 C792.5,307.0 799.9,236.8 814.8,203.0 C829.7,169.2 837.2,128.9 852.1,151.0 C867.0,173.1 874.4,283.6 889.3,313.5 C904.2,343.4 911.7,331.7 926.6,300.5 C941.4,269.3 948.9,153.6 963.8,157.5 C978.7,161.4 986.1,290.1 1001.0,320.0 C1015.9,349.9 1023.4,352.5 1038.3,307.0 C1053.2,261.5 1060.6,115.9 1075.5,92.5 C1090.4,69.1 1097.9,178.3 1112.8,190.0 C1127.7,201.7 1142.6,158.8 1150.0,151.0" fill="none" stroke="#c3193d" stroke-width="5"
        stroke-linecap="round" stroke-linejoin="round" stroke-dasharray="6 14" filter="url(#glow)">
    <animate attributeName="stroke-dashoffset" values="0;-220" dur="4.8s" repeatCount="indefinite"/>
  </path>

  <!-- Particles -->
  <g fill="#ffd1db">
    <circle r="4"><animateMotion dur="7s" rotate="auto" repeatCount="indefinite"><mpath href="#curve"/></animateMotion><animate attributeName="opacity" values="1;.3;1" dur="2.2s" repeatCount="indefinite"/></circle>
    <circle r="3" fill="#ffffff"><animateMotion dur="8.2s" begin="1s" rotate="auto" repeatCount="indefinite"><mpath href="#curve"/></animateMotion><animate attributeName="opacity" values=".7;.2;.7" dur="2.4s" repeatCount="indefinite"/></circle>
    <circle r="3" fill="#ffc7d3"><animateMotion dur="6s" begin="2s" rotate="auto" repeatCount="indefinite"><mpath href="#curve"/></animateMotion><animate attributeName="opacity" values=".8;.3;.8" dur="2s" repeatCount="indefinite"/></circle>
  </g>
</svg>