<?xml version="1.0" encoding="UTF-8"?>
<!-- build:2025-08-25T12:53:15.866Z user:statikfintechllc points:30 yMax:100 -->
<svg xmlns="http://www.w3.org/2000/svg" width="1200" height="420" viewBox="0 0 1200 420" role="img" aria-label="Contribution's Graph">
  <defs>
    <linearGradient id="bgGrad" x1="0" y1="0" x2="0" y2="1">
      <stop offset="0%" stop-color="#0a0d12"/><stop offset="100%" stop-color="#070a0d"/>
    </linearGradient>
    <filter id="glow"><feGaussianBlur stdDeviation="3" result="b1"/><feMerge><feMergeNode in="b1"/><feMergeNode in="SourceGraphic"/></feMerge></filter>
    <linearGradient id="sheen" x1="0" y1="0" x2="1" y2="0">
      <stop offset="0%" stop-color="#9b0e2a" stop-opacity="0"/>
      <stop offset="50%" stop-color="#9b0e2a" stop-opacity=".14"/>
      <stop offset="100%" stop-color="#9b0e2a" stop-opacity="0"/>
      <animateTransform attributeName="gradientTransform" type="translate" from="-1 0" to="1 0" dur="9s" repeatCount="indefinite"/>
    </linearGradient>
  </defs>

  <!-- BG -->
  <rect width="1200" height="420" fill="url(#bgGrad)"/>

  <!-- Plot frame -->
  <rect x="70" y="60" width="1080" height="260" fill="none" stroke="#121821" stroke-width="1"/>

  <!-- Y grid + labels -->
  <g font-family="ui-sans-serif,system-ui,-apple-system,Segoe UI,Roboto,Ubuntu,Arial" font-size="12">
    
      <path d="M70,320.0 H1150" stroke="#121821" stroke-width="1" opacity="0.6"/>
      <text x="60" y="324.0" text-anchor="end" fill="#ea384c">0</text>
    
      <path d="M70,268.0 H1150" stroke="#121821" stroke-width="1" opacity="0.6"/>
      <text x="60" y="272.0" text-anchor="end" fill="#ea384c">20</text>
    
      <path d="M70,216.0 H1150" stroke="#121821" stroke-width="1" opacity="0.6"/>
      <text x="60" y="220.0" text-anchor="end" fill="#ea384c">40</text>
    
      <path d="M70,164.0 H1150" stroke="#121821" stroke-width="1" opacity="0.6"/>
      <text x="60" y="168.0" text-anchor="end" fill="#ea384c">60</text>
    
      <path d="M70,112.0 H1150" stroke="#121821" stroke-width="1" opacity="0.6"/>
      <text x="60" y="116.0" text-anchor="end" fill="#ea384c">80</text>
    
      <path d="M70,60.0 H1150" stroke="#121821" stroke-width="1" opacity="0.6"/>
      <text x="60" y="64.0" text-anchor="end" fill="#ea384c">100</text>
    
    <text x="30" y="44" fill="#ea384c" font-size="13">Contributions</text>
  </g>

  <!-- X ticks + labels -->
  <g font-family="ui-sans-serif,system-ui,-apple-system,Segoe UI,Roboto,Ubuntu,Arial" font-size="12">
    
      <path d="M70.0,320 V326" stroke="#121821" stroke-width="1"/>
      <text x="70.0" y="340" text-anchor="middle" fill="#ea384c">7/27</text>
    
      <path d="M256.2,320 V326" stroke="#121821" stroke-width="1"/>
      <text x="256.2" y="340" text-anchor="middle" fill="#ea384c">8/1</text>
    
      <path d="M442.4,320 V326" stroke="#121821" stroke-width="1"/>
      <text x="442.4" y="340" text-anchor="middle" fill="#ea384c">8/6</text>
    
      <path d="M628.6,320 V326" stroke="#121821" stroke-width="1"/>
      <text x="628.6" y="340" text-anchor="middle" fill="#ea384c">8/11</text>
    
      <path d="M814.8,320 V326" stroke="#121821" stroke-width="1"/>
      <text x="814.8" y="340" text-anchor="middle" fill="#ea384c">8/16</text>
    
      <path d="M1001.0,320 V326" stroke="#121821" stroke-width="1"/>
      <text x="1001.0" y="340" text-anchor="middle" fill="#ea384c">8/21</text>
    
      <path d="M1150.0,320 V326" stroke="#121821" stroke-width="1"/>
      <text x="1150.0" y="340" text-anchor="middle" fill="#ea384c">8/25</text>
    
    <text x="610" y="358" text-anchor="middle" fill="#ea384c" font-size="13">Last 30 days</text>
  </g>

  <!-- Fancy sheen over plot area -->
  <rect x="70" y="60" width="1080" height="260" fill="url(#sheen)"/>

  <!-- Title -->
  <text x="600" y="40" text-anchor="middle"
        font-family="ui-sans-serif,system-ui,-apple-system,Segoe UI,Roboto,Ubuntu,Arial"
        font-size="22" fill="#ea384c" opacity=".95">Statik DK Smoke’s Contribution's</text>

  <!-- Area under curve -->
  <path d="M70.0,288.8 C77.4,291.4 92.3,303.4 107.2,301.8 C122.1,300.2 129.6,280.5 144.5,281.0 C159.4,281.5 166.8,299.7 181.7,304.4 C196.6,309.1 204.1,305.4 219.0,304.4 C233.9,303.4 241.3,296.1 256.2,299.2 C271.1,302.3 278.6,324.7 293.4,320.0 C308.3,315.3 315.8,288.3 330.7,275.8 C345.6,263.3 353.0,249.3 367.9,257.6 C382.8,265.9 390.3,306.5 405.2,317.4 C420.1,328.3 427.5,324.7 442.4,312.2 C457.3,299.7 464.8,253.4 479.7,255.0 C494.6,256.6 502.0,308.0 516.9,320.0 C531.8,332.0 539.2,333.5 554.1,314.8 C569.0,296.1 576.5,235.8 591.4,226.4 C606.3,217.0 613.7,298.7 628.6,268.0 C643.5,237.3 651.0,70.9 665.9,73.0 C680.8,75.1 688.2,229.5 703.1,278.4 C718.0,327.3 725.4,355.9 740.3,317.4 C755.2,278.9 762.7,109.4 777.6,86.0 C792.5,62.6 799.9,179.1 814.8,200.4 C829.7,221.7 837.2,185.3 852.1,192.6 C867.0,199.9 874.4,211.3 889.3,236.8 C904.2,262.3 911.7,303.4 926.6,320.0 C941.4,336.6 948.9,320.0 963.8,320.0 C978.7,320.0 986.1,321.0 1001.0,320.0 C1015.9,319.0 1023.4,320.0 1038.3,314.8 C1053.2,309.6 1060.6,300.2 1075.5,294.0 C1090.4,287.8 1097.9,278.4 1112.8,283.6 C1127.7,288.8 1142.6,312.7 1150.0,320.0 L 1150,320 L 70,320 Z" fill="#7a0f26" opacity=".13">
    <animate attributeName="opacity" values=".10;.17;.10" dur="6s" repeatCount="indefinite"/>
  </path>

  <!-- Neon curve -->
  <path id="curve" d="M70.0,288.8 C77.4,291.4 92.3,303.4 107.2,301.8 C122.1,300.2 129.6,280.5 144.5,281.0 C159.4,281.5 166.8,299.7 181.7,304.4 C196.6,309.1 204.1,305.4 219.0,304.4 C233.9,303.4 241.3,296.1 256.2,299.2 C271.1,302.3 278.6,324.7 293.4,320.0 C308.3,315.3 315.8,288.3 330.7,275.8 C345.6,263.3 353.0,249.3 367.9,257.6 C382.8,265.9 390.3,306.5 405.2,317.4 C420.1,328.3 427.5,324.7 442.4,312.2 C457.3,299.7 464.8,253.4 479.7,255.0 C494.6,256.6 502.0,308.0 516.9,320.0 C531.8,332.0 539.2,333.5 554.1,314.8 C569.0,296.1 576.5,235.8 591.4,226.4 C606.3,217.0 613.7,298.7 628.6,268.0 C643.5,237.3 651.0,70.9 665.9,73.0 C680.8,75.1 688.2,229.5 703.1,278.4 C718.0,327.3 725.4,355.9 740.3,317.4 C755.2,278.9 762.7,109.4 777.6,86.0 C792.5,62.6 799.9,179.1 814.8,200.4 C829.7,221.7 837.2,185.3 852.1,192.6 C867.0,199.9 874.4,211.3 889.3,236.8 C904.2,262.3 911.7,303.4 926.6,320.0 C941.4,336.6 948.9,320.0 963.8,320.0 C978.7,320.0 986.1,321.0 1001.0,320.0 C1015.9,319.0 1023.4,320.0 1038.3,314.8 C1053.2,309.6 1060.6,300.2 1075.5,294.0 C1090.4,287.8 1097.9,278.4 1112.8,283.6 C1127.7,288.8 1142.6,312.7 1150.0,320.0" fill="none" stroke="#c3193d" stroke-width="5"
        stroke-linecap="round" stroke-linejoin="round" stroke-dasharray="6 14" filter="url(#glow)">
    <animate attributeName="stroke-dashoffset" values="0;-220" dur="4.8s" repeatCount="indefinite"/>
  </path>

  <!-- Particles -->
  <g fill="#ffd1db">
    <circle r="4"><animateMotion dur="7s" rotate="auto" repeatCount="indefinite"><mpath href="#curve"/></animateMotion><animate attributeName="opacity" values="1;.3;1" dur="2.2s" repeatCount="indefinite"/></circle>
    <circle r="3" fill="#ffffff"><animateMotion dur="8.2s" begin="1s" rotate="auto" repeatCount="indefinite"><mpath href="#curve"/></animateMotion><animate attributeName="opacity" values=".7;.2;.7" dur="2.4s" repeatCount="indefinite"/></circle>
    <circle r="3" fill="#ffc7d3"><animateMotion dur="6s" begin="2s" rotate="auto" repeatCount="indefinite"><mpath href="#curve"/></animateMotion><animate attributeName="opacity" values=".8;.3;.8" dur="2s" repeatCount="indefinite"/></circle>
  </g>
</svg>