<?xml version="1.0" encoding="UTF-8"?>
<!-- build:2026-02-15T12:15:54.947Z user:statikfintechllc points:30 yMax:30 -->
<svg xmlns="http://www.w3.org/2000/svg" width="1200" height="420" viewBox="0 0 1200 420" role="img" aria-label="Contribution's Graph">
  <defs>
    <linearGradient id="bgGrad" x1="0" y1="0" x2="0" y2="1">
      <stop offset="0%" stop-color="#0a0d12"/><stop offset="100%" stop-color="#070a0d"/>
    </linearGradient>
    <filter id="glow"><feGaussianBlur stdDeviation="3" result="b1"/><feMerge><feMergeNode in="b1"/><feMergeNode in="SourceGraphic"/></feMerge></filter>
    <linearGradient id="sheen" x1="0" y1="0" x2="1" y2="0">
      <stop offset="0%" stop-color="#9b0e2a" stop-opacity="0"/>
      <stop offset="50%" stop-color="#9b0e2a" stop-opacity=".14"/>
      <stop offset="100%" stop-color="#9b0e2a" stop-opacity="0"/>
      <animateTransform attributeName="gradientTransform" type="translate" from="-1 0" to="1 0" dur="9s" repeatCount="indefinite"/>
    </linearGradient>
  </defs>

  <!-- BG -->
  <rect width="1200" height="420" fill="url(#bgGrad)"/>

  <!-- Plot frame -->
  <rect x="70" y="60" width="1080" height="260" fill="none" stroke="#121821" stroke-width="1"/>

  <!-- Y grid + labels -->
  <g font-family="ui-sans-serif,system-ui,-apple-system,Segoe UI,Roboto,Ubuntu,Arial" font-size="12">
    
      <path d="M70,320.0 H1150" stroke="#121821" stroke-width="1" opacity="0.6"/>
      <text x="60" y="324.0" text-anchor="end" fill="#ea384c">0</text>
    
      <path d="M70,233.3 H1150" stroke="#121821" stroke-width="1" opacity="0.6"/>
      <text x="60" y="237.3" text-anchor="end" fill="#ea384c">10</text>
    
      <path d="M70,146.7 H1150" stroke="#121821" stroke-width="1" opacity="0.6"/>
      <text x="60" y="150.7" text-anchor="end" fill="#ea384c">20</text>
    
      <path d="M70,60.0 H1150" stroke="#121821" stroke-width="1" opacity="0.6"/>
      <text x="60" y="64.0" text-anchor="end" fill="#ea384c">30</text>
    
    <text x="30" y="44" fill="#ea384c" font-size="13">Contributions</text>
  </g>

  <!-- X ticks + labels -->
  <g font-family="ui-sans-serif,system-ui,-apple-system,Segoe UI,Roboto,Ubuntu,Arial" font-size="12">
    
      <path d="M70.0,320 V326" stroke="#121821" stroke-width="1"/>
      <text x="70.0" y="340" text-anchor="middle" fill="#ea384c">1/17</text>
    
      <path d="M256.2,320 V326" stroke="#121821" stroke-width="1"/>
      <text x="256.2" y="340" text-anchor="middle" fill="#ea384c">1/22</text>
    
      <path d="M442.4,320 V326" stroke="#121821" stroke-width="1"/>
      <text x="442.4" y="340" text-anchor="middle" fill="#ea384c">1/27</text>
    
      <path d="M628.6,320 V326" stroke="#121821" stroke-width="1"/>
      <text x="628.6" y="340" text-anchor="middle" fill="#ea384c">2/1</text>
    
      <path d="M814.8,320 V326" stroke="#121821" stroke-width="1"/>
      <text x="814.8" y="340" text-anchor="middle" fill="#ea384c">2/6</text>
    
      <path d="M1001.0,320 V326" stroke="#121821" stroke-width="1"/>
      <text x="1001.0" y="340" text-anchor="middle" fill="#ea384c">2/11</text>
    
      <path d="M1150.0,320 V326" stroke="#121821" stroke-width="1"/>
      <text x="1150.0" y="340" text-anchor="middle" fill="#ea384c">2/15</text>
    
    <text x="610" y="358" text-anchor="middle" fill="#ea384c" font-size="13">Last 30 days</text>
  </g>

  <!-- Fancy sheen over plot area -->
  <rect x="70" y="60" width="1080" height="260" fill="url(#sheen)"/>

  <!-- Title -->
  <text x="600" y="40" text-anchor="middle"
        font-family="ui-sans-serif,system-ui,-apple-system,Segoe UI,Roboto,Ubuntu,Arial"
        font-size="22" fill="#ea384c" opacity=".95">Statik DK Smoke’s Contribution's</text>

  <!-- Area under curve -->
  <path d="M70.0,285.3 C77.4,278.4 92.3,254.1 107.2,250.7 C122.1,247.2 129.6,254.1 144.5,268.0 C159.4,281.9 166.8,309.6 181.7,320.0 C196.6,330.4 204.1,323.5 219.0,320.0 C233.9,316.5 241.3,302.7 256.2,302.7 C271.1,302.7 278.6,316.5 293.4,320.0 C308.3,323.5 315.8,321.7 330.7,320.0 C345.6,318.3 353.0,311.3 367.9,311.3 C382.8,311.3 390.3,325.2 405.2,320.0 C420.1,314.8 427.5,285.3 442.4,285.3 C457.3,285.3 464.8,313.1 479.7,320.0 C494.6,326.9 502.0,320.0 516.9,320.0 C531.8,320.0 539.2,320.0 554.1,320.0 C569.0,320.0 576.5,349.5 591.4,320.0 C606.3,290.5 613.7,174.4 628.6,172.7 C643.5,170.9 651.0,281.9 665.9,311.3 C680.8,340.8 688.2,318.3 703.1,320.0 C718.0,321.7 725.4,320.0 740.3,320.0 C755.2,320.0 762.7,332.1 777.6,320.0 C792.5,307.9 799.9,304.4 814.8,259.3 C829.7,214.3 837.2,99.9 852.1,94.7 C867.0,89.5 874.4,188.3 889.3,233.3 C904.2,278.4 911.7,302.7 926.6,320.0 C941.4,337.3 948.9,320.0 963.8,320.0 C978.7,320.0 986.1,320.0 1001.0,320.0 C1015.9,320.0 1023.4,320.0 1038.3,320.0 C1053.2,320.0 1060.6,320.0 1075.5,320.0 C1090.4,320.0 1097.9,320.0 1112.8,320.0 C1127.7,320.0 1142.6,320.0 1150.0,320.0 L 1150,320 L 70,320 Z" fill="#7a0f26" opacity=".13">
    <animate attributeName="opacity" values=".10;.17;.10" dur="6s" repeatCount="indefinite"/>
  </path>

  <!-- Neon curve -->
  <path id="curve" d="M70.0,285.3 C77.4,278.4 92.3,254.1 107.2,250.7 C122.1,247.2 129.6,254.1 144.5,268.0 C159.4,281.9 166.8,309.6 181.7,320.0 C196.6,330.4 204.1,323.5 219.0,320.0 C233.9,316.5 241.3,302.7 256.2,302.7 C271.1,302.7 278.6,316.5 293.4,320.0 C308.3,323.5 315.8,321.7 330.7,320.0 C345.6,318.3 353.0,311.3 367.9,311.3 C382.8,311.3 390.3,325.2 405.2,320.0 C420.1,314.8 427.5,285.3 442.4,285.3 C457.3,285.3 464.8,313.1 479.7,320.0 C494.6,326.9 502.0,320.0 516.9,320.0 C531.8,320.0 539.2,320.0 554.1,320.0 C569.0,320.0 576.5,349.5 591.4,320.0 C606.3,290.5 613.7,174.4 628.6,172.7 C643.5,170.9 651.0,281.9 665.9,311.3 C680.8,340.8 688.2,318.3 703.1,320.0 C718.0,321.7 725.4,320.0 740.3,320.0 C755.2,320.0 762.7,332.1 777.6,320.0 C792.5,307.9 799.9,304.4 814.8,259.3 C829.7,214.3 837.2,99.9 852.1,94.7 C867.0,89.5 874.4,188.3 889.3,233.3 C904.2,278.4 911.7,302.7 926.6,320.0 C941.4,337.3 948.9,320.0 963.8,320.0 C978.7,320.0 986.1,320.0 1001.0,320.0 C1015.9,320.0 1023.4,320.0 1038.3,320.0 C1053.2,320.0 1060.6,320.0 1075.5,320.0 C1090.4,320.0 1097.9,320.0 1112.8,320.0 C1127.7,320.0 1142.6,320.0 1150.0,320.0" fill="none" stroke="#c3193d" stroke-width="5"
        stroke-linecap="round" stroke-linejoin="round" stroke-dasharray="6 14" filter="url(#glow)">
    <animate attributeName="stroke-dashoffset" values="0;-220" dur="4.8s" repeatCount="indefinite"/>
  </path>

  <!-- Particles -->
  <g fill="#ffd1db">
    <circle r="4"><animateMotion dur="7s" rotate="auto" repeatCount="indefinite"><mpath href="#curve"/></animateMotion><animate attributeName="opacity" values="1;.3;1" dur="2.2s" repeatCount="indefinite"/></circle>
    <circle r="3" fill="#ffffff"><animateMotion dur="8.2s" begin="1s" rotate="auto" repeatCount="indefinite"><mpath href="#curve"/></animateMotion><animate attributeName="opacity" values=".7;.2;.7" dur="2.4s" repeatCount="indefinite"/></circle>
    <circle r="3" fill="#ffc7d3"><animateMotion dur="6s" begin="2s" rotate="auto" repeatCount="indefinite"><mpath href="#curve"/></animateMotion><animate attributeName="opacity" values=".8;.3;.8" dur="2s" repeatCount="indefinite"/></circle>
  </g>
</svg>