<?xml version="1.0" encoding="UTF-8"?>
<!-- build:2026-05-21T13:21:27.784Z user:statikfintechllc points:30 yMax:250 -->
<svg xmlns="http://www.w3.org/2000/svg" width="1200" height="420" viewBox="0 0 1200 420" role="img" aria-label="Contribution's Graph">
  <defs>
    <linearGradient id="bgGrad" x1="0" y1="0" x2="0" y2="1">
      <stop offset="0%" stop-color="#0a0d12"/><stop offset="100%" stop-color="#070a0d"/>
    </linearGradient>
    <filter id="glow"><feGaussianBlur stdDeviation="3" result="b1"/><feMerge><feMergeNode in="b1"/><feMergeNode in="SourceGraphic"/></feMerge></filter>
    <linearGradient id="sheen" x1="0" y1="0" x2="1" y2="0">
      <stop offset="0%" stop-color="#9b0e2a" stop-opacity="0"/>
      <stop offset="50%" stop-color="#9b0e2a" stop-opacity=".14"/>
      <stop offset="100%" stop-color="#9b0e2a" stop-opacity="0"/>
      <animateTransform attributeName="gradientTransform" type="translate" from="-1 0" to="1 0" dur="9s" repeatCount="indefinite"/>
    </linearGradient>
  </defs>

  <!-- BG -->
  <rect width="1200" height="420" fill="url(#bgGrad)"/>

  <!-- Plot frame -->
  <rect x="70" y="60" width="1080" height="260" fill="none" stroke="#121821" stroke-width="1"/>

  <!-- Y grid + labels -->
  <g font-family="ui-sans-serif,system-ui,-apple-system,Segoe UI,Roboto,Ubuntu,Arial" font-size="12">
    
      <path d="M70,320.0 H1150" stroke="#121821" stroke-width="1" opacity="0.6"/>
      <text x="60" y="324.0" text-anchor="end" fill="#ea384c">0</text>
    
      <path d="M70,268.0 H1150" stroke="#121821" stroke-width="1" opacity="0.6"/>
      <text x="60" y="272.0" text-anchor="end" fill="#ea384c">50</text>
    
      <path d="M70,216.0 H1150" stroke="#121821" stroke-width="1" opacity="0.6"/>
      <text x="60" y="220.0" text-anchor="end" fill="#ea384c">100</text>
    
      <path d="M70,164.0 H1150" stroke="#121821" stroke-width="1" opacity="0.6"/>
      <text x="60" y="168.0" text-anchor="end" fill="#ea384c">150</text>
    
      <path d="M70,112.0 H1150" stroke="#121821" stroke-width="1" opacity="0.6"/>
      <text x="60" y="116.0" text-anchor="end" fill="#ea384c">200</text>
    
      <path d="M70,60.0 H1150" stroke="#121821" stroke-width="1" opacity="0.6"/>
      <text x="60" y="64.0" text-anchor="end" fill="#ea384c">250</text>
    
    <text x="30" y="44" fill="#ea384c" font-size="13">Contributions</text>
  </g>

  <!-- X ticks + labels -->
  <g font-family="ui-sans-serif,system-ui,-apple-system,Segoe UI,Roboto,Ubuntu,Arial" font-size="12">
    
      <path d="M70.0,320 V326" stroke="#121821" stroke-width="1"/>
      <text x="70.0" y="340" text-anchor="middle" fill="#ea384c">4/22</text>
    
      <path d="M256.2,320 V326" stroke="#121821" stroke-width="1"/>
      <text x="256.2" y="340" text-anchor="middle" fill="#ea384c">4/27</text>
    
      <path d="M442.4,320 V326" stroke="#121821" stroke-width="1"/>
      <text x="442.4" y="340" text-anchor="middle" fill="#ea384c">5/2</text>
    
      <path d="M628.6,320 V326" stroke="#121821" stroke-width="1"/>
      <text x="628.6" y="340" text-anchor="middle" fill="#ea384c">5/7</text>
    
      <path d="M814.8,320 V326" stroke="#121821" stroke-width="1"/>
      <text x="814.8" y="340" text-anchor="middle" fill="#ea384c">5/12</text>
    
      <path d="M1001.0,320 V326" stroke="#121821" stroke-width="1"/>
      <text x="1001.0" y="340" text-anchor="middle" fill="#ea384c">5/17</text>
    
      <path d="M1150.0,320 V326" stroke="#121821" stroke-width="1"/>
      <text x="1150.0" y="340" text-anchor="middle" fill="#ea384c">5/21</text>
    
    <text x="610" y="358" text-anchor="middle" fill="#ea384c" font-size="13">Last 30 days</text>
  </g>

  <!-- Fancy sheen over plot area -->
  <rect x="70" y="60" width="1080" height="260" fill="url(#sheen)"/>

  <!-- Title -->
  <text x="600" y="40" text-anchor="middle"
        font-family="ui-sans-serif,system-ui,-apple-system,Segoe UI,Roboto,Ubuntu,Arial"
        font-size="22" fill="#ea384c" opacity=".95">Statik DK Smoke’s Contribution's</text>

  <!-- Area under curve -->
  <path d="M70.0,320.0 C77.4,320.0 92.3,320.0 107.2,320.0 C122.1,320.0 129.6,320.0 144.5,320.0 C159.4,320.0 166.8,320.0 181.7,320.0 C196.6,320.0 204.1,320.0 219.0,320.0 C233.9,320.0 241.3,320.0 256.2,320.0 C271.1,320.0 278.6,320.0 293.4,320.0 C308.3,320.0 315.8,320.6 330.7,320.0 C345.6,319.4 353.0,316.9 367.9,316.9 C382.8,316.9 390.3,319.4 405.2,320.0 C420.1,320.6 427.5,320.0 442.4,320.0 C457.3,320.0 464.8,321.5 479.7,320.0 C494.6,318.5 502.0,312.7 516.9,312.7 C531.8,312.7 539.2,318.5 554.1,320.0 C569.0,321.5 576.5,320.0 591.4,320.0 C606.3,320.0 613.7,326.2 628.6,320.0 C643.5,313.8 651.0,290.7 665.9,288.8 C680.8,286.9 688.2,326.4 703.1,310.6 C718.0,294.8 725.4,211.4 740.3,209.8 C755.2,208.1 762.7,280.5 777.6,302.3 C792.5,324.2 799.9,318.1 814.8,319.0 C829.7,319.8 837.2,312.3 852.1,306.5 C867.0,300.7 874.4,290.5 889.3,289.8 C904.2,289.2 911.7,300.0 926.6,303.4 C941.4,306.7 948.9,332.3 963.8,306.5 C978.7,280.7 986.1,216.0 1001.0,174.4 C1015.9,132.8 1023.4,81.4 1038.3,98.5 C1053.2,115.5 1060.6,215.4 1075.5,259.7 C1090.4,304.0 1097.9,307.9 1112.8,320.0 C1127.7,332.1 1142.6,320.0 1150.0,320.0 L 1150,320 L 70,320 Z" fill="#7a0f26" opacity=".13">
    <animate attributeName="opacity" values=".10;.17;.10" dur="6s" repeatCount="indefinite"/>
  </path>

  <!-- Neon curve -->
  <path id="curve" d="M70.0,320.0 C77.4,320.0 92.3,320.0 107.2,320.0 C122.1,320.0 129.6,320.0 144.5,320.0 C159.4,320.0 166.8,320.0 181.7,320.0 C196.6,320.0 204.1,320.0 219.0,320.0 C233.9,320.0 241.3,320.0 256.2,320.0 C271.1,320.0 278.6,320.0 293.4,320.0 C308.3,320.0 315.8,320.6 330.7,320.0 C345.6,319.4 353.0,316.9 367.9,316.9 C382.8,316.9 390.3,319.4 405.2,320.0 C420.1,320.6 427.5,320.0 442.4,320.0 C457.3,320.0 464.8,321.5 479.7,320.0 C494.6,318.5 502.0,312.7 516.9,312.7 C531.8,312.7 539.2,318.5 554.1,320.0 C569.0,321.5 576.5,320.0 591.4,320.0 C606.3,320.0 613.7,326.2 628.6,320.0 C643.5,313.8 651.0,290.7 665.9,288.8 C680.8,286.9 688.2,326.4 703.1,310.6 C718.0,294.8 725.4,211.4 740.3,209.8 C755.2,208.1 762.7,280.5 777.6,302.3 C792.5,324.2 799.9,318.1 814.8,319.0 C829.7,319.8 837.2,312.3 852.1,306.5 C867.0,300.7 874.4,290.5 889.3,289.8 C904.2,289.2 911.7,300.0 926.6,303.4 C941.4,306.7 948.9,332.3 963.8,306.5 C978.7,280.7 986.1,216.0 1001.0,174.4 C1015.9,132.8 1023.4,81.4 1038.3,98.5 C1053.2,115.5 1060.6,215.4 1075.5,259.7 C1090.4,304.0 1097.9,307.9 1112.8,320.0 C1127.7,332.1 1142.6,320.0 1150.0,320.0" fill="none" stroke="#c3193d" stroke-width="5"
        stroke-linecap="round" stroke-linejoin="round" stroke-dasharray="6 14" filter="url(#glow)">
    <animate attributeName="stroke-dashoffset" values="0;-220" dur="4.8s" repeatCount="indefinite"/>
  </path>

  <!-- Particles -->
  <g fill="#ffd1db">
    <circle r="4"><animateMotion dur="7s" rotate="auto" repeatCount="indefinite"><mpath href="#curve"/></animateMotion><animate attributeName="opacity" values="1;.3;1" dur="2.2s" repeatCount="indefinite"/></circle>
    <circle r="3" fill="#ffffff"><animateMotion dur="8.2s" begin="1s" rotate="auto" repeatCount="indefinite"><mpath href="#curve"/></animateMotion><animate attributeName="opacity" values=".7;.2;.7" dur="2.4s" repeatCount="indefinite"/></circle>
    <circle r="3" fill="#ffc7d3"><animateMotion dur="6s" begin="2s" rotate="auto" repeatCount="indefinite"><mpath href="#curve"/></animateMotion><animate attributeName="opacity" values=".8;.3;.8" dur="2s" repeatCount="indefinite"/></circle>
  </g>
</svg>