<?xml version="1.0" encoding="UTF-8"?>
<!-- build:2026-07-24T03:23:49.196Z user:statikfintechllc points:30 yMax:150 -->
<svg xmlns="http://www.w3.org/2000/svg" width="1200" height="420" viewBox="0 0 1200 420" role="img" aria-label="Contribution's Graph">
  <defs>
    <linearGradient id="bgGrad" x1="0" y1="0" x2="0" y2="1">
      <stop offset="0%" stop-color="#0a0d12"/><stop offset="100%" stop-color="#070a0d"/>
    </linearGradient>
    <filter id="glow"><feGaussianBlur stdDeviation="3" result="b1"/><feMerge><feMergeNode in="b1"/><feMergeNode in="SourceGraphic"/></feMerge></filter>
    <linearGradient id="sheen" x1="0" y1="0" x2="1" y2="0">
      <stop offset="0%" stop-color="#9b0e2a" stop-opacity="0"/>
      <stop offset="50%" stop-color="#9b0e2a" stop-opacity=".14"/>
      <stop offset="100%" stop-color="#9b0e2a" stop-opacity="0"/>
      <animateTransform attributeName="gradientTransform" type="translate" from="-1 0" to="1 0" dur="9s" repeatCount="indefinite"/>
    </linearGradient>
  </defs>

  <!-- BG -->
  <rect width="1200" height="420" fill="url(#bgGrad)"/>

  <!-- Plot frame -->
  <rect x="70" y="60" width="1080" height="260" fill="none" stroke="#121821" stroke-width="1"/>

  <!-- Y grid + labels -->
  <g font-family="ui-sans-serif,system-ui,-apple-system,Segoe UI,Roboto,Ubuntu,Arial" font-size="12">
    
      <path d="M70,320.0 H1150" stroke="#121821" stroke-width="1" opacity="0.6"/>
      <text x="60" y="324.0" text-anchor="end" fill="#ea384c">0</text>
    
      <path d="M70,233.3 H1150" stroke="#121821" stroke-width="1" opacity="0.6"/>
      <text x="60" y="237.3" text-anchor="end" fill="#ea384c">50</text>
    
      <path d="M70,146.7 H1150" stroke="#121821" stroke-width="1" opacity="0.6"/>
      <text x="60" y="150.7" text-anchor="end" fill="#ea384c">100</text>
    
      <path d="M70,60.0 H1150" stroke="#121821" stroke-width="1" opacity="0.6"/>
      <text x="60" y="64.0" text-anchor="end" fill="#ea384c">150</text>
    
    <text x="30" y="44" fill="#ea384c" font-size="13">Contributions</text>
  </g>

  <!-- X ticks + labels -->
  <g font-family="ui-sans-serif,system-ui,-apple-system,Segoe UI,Roboto,Ubuntu,Arial" font-size="12">
    
      <path d="M70.0,320 V326" stroke="#121821" stroke-width="1"/>
      <text x="70.0" y="340" text-anchor="middle" fill="#ea384c">6/25</text>
    
      <path d="M256.2,320 V326" stroke="#121821" stroke-width="1"/>
      <text x="256.2" y="340" text-anchor="middle" fill="#ea384c">6/30</text>
    
      <path d="M442.4,320 V326" stroke="#121821" stroke-width="1"/>
      <text x="442.4" y="340" text-anchor="middle" fill="#ea384c">7/5</text>
    
      <path d="M628.6,320 V326" stroke="#121821" stroke-width="1"/>
      <text x="628.6" y="340" text-anchor="middle" fill="#ea384c">7/10</text>
    
      <path d="M814.8,320 V326" stroke="#121821" stroke-width="1"/>
      <text x="814.8" y="340" text-anchor="middle" fill="#ea384c">7/15</text>
    
      <path d="M1001.0,320 V326" stroke="#121821" stroke-width="1"/>
      <text x="1001.0" y="340" text-anchor="middle" fill="#ea384c">7/20</text>
    
      <path d="M1150.0,320 V326" stroke="#121821" stroke-width="1"/>
      <text x="1150.0" y="340" text-anchor="middle" fill="#ea384c">7/24</text>
    
    <text x="610" y="358" text-anchor="middle" fill="#ea384c" font-size="13">Last 30 days</text>
  </g>

  <!-- Fancy sheen over plot area -->
  <rect x="70" y="60" width="1080" height="260" fill="url(#sheen)"/>

  <!-- Title -->
  <text x="600" y="40" text-anchor="middle"
        font-family="ui-sans-serif,system-ui,-apple-system,Segoe UI,Roboto,Ubuntu,Arial"
        font-size="22" fill="#ea384c" opacity=".95">Statik DK Smoke’s Contribution's</text>

  <!-- Area under curve -->
  <path d="M70.0,273.2 C77.4,248.9 92.3,185.1 107.2,151.9 C122.1,118.6 129.6,112.3 144.5,106.8 C159.4,101.3 166.8,119.6 181.7,124.1 C196.6,128.6 204.1,123.1 219.0,129.3 C233.9,135.6 241.3,150.1 256.2,155.3 C271.1,160.5 278.6,155.3 293.4,155.3 C308.3,155.3 315.8,155.3 330.7,155.3 C345.6,155.3 353.0,155.3 367.9,155.3 C382.8,155.3 390.3,155.3 405.2,155.3 C420.1,155.3 427.5,142.2 442.4,155.3 C457.3,168.5 464.8,220.2 479.7,221.2 C494.6,222.2 502.0,173.7 516.9,160.5 C531.8,147.4 539.2,156.0 554.1,155.3 C569.0,154.6 576.5,151.2 591.4,157.1 C606.3,163.0 613.7,152.2 628.6,184.8 C643.5,217.4 651.0,295.0 665.9,320.0 C680.8,345.0 688.2,321.7 703.1,309.6 C718.0,297.5 725.4,267.7 740.3,259.3 C755.2,251.0 762.7,291.2 777.6,268.0 C792.5,244.8 799.9,168.5 814.8,143.2 C829.7,117.9 837.2,139.0 852.1,141.5 C867.0,143.9 874.4,132.8 889.3,155.3 C904.2,177.9 911.7,221.2 926.6,254.1 C941.4,287.1 948.9,320.7 963.8,320.0 C978.7,319.3 986.1,287.1 1001.0,250.7 C1015.9,214.3 1023.4,157.1 1038.3,138.0 C1053.2,118.9 1060.6,149.1 1075.5,155.3 C1090.4,161.6 1097.9,136.3 1112.8,169.2 C1127.7,202.1 1142.6,289.8 1150.0,320.0 L 1150,320 L 70,320 Z" fill="#7a0f26" opacity=".13">
    <animate attributeName="opacity" values=".10;.17;.10" dur="6s" repeatCount="indefinite"/>
  </path>

  <!-- Neon curve -->
  <path id="curve" d="M70.0,273.2 C77.4,248.9 92.3,185.1 107.2,151.9 C122.1,118.6 129.6,112.3 144.5,106.8 C159.4,101.3 166.8,119.6 181.7,124.1 C196.6,128.6 204.1,123.1 219.0,129.3 C233.9,135.6 241.3,150.1 256.2,155.3 C271.1,160.5 278.6,155.3 293.4,155.3 C308.3,155.3 315.8,155.3 330.7,155.3 C345.6,155.3 353.0,155.3 367.9,155.3 C382.8,155.3 390.3,155.3 405.2,155.3 C420.1,155.3 427.5,142.2 442.4,155.3 C457.3,168.5 464.8,220.2 479.7,221.2 C494.6,222.2 502.0,173.7 516.9,160.5 C531.8,147.4 539.2,156.0 554.1,155.3 C569.0,154.6 576.5,151.2 591.4,157.1 C606.3,163.0 613.7,152.2 628.6,184.8 C643.5,217.4 651.0,295.0 665.9,320.0 C680.8,345.0 688.2,321.7 703.1,309.6 C718.0,297.5 725.4,267.7 740.3,259.3 C755.2,251.0 762.7,291.2 777.6,268.0 C792.5,244.8 799.9,168.5 814.8,143.2 C829.7,117.9 837.2,139.0 852.1,141.5 C867.0,143.9 874.4,132.8 889.3,155.3 C904.2,177.9 911.7,221.2 926.6,254.1 C941.4,287.1 948.9,320.7 963.8,320.0 C978.7,319.3 986.1,287.1 1001.0,250.7 C1015.9,214.3 1023.4,157.1 1038.3,138.0 C1053.2,118.9 1060.6,149.1 1075.5,155.3 C1090.4,161.6 1097.9,136.3 1112.8,169.2 C1127.7,202.1 1142.6,289.8 1150.0,320.0" fill="none" stroke="#c3193d" stroke-width="5"
        stroke-linecap="round" stroke-linejoin="round" stroke-dasharray="6 14" filter="url(#glow)">
    <animate attributeName="stroke-dashoffset" values="0;-220" dur="4.8s" repeatCount="indefinite"/>
  </path>

  <!-- Particles -->
  <g fill="#ffd1db">
    <circle r="4"><animateMotion dur="7s" rotate="auto" repeatCount="indefinite"><mpath href="#curve"/></animateMotion><animate attributeName="opacity" values="1;.3;1" dur="2.2s" repeatCount="indefinite"/></circle>
    <circle r="3" fill="#ffffff"><animateMotion dur="8.2s" begin="1s" rotate="auto" repeatCount="indefinite"><mpath href="#curve"/></animateMotion><animate attributeName="opacity" values=".7;.2;.7" dur="2.4s" repeatCount="indefinite"/></circle>
    <circle r="3" fill="#ffc7d3"><animateMotion dur="6s" begin="2s" rotate="auto" repeatCount="indefinite"><mpath href="#curve"/></animateMotion><animate attributeName="opacity" values=".8;.3;.8" dur="2s" repeatCount="indefinite"/></circle>
  </g>
</svg>