<?xml version="1.0" encoding="UTF-8"?>
<!-- build:2025-12-09T00:34:35.985Z user:statikfintechllc points:30 yMax:50 -->
<svg xmlns="http://www.w3.org/2000/svg" width="1200" height="420" viewBox="0 0 1200 420" role="img" aria-label="Contribution's Graph">
  <defs>
    <linearGradient id="bgGrad" x1="0" y1="0" x2="0" y2="1">
      <stop offset="0%" stop-color="#0a0d12"/><stop offset="100%" stop-color="#070a0d"/>
    </linearGradient>
    <filter id="glow"><feGaussianBlur stdDeviation="3" result="b1"/><feMerge><feMergeNode in="b1"/><feMergeNode in="SourceGraphic"/></feMerge></filter>
    <linearGradient id="sheen" x1="0" y1="0" x2="1" y2="0">
      <stop offset="0%" stop-color="#9b0e2a" stop-opacity="0"/>
      <stop offset="50%" stop-color="#9b0e2a" stop-opacity=".14"/>
      <stop offset="100%" stop-color="#9b0e2a" stop-opacity="0"/>
      <animateTransform attributeName="gradientTransform" type="translate" from="-1 0" to="1 0" dur="9s" repeatCount="indefinite"/>
    </linearGradient>
  </defs>

  <!-- BG -->
  <rect width="1200" height="420" fill="url(#bgGrad)"/>

  <!-- Plot frame -->
  <rect x="70" y="60" width="1080" height="260" fill="none" stroke="#121821" stroke-width="1"/>

  <!-- Y grid + labels -->
  <g font-family="ui-sans-serif,system-ui,-apple-system,Segoe UI,Roboto,Ubuntu,Arial" font-size="12">
    
      <path d="M70,320.0 H1150" stroke="#121821" stroke-width="1" opacity="0.6"/>
      <text x="60" y="324.0" text-anchor="end" fill="#ea384c">0</text>
    
      <path d="M70,268.0 H1150" stroke="#121821" stroke-width="1" opacity="0.6"/>
      <text x="60" y="272.0" text-anchor="end" fill="#ea384c">10</text>
    
      <path d="M70,216.0 H1150" stroke="#121821" stroke-width="1" opacity="0.6"/>
      <text x="60" y="220.0" text-anchor="end" fill="#ea384c">20</text>
    
      <path d="M70,164.0 H1150" stroke="#121821" stroke-width="1" opacity="0.6"/>
      <text x="60" y="168.0" text-anchor="end" fill="#ea384c">30</text>
    
      <path d="M70,112.0 H1150" stroke="#121821" stroke-width="1" opacity="0.6"/>
      <text x="60" y="116.0" text-anchor="end" fill="#ea384c">40</text>
    
      <path d="M70,60.0 H1150" stroke="#121821" stroke-width="1" opacity="0.6"/>
      <text x="60" y="64.0" text-anchor="end" fill="#ea384c">50</text>
    
    <text x="30" y="44" fill="#ea384c" font-size="13">Contributions</text>
  </g>

  <!-- X ticks + labels -->
  <g font-family="ui-sans-serif,system-ui,-apple-system,Segoe UI,Roboto,Ubuntu,Arial" font-size="12">
    
      <path d="M70.0,320 V326" stroke="#121821" stroke-width="1"/>
      <text x="70.0" y="340" text-anchor="middle" fill="#ea384c">11/10</text>
    
      <path d="M256.2,320 V326" stroke="#121821" stroke-width="1"/>
      <text x="256.2" y="340" text-anchor="middle" fill="#ea384c">11/15</text>
    
      <path d="M442.4,320 V326" stroke="#121821" stroke-width="1"/>
      <text x="442.4" y="340" text-anchor="middle" fill="#ea384c">11/20</text>
    
      <path d="M628.6,320 V326" stroke="#121821" stroke-width="1"/>
      <text x="628.6" y="340" text-anchor="middle" fill="#ea384c">11/25</text>
    
      <path d="M814.8,320 V326" stroke="#121821" stroke-width="1"/>
      <text x="814.8" y="340" text-anchor="middle" fill="#ea384c">11/30</text>
    
      <path d="M1001.0,320 V326" stroke="#121821" stroke-width="1"/>
      <text x="1001.0" y="340" text-anchor="middle" fill="#ea384c">12/5</text>
    
      <path d="M1150.0,320 V326" stroke="#121821" stroke-width="1"/>
      <text x="1150.0" y="340" text-anchor="middle" fill="#ea384c">12/9</text>
    
    <text x="610" y="358" text-anchor="middle" fill="#ea384c" font-size="13">Last 30 days</text>
  </g>

  <!-- Fancy sheen over plot area -->
  <rect x="70" y="60" width="1080" height="260" fill="url(#sheen)"/>

  <!-- Title -->
  <text x="600" y="40" text-anchor="middle"
        font-family="ui-sans-serif,system-ui,-apple-system,Segoe UI,Roboto,Ubuntu,Arial"
        font-size="22" fill="#ea384c" opacity=".95">Statik DK Smoke’s Contribution's</text>

  <!-- Area under curve -->
  <path d="M70.0,273.2 C77.4,281.5 92.3,309.6 107.2,314.8 C122.1,320.0 129.6,300.2 144.5,299.2 C159.4,298.2 166.8,306.5 181.7,309.6 C196.6,312.7 204.1,313.8 219.0,314.8 C233.9,315.8 241.3,313.8 256.2,314.8 C271.1,315.8 278.6,326.2 293.4,320.0 C308.3,313.8 315.8,295.0 330.7,283.6 C345.6,272.2 353.0,258.6 367.9,262.8 C382.8,267.0 390.3,297.1 405.2,304.4 C420.1,311.7 427.5,302.3 442.4,299.2 C457.3,296.1 464.8,286.7 479.7,288.8 C494.6,290.9 502.0,305.4 516.9,309.6 C531.8,313.8 539.2,324.2 554.1,309.6 C569.0,295.0 576.5,271.1 591.4,236.8 C606.3,202.5 613.7,129.7 628.6,138.0 C643.5,146.3 651.0,254.5 665.9,278.4 C680.8,302.3 688.2,251.4 703.1,257.6 C718.0,263.8 725.4,297.1 740.3,309.6 C755.2,322.1 762.7,317.9 777.6,320.0 C792.5,322.1 799.9,322.1 814.8,320.0 C829.7,317.9 837.2,310.6 852.1,309.6 C867.0,308.6 874.4,312.7 889.3,314.8 C904.2,316.9 911.7,323.1 926.6,320.0 C941.4,316.9 948.9,299.2 963.8,299.2 C978.7,299.2 986.1,315.8 1001.0,320.0 C1015.9,324.2 1023.4,362.6 1038.3,320.0 C1053.2,277.4 1060.6,114.1 1075.5,106.8 C1090.4,99.5 1097.9,241.0 1112.8,283.6 C1127.7,326.2 1142.6,312.7 1150.0,320.0 L 1150,320 L 70,320 Z" fill="#7a0f26" opacity=".13">
    <animate attributeName="opacity" values=".10;.17;.10" dur="6s" repeatCount="indefinite"/>
  </path>

  <!-- Neon curve -->
  <path id="curve" d="M70.0,273.2 C77.4,281.5 92.3,309.6 107.2,314.8 C122.1,320.0 129.6,300.2 144.5,299.2 C159.4,298.2 166.8,306.5 181.7,309.6 C196.6,312.7 204.1,313.8 219.0,314.8 C233.9,315.8 241.3,313.8 256.2,314.8 C271.1,315.8 278.6,326.2 293.4,320.0 C308.3,313.8 315.8,295.0 330.7,283.6 C345.6,272.2 353.0,258.6 367.9,262.8 C382.8,267.0 390.3,297.1 405.2,304.4 C420.1,311.7 427.5,302.3 442.4,299.2 C457.3,296.1 464.8,286.7 479.7,288.8 C494.6,290.9 502.0,305.4 516.9,309.6 C531.8,313.8 539.2,324.2 554.1,309.6 C569.0,295.0 576.5,271.1 591.4,236.8 C606.3,202.5 613.7,129.7 628.6,138.0 C643.5,146.3 651.0,254.5 665.9,278.4 C680.8,302.3 688.2,251.4 703.1,257.6 C718.0,263.8 725.4,297.1 740.3,309.6 C755.2,322.1 762.7,317.9 777.6,320.0 C792.5,322.1 799.9,322.1 814.8,320.0 C829.7,317.9 837.2,310.6 852.1,309.6 C867.0,308.6 874.4,312.7 889.3,314.8 C904.2,316.9 911.7,323.1 926.6,320.0 C941.4,316.9 948.9,299.2 963.8,299.2 C978.7,299.2 986.1,315.8 1001.0,320.0 C1015.9,324.2 1023.4,362.6 1038.3,320.0 C1053.2,277.4 1060.6,114.1 1075.5,106.8 C1090.4,99.5 1097.9,241.0 1112.8,283.6 C1127.7,326.2 1142.6,312.7 1150.0,320.0" fill="none" stroke="#c3193d" stroke-width="5"
        stroke-linecap="round" stroke-linejoin="round" stroke-dasharray="6 14" filter="url(#glow)">
    <animate attributeName="stroke-dashoffset" values="0;-220" dur="4.8s" repeatCount="indefinite"/>
  </path>

  <!-- Particles -->
  <g fill="#ffd1db">
    <circle r="4"><animateMotion dur="7s" rotate="auto" repeatCount="indefinite"><mpath href="#curve"/></animateMotion><animate attributeName="opacity" values="1;.3;1" dur="2.2s" repeatCount="indefinite"/></circle>
    <circle r="3" fill="#ffffff"><animateMotion dur="8.2s" begin="1s" rotate="auto" repeatCount="indefinite"><mpath href="#curve"/></animateMotion><animate attributeName="opacity" values=".7;.2;.7" dur="2.4s" repeatCount="indefinite"/></circle>
    <circle r="3" fill="#ffc7d3"><animateMotion dur="6s" begin="2s" rotate="auto" repeatCount="indefinite"><mpath href="#curve"/></animateMotion><animate attributeName="opacity" values=".8;.3;.8" dur="2s" repeatCount="indefinite"/></circle>
  </g>
</svg>