<?xml version="1.0" encoding="UTF-8"?>
<!-- build:2026-06-20T01:12:20.884Z user:statikfintechllc points:30 yMax:300 -->
<svg xmlns="http://www.w3.org/2000/svg" width="1200" height="420" viewBox="0 0 1200 420" role="img" aria-label="Contribution's Graph">
  <defs>
    <linearGradient id="bgGrad" x1="0" y1="0" x2="0" y2="1">
      <stop offset="0%" stop-color="#0a0d12"/><stop offset="100%" stop-color="#070a0d"/>
    </linearGradient>
    <filter id="glow"><feGaussianBlur stdDeviation="3" result="b1"/><feMerge><feMergeNode in="b1"/><feMergeNode in="SourceGraphic"/></feMerge></filter>
    <linearGradient id="sheen" x1="0" y1="0" x2="1" y2="0">
      <stop offset="0%" stop-color="#9b0e2a" stop-opacity="0"/>
      <stop offset="50%" stop-color="#9b0e2a" stop-opacity=".14"/>
      <stop offset="100%" stop-color="#9b0e2a" stop-opacity="0"/>
      <animateTransform attributeName="gradientTransform" type="translate" from="-1 0" to="1 0" dur="9s" repeatCount="indefinite"/>
    </linearGradient>
  </defs>

  <!-- BG -->
  <rect width="1200" height="420" fill="url(#bgGrad)"/>

  <!-- Plot frame -->
  <rect x="70" y="60" width="1080" height="260" fill="none" stroke="#121821" stroke-width="1"/>

  <!-- Y grid + labels -->
  <g font-family="ui-sans-serif,system-ui,-apple-system,Segoe UI,Roboto,Ubuntu,Arial" font-size="12">
    
      <path d="M70,320.0 H1150" stroke="#121821" stroke-width="1" opacity="0.6"/>
      <text x="60" y="324.0" text-anchor="end" fill="#ea384c">0</text>
    
      <path d="M70,233.3 H1150" stroke="#121821" stroke-width="1" opacity="0.6"/>
      <text x="60" y="237.3" text-anchor="end" fill="#ea384c">100</text>
    
      <path d="M70,146.7 H1150" stroke="#121821" stroke-width="1" opacity="0.6"/>
      <text x="60" y="150.7" text-anchor="end" fill="#ea384c">200</text>
    
      <path d="M70,60.0 H1150" stroke="#121821" stroke-width="1" opacity="0.6"/>
      <text x="60" y="64.0" text-anchor="end" fill="#ea384c">300</text>
    
    <text x="30" y="44" fill="#ea384c" font-size="13">Contributions</text>
  </g>

  <!-- X ticks + labels -->
  <g font-family="ui-sans-serif,system-ui,-apple-system,Segoe UI,Roboto,Ubuntu,Arial" font-size="12">
    
      <path d="M70.0,320 V326" stroke="#121821" stroke-width="1"/>
      <text x="70.0" y="340" text-anchor="middle" fill="#ea384c">5/22</text>
    
      <path d="M256.2,320 V326" stroke="#121821" stroke-width="1"/>
      <text x="256.2" y="340" text-anchor="middle" fill="#ea384c">5/27</text>
    
      <path d="M442.4,320 V326" stroke="#121821" stroke-width="1"/>
      <text x="442.4" y="340" text-anchor="middle" fill="#ea384c">6/1</text>
    
      <path d="M628.6,320 V326" stroke="#121821" stroke-width="1"/>
      <text x="628.6" y="340" text-anchor="middle" fill="#ea384c">6/6</text>
    
      <path d="M814.8,320 V326" stroke="#121821" stroke-width="1"/>
      <text x="814.8" y="340" text-anchor="middle" fill="#ea384c">6/11</text>
    
      <path d="M1001.0,320 V326" stroke="#121821" stroke-width="1"/>
      <text x="1001.0" y="340" text-anchor="middle" fill="#ea384c">6/16</text>
    
      <path d="M1150.0,320 V326" stroke="#121821" stroke-width="1"/>
      <text x="1150.0" y="340" text-anchor="middle" fill="#ea384c">6/20</text>
    
    <text x="610" y="358" text-anchor="middle" fill="#ea384c" font-size="13">Last 30 days</text>
  </g>

  <!-- Fancy sheen over plot area -->
  <rect x="70" y="60" width="1080" height="260" fill="url(#sheen)"/>

  <!-- Title -->
  <text x="600" y="40" text-anchor="middle"
        font-family="ui-sans-serif,system-ui,-apple-system,Segoe UI,Roboto,Ubuntu,Arial"
        font-size="22" fill="#ea384c" opacity=".95">Statik DK Smoke’s Contribution's</text>

  <!-- Area under curve -->
  <path d="M70.0,320.0 C77.4,288.8 92.3,176.8 107.2,164.0 C122.1,151.2 129.6,238.0 144.5,255.9 C159.4,273.7 166.8,248.4 181.7,253.3 C196.6,258.1 204.1,313.1 219.0,280.1 C233.9,247.2 241.3,129.9 256.2,88.6 C271.1,47.3 278.6,63.1 293.4,73.9 C308.3,84.6 315.8,97.1 330.7,142.3 C345.6,187.6 353.0,264.5 367.9,300.1 C382.8,335.6 390.3,316.0 405.2,320.0 C420.1,324.0 427.5,320.0 442.4,320.0 C457.3,320.0 464.8,320.0 479.7,320.0 C494.6,320.0 502.0,320.0 516.9,320.0 C531.8,320.0 539.2,345.0 554.1,320.0 C569.0,295.0 576.5,214.6 591.4,195.2 C606.3,175.8 613.7,199.7 628.6,222.9 C643.5,246.2 651.0,299.7 665.9,311.3 C680.8,322.9 688.2,287.6 703.1,281.0 C718.0,274.4 725.4,278.9 740.3,278.4 C755.2,277.9 762.7,278.4 777.6,278.4 C792.5,278.4 799.9,278.4 814.8,278.4 C829.7,278.4 837.2,278.4 852.1,278.4 C867.0,278.4 874.4,277.4 889.3,278.4 C904.2,279.4 911.7,275.3 926.6,283.6 C941.4,291.9 948.9,313.1 963.8,320.0 C978.7,326.9 986.1,332.1 1001.0,318.3 C1015.9,304.4 1023.4,266.8 1038.3,250.7 C1053.2,234.5 1060.6,237.7 1075.5,237.7 C1090.4,237.7 1097.9,234.2 1112.8,250.7 C1127.7,267.1 1142.6,306.1 1150.0,320.0 L 1150,320 L 70,320 Z" fill="#7a0f26" opacity=".13">
    <animate attributeName="opacity" values=".10;.17;.10" dur="6s" repeatCount="indefinite"/>
  </path>

  <!-- Neon curve -->
  <path id="curve" d="M70.0,320.0 C77.4,288.8 92.3,176.8 107.2,164.0 C122.1,151.2 129.6,238.0 144.5,255.9 C159.4,273.7 166.8,248.4 181.7,253.3 C196.6,258.1 204.1,313.1 219.0,280.1 C233.9,247.2 241.3,129.9 256.2,88.6 C271.1,47.3 278.6,63.1 293.4,73.9 C308.3,84.6 315.8,97.1 330.7,142.3 C345.6,187.6 353.0,264.5 367.9,300.1 C382.8,335.6 390.3,316.0 405.2,320.0 C420.1,324.0 427.5,320.0 442.4,320.0 C457.3,320.0 464.8,320.0 479.7,320.0 C494.6,320.0 502.0,320.0 516.9,320.0 C531.8,320.0 539.2,345.0 554.1,320.0 C569.0,295.0 576.5,214.6 591.4,195.2 C606.3,175.8 613.7,199.7 628.6,222.9 C643.5,246.2 651.0,299.7 665.9,311.3 C680.8,322.9 688.2,287.6 703.1,281.0 C718.0,274.4 725.4,278.9 740.3,278.4 C755.2,277.9 762.7,278.4 777.6,278.4 C792.5,278.4 799.9,278.4 814.8,278.4 C829.7,278.4 837.2,278.4 852.1,278.4 C867.0,278.4 874.4,277.4 889.3,278.4 C904.2,279.4 911.7,275.3 926.6,283.6 C941.4,291.9 948.9,313.1 963.8,320.0 C978.7,326.9 986.1,332.1 1001.0,318.3 C1015.9,304.4 1023.4,266.8 1038.3,250.7 C1053.2,234.5 1060.6,237.7 1075.5,237.7 C1090.4,237.7 1097.9,234.2 1112.8,250.7 C1127.7,267.1 1142.6,306.1 1150.0,320.0" fill="none" stroke="#c3193d" stroke-width="5"
        stroke-linecap="round" stroke-linejoin="round" stroke-dasharray="6 14" filter="url(#glow)">
    <animate attributeName="stroke-dashoffset" values="0;-220" dur="4.8s" repeatCount="indefinite"/>
  </path>

  <!-- Particles -->
  <g fill="#ffd1db">
    <circle r="4"><animateMotion dur="7s" rotate="auto" repeatCount="indefinite"><mpath href="#curve"/></animateMotion><animate attributeName="opacity" values="1;.3;1" dur="2.2s" repeatCount="indefinite"/></circle>
    <circle r="3" fill="#ffffff"><animateMotion dur="8.2s" begin="1s" rotate="auto" repeatCount="indefinite"><mpath href="#curve"/></animateMotion><animate attributeName="opacity" values=".7;.2;.7" dur="2.4s" repeatCount="indefinite"/></circle>
    <circle r="3" fill="#ffc7d3"><animateMotion dur="6s" begin="2s" rotate="auto" repeatCount="indefinite"><mpath href="#curve"/></animateMotion><animate attributeName="opacity" values=".8;.3;.8" dur="2s" repeatCount="indefinite"/></circle>
  </g>
</svg>