<?xml version="1.0" encoding="UTF-8"?>
<!-- build:2025-08-18T12:56:27.851Z user:statikfintechllc points:30 yMax:100 -->
<svg xmlns="http://www.w3.org/2000/svg" width="1200" height="420" viewBox="0 0 1200 420" role="img" aria-label="Contribution's Graph">
  <defs>
    <linearGradient id="bgGrad" x1="0" y1="0" x2="0" y2="1">
      <stop offset="0%" stop-color="#0a0d12"/><stop offset="100%" stop-color="#070a0d"/>
    </linearGradient>
    <filter id="glow"><feGaussianBlur stdDeviation="3" result="b1"/><feMerge><feMergeNode in="b1"/><feMergeNode in="SourceGraphic"/></feMerge></filter>
    <linearGradient id="sheen" x1="0" y1="0" x2="1" y2="0">
      <stop offset="0%" stop-color="#9b0e2a" stop-opacity="0"/>
      <stop offset="50%" stop-color="#9b0e2a" stop-opacity=".14"/>
      <stop offset="100%" stop-color="#9b0e2a" stop-opacity="0"/>
      <animateTransform attributeName="gradientTransform" type="translate" from="-1 0" to="1 0" dur="9s" repeatCount="indefinite"/>
    </linearGradient>
  </defs>

  <!-- BG -->
  <rect width="1200" height="420" fill="url(#bgGrad)"/>

  <!-- Plot frame -->
  <rect x="70" y="60" width="1080" height="260" fill="none" stroke="#121821" stroke-width="1"/>

  <!-- Y grid + labels -->
  <g font-family="ui-sans-serif,system-ui,-apple-system,Segoe UI,Roboto,Ubuntu,Arial" font-size="12">
    
      <path d="M70,320.0 H1150" stroke="#121821" stroke-width="1" opacity="0.6"/>
      <text x="60" y="324.0" text-anchor="end" fill="#ea384c">0</text>
    
      <path d="M70,268.0 H1150" stroke="#121821" stroke-width="1" opacity="0.6"/>
      <text x="60" y="272.0" text-anchor="end" fill="#ea384c">20</text>
    
      <path d="M70,216.0 H1150" stroke="#121821" stroke-width="1" opacity="0.6"/>
      <text x="60" y="220.0" text-anchor="end" fill="#ea384c">40</text>
    
      <path d="M70,164.0 H1150" stroke="#121821" stroke-width="1" opacity="0.6"/>
      <text x="60" y="168.0" text-anchor="end" fill="#ea384c">60</text>
    
      <path d="M70,112.0 H1150" stroke="#121821" stroke-width="1" opacity="0.6"/>
      <text x="60" y="116.0" text-anchor="end" fill="#ea384c">80</text>
    
      <path d="M70,60.0 H1150" stroke="#121821" stroke-width="1" opacity="0.6"/>
      <text x="60" y="64.0" text-anchor="end" fill="#ea384c">100</text>
    
    <text x="30" y="44" fill="#ea384c" font-size="13">Contributions</text>
  </g>

  <!-- X ticks + labels -->
  <g font-family="ui-sans-serif,system-ui,-apple-system,Segoe UI,Roboto,Ubuntu,Arial" font-size="12">
    
      <path d="M70.0,320 V326" stroke="#121821" stroke-width="1"/>
      <text x="70.0" y="340" text-anchor="middle" fill="#ea384c">7/20</text>
    
      <path d="M256.2,320 V326" stroke="#121821" stroke-width="1"/>
      <text x="256.2" y="340" text-anchor="middle" fill="#ea384c">7/25</text>
    
      <path d="M442.4,320 V326" stroke="#121821" stroke-width="1"/>
      <text x="442.4" y="340" text-anchor="middle" fill="#ea384c">7/30</text>
    
      <path d="M628.6,320 V326" stroke="#121821" stroke-width="1"/>
      <text x="628.6" y="340" text-anchor="middle" fill="#ea384c">8/4</text>
    
      <path d="M814.8,320 V326" stroke="#121821" stroke-width="1"/>
      <text x="814.8" y="340" text-anchor="middle" fill="#ea384c">8/9</text>
    
      <path d="M1001.0,320 V326" stroke="#121821" stroke-width="1"/>
      <text x="1001.0" y="340" text-anchor="middle" fill="#ea384c">8/14</text>
    
      <path d="M1150.0,320 V326" stroke="#121821" stroke-width="1"/>
      <text x="1150.0" y="340" text-anchor="middle" fill="#ea384c">8/18</text>
    
    <text x="610" y="358" text-anchor="middle" fill="#ea384c" font-size="13">Last 30 days</text>
  </g>

  <!-- Fancy sheen over plot area -->
  <rect x="70" y="60" width="1080" height="260" fill="url(#sheen)"/>

  <!-- Title -->
  <text x="600" y="40" text-anchor="middle"
        font-family="ui-sans-serif,system-ui,-apple-system,Segoe UI,Roboto,Ubuntu,Arial"
        font-size="22" fill="#ea384c" opacity=".95">Statik DK Smoke’s Contribution's</text>

  <!-- Area under curve -->
  <path d="M70.0,252.4 C77.4,262.8 92.3,300.8 107.2,304.4 C122.1,308.0 129.6,276.3 144.5,270.6 C159.4,264.9 166.8,266.4 181.7,275.8 C196.6,285.2 204.1,313.2 219.0,317.4 C233.9,321.6 241.3,313.2 256.2,296.6 C271.1,280.0 278.6,235.8 293.4,234.2 C308.3,232.6 315.8,275.3 330.7,288.8 C345.6,302.3 353.0,303.4 367.9,301.8 C382.8,300.2 390.3,280.5 405.2,281.0 C420.1,281.5 427.5,299.7 442.4,304.4 C457.3,309.1 464.8,305.4 479.7,304.4 C494.6,303.4 502.0,296.1 516.9,299.2 C531.8,302.3 539.2,325.2 554.1,320.0 C569.0,314.8 576.5,286.7 591.4,273.2 C606.3,259.7 613.7,243.6 628.6,252.4 C643.5,261.2 651.0,305.4 665.9,317.4 C680.8,329.4 688.2,324.7 703.1,312.2 C718.0,299.7 725.4,253.4 740.3,255.0 C755.2,256.6 762.7,308.0 777.6,320.0 C792.5,332.0 799.9,333.5 814.8,314.8 C829.7,296.1 837.2,235.8 852.1,226.4 C867.0,217.0 874.4,298.7 889.3,268.0 C904.2,237.3 911.7,70.9 926.6,73.0 C941.4,75.1 948.9,229.5 963.8,278.4 C978.7,327.3 986.1,355.9 1001.0,317.4 C1015.9,278.9 1023.4,109.4 1038.3,86.0 C1053.2,62.6 1060.6,178.6 1075.5,200.4 C1090.4,222.2 1097.9,185.8 1112.8,195.2 C1127.7,204.6 1142.6,236.8 1150.0,247.2 L 1150,320 L 70,320 Z" fill="#7a0f26" opacity=".13">
    <animate attributeName="opacity" values=".10;.17;.10" dur="6s" repeatCount="indefinite"/>
  </path>

  <!-- Neon curve -->
  <path id="curve" d="M70.0,252.4 C77.4,262.8 92.3,300.8 107.2,304.4 C122.1,308.0 129.6,276.3 144.5,270.6 C159.4,264.9 166.8,266.4 181.7,275.8 C196.6,285.2 204.1,313.2 219.0,317.4 C233.9,321.6 241.3,313.2 256.2,296.6 C271.1,280.0 278.6,235.8 293.4,234.2 C308.3,232.6 315.8,275.3 330.7,288.8 C345.6,302.3 353.0,303.4 367.9,301.8 C382.8,300.2 390.3,280.5 405.2,281.0 C420.1,281.5 427.5,299.7 442.4,304.4 C457.3,309.1 464.8,305.4 479.7,304.4 C494.6,303.4 502.0,296.1 516.9,299.2 C531.8,302.3 539.2,325.2 554.1,320.0 C569.0,314.8 576.5,286.7 591.4,273.2 C606.3,259.7 613.7,243.6 628.6,252.4 C643.5,261.2 651.0,305.4 665.9,317.4 C680.8,329.4 688.2,324.7 703.1,312.2 C718.0,299.7 725.4,253.4 740.3,255.0 C755.2,256.6 762.7,308.0 777.6,320.0 C792.5,332.0 799.9,333.5 814.8,314.8 C829.7,296.1 837.2,235.8 852.1,226.4 C867.0,217.0 874.4,298.7 889.3,268.0 C904.2,237.3 911.7,70.9 926.6,73.0 C941.4,75.1 948.9,229.5 963.8,278.4 C978.7,327.3 986.1,355.9 1001.0,317.4 C1015.9,278.9 1023.4,109.4 1038.3,86.0 C1053.2,62.6 1060.6,178.6 1075.5,200.4 C1090.4,222.2 1097.9,185.8 1112.8,195.2 C1127.7,204.6 1142.6,236.8 1150.0,247.2" fill="none" stroke="#c3193d" stroke-width="5"
        stroke-linecap="round" stroke-linejoin="round" stroke-dasharray="6 14" filter="url(#glow)">
    <animate attributeName="stroke-dashoffset" values="0;-220" dur="4.8s" repeatCount="indefinite"/>
  </path>

  <!-- Particles -->
  <g fill="#ffd1db">
    <circle r="4"><animateMotion dur="7s" rotate="auto" repeatCount="indefinite"><mpath href="#curve"/></animateMotion><animate attributeName="opacity" values="1;.3;1" dur="2.2s" repeatCount="indefinite"/></circle>
    <circle r="3" fill="#ffffff"><animateMotion dur="8.2s" begin="1s" rotate="auto" repeatCount="indefinite"><mpath href="#curve"/></animateMotion><animate attributeName="opacity" values=".7;.2;.7" dur="2.4s" repeatCount="indefinite"/></circle>
    <circle r="3" fill="#ffc7d3"><animateMotion dur="6s" begin="2s" rotate="auto" repeatCount="indefinite"><mpath href="#curve"/></animateMotion><animate attributeName="opacity" values=".8;.3;.8" dur="2s" repeatCount="indefinite"/></circle>
  </g>
</svg>